<svg xmlns="http://www.w3.org/2000/svg" xmlns:xlink="http://www.w3.org/1999/xlink" width="608.12" height="590.076" viewBox="0 0 608.12 590.076">
  <defs>
    <linearGradient id="linear-gradient" x1="0.166" y1="-0.357" x2="0.847" y2="0.725" gradientUnits="objectBoundingBox">
      <stop offset="0" stop-color="#2aa9ce"/>
      <stop offset="1" stop-color="#ef73db"/>
    </linearGradient>
    <linearGradient id="linear-gradient-2" x1="0" y1="-0.234" x2="1" y2="-0.234" xlink:href="#linear-gradient"/>
    <linearGradient id="linear-gradient-3" x1="0" y1="-0.516" x2="1" y2="-0.516" xlink:href="#linear-gradient"/>
    <linearGradient id="linear-gradient-4" x1="0" y1="-0.804" x2="1" y2="-0.804" xlink:href="#linear-gradient"/>
    <linearGradient id="linear-gradient-5" y1="0.896" x2="1" y2="0.896" gradientUnits="objectBoundingBox">
      <stop offset="0.249" stop-color="#df1e68"/>
      <stop offset="1" stop-color="#cc1f5e"/>
    </linearGradient>
    <linearGradient id="linear-gradient-6" y1="0.022" x2="0.998" y2="0.022" gradientUnits="objectBoundingBox">
      <stop offset="0" stop-color="#e01e68"/>
      <stop offset="0.312" stop-color="#e1206a"/>
      <stop offset="0.433" stop-color="#e52671"/>
      <stop offset="0.521" stop-color="#ec327d"/>
      <stop offset="0.522" stop-color="#ec327d"/>
      <stop offset="0.755" stop-color="#da276b"/>
      <stop offset="0.992" stop-color="#cc1f5e"/>
    </linearGradient>
    <linearGradient id="linear-gradient-7" y1="0.704" x2="1" y2="0.704" gradientUnits="objectBoundingBox">
      <stop offset="0" stop-color="#e01e68"/>
      <stop offset="0.314" stop-color="#e1206a"/>
      <stop offset="0.436" stop-color="#e52771"/>
      <stop offset="0.524" stop-color="#ec327d"/>
      <stop offset="0.593" stop-color="#f6428d"/>
      <stop offset="0.603" stop-color="#f23f89"/>
      <stop offset="0.664" stop-color="#e13176"/>
      <stop offset="0.736" stop-color="#d52768"/>
      <stop offset="0.826" stop-color="#ce2160"/>
      <stop offset="0.992" stop-color="#cc1f5e"/>
    </linearGradient>
    <linearGradient id="linear-gradient-8" x1="0.417" y1="6.216" x2="0.581" y2="6.773" gradientUnits="objectBoundingBox">
      <stop offset="0" stop-color="#e01e68"/>
      <stop offset="0.594" stop-color="#ef3681"/>
      <stop offset="1" stop-color="#f6428d"/>
    </linearGradient>
    <linearGradient id="linear-gradient-9" x1="0.417" y1="5.816" x2="0.582" y2="6.373" xlink:href="#linear-gradient-8"/>
    <linearGradient id="linear-gradient-10" x1="0.257" y1="-8.69" x2="0.741" y2="-7.94" gradientUnits="objectBoundingBox">
      <stop offset="0" stop-color="#418ec6"/>
      <stop offset="1" stop-color="#9162d7"/>
    </linearGradient>
    <linearGradient id="linear-gradient-11" x1="-1.057" y1="-148.258" x2="1.491" y2="-146.434" gradientUnits="objectBoundingBox">
      <stop offset="0" stop-color="#6d6e71"/>
      <stop offset="1" stop-color="#bcbec0"/>
    </linearGradient>
    <linearGradient id="linear-gradient-12" x1="-0.743" y1="-173.178" x2="2.67" y2="-171.067" xlink:href="#linear-gradient-11"/>
    <linearGradient id="linear-gradient-13" x1="-0.3" y1="-167.299" x2="3.102" y2="-165.28" xlink:href="#linear-gradient-11"/>
    <linearGradient id="linear-gradient-14" x1="0.142" y1="-180.083" x2="3.55" y2="-177.92" xlink:href="#linear-gradient-11"/>
    <linearGradient id="linear-gradient-15" x1="-0.368" y1="-145.062" x2="2.088" y2="-143.304" xlink:href="#linear-gradient-11"/>
    <linearGradient id="linear-gradient-16" x1="-2.406" y1="-177.585" x2="1.013" y2="-175.414" xlink:href="#linear-gradient-11"/>
    <linearGradient id="linear-gradient-17" x1="-1.96" y1="-160.547" x2="1.44" y2="-158.606" xlink:href="#linear-gradient-11"/>
    <linearGradient id="linear-gradient-18" x1="-1.547" y1="-161.674" x2="1.857" y2="-159.732" xlink:href="#linear-gradient-11"/>
    <linearGradient id="linear-gradient-19" x1="-0.585" y1="-134.682" x2="1.698" y2="-133.043" xlink:href="#linear-gradient-11"/>
  </defs>
  <g id="illustration2" transform="translate(839.1 -465.769)">
    <g id="Group_42" data-name="Group 42" transform="translate(-839.1 465.769)">
      <g id="Group_1" data-name="Group 1" transform="translate(78.725 191.857)">
        <path id="Path_166" data-name="Path 166" d="M-303.152,703.582v2.344L-619.226,523.47c-10.158-5.86-26.568-5.86-36.726,0l-147.293,85.172v-1.953h-15.628V623.1h0c-.391,3.907,2.344,8.2,7.423,10.939l321.935,185.972c10.158,5.86,26.567,5.86,36.726,0l155.5-89.86c5.079-2.735,7.423-6.642,7.423-10.158h0v-16.8l-13.284.391Z" transform="translate(819.068 -502.666)" fill="#d1d3d4" opacity="0.4"/>
        <path id="Path_167" data-name="Path 167" d="M-297.174,705.242c10.158,5.86,10.158,15.237,0,21.1l-155.5,89.86c-10.158,5.86-26.567,5.86-36.726,0L-811.332,630.228c-10.158-5.86-10.158-15.237,0-21.1l155.5-89.86c10.158-5.86,26.567-5.86,36.726,0Z" transform="translate(818.95 -514.875)" fill="#fff"/>
        <path id="Path_168" data-name="Path 168" d="M-361.007,678.614l-174.251,100.8L-810.7,620.4l174.642-100.8Z" transform="translate(842.933 -501.139)" fill="url(#linear-gradient)"/>
        <path id="Path_169" data-name="Path 169" d="M-674.705,577.57c9.768,5.861,9.768,14.846,0,20.707s-26.177,5.861-35.944,0-9.767-14.846,0-20.707C-700.491,571.71-684.473,571.71-674.705,577.57Z" transform="translate(1112.482 -345.398)" fill="#e6e7e8"/>
        <path id="Path_170" data-name="Path 170" d="M-657.544,567.147c3.907,2.344,3.907,6.251,0,8.2l-33.6,19.535-14.456-8.6,33.6-19.535C-668.093,564.8-661.451,564.8-657.544,567.147Z" transform="translate(1148.456 -368.184)" fill="#e6e7e8"/>
        <path id="Path_171" data-name="Path 171" d="M-728.52,608.039c-3.907-2.344-3.907-6.251,0-8.2l33.6-19.535,14.456,8.6-33.6,19.535C-717.971,610.383-724.613,610.383-728.52,608.039Z" transform="translate(1073.31 -324.686)" fill="#e6e7e8"/>
        <path id="Path_172" data-name="Path 172" d="M-741.569,526.954c2.344,1.172,2.344,3.125,0,4.688l-50.009,28.912c-2.344,1.172-5.86,1.172-7.814,0h0c-2.344-1.172-2.344-3.126,0-4.688l50.009-28.912c1.954-1.172,5.47-1.172,7.814,0Z" transform="translate(870.694 -482.317)" fill="#e6e7e8"/>
        <path id="Path_173" data-name="Path 173" d="M-753.323,520.221c5.079,2.735,5.861,7.423,1.954,10.549h0a8.535,8.535,0,0,1-1.954,1.172c-.391.391-.781.391-1.172.782-1.172.391-1.953.781-3.125,1.172a32.052,32.052,0,0,1-8.6.781,25.927,25.927,0,0,1-7.814-2.344c-5.86-3.516-5.86-8.6,0-12.111l2.344-1.172a19.056,19.056,0,0,1,8.2-1.172,14.661,14.661,0,0,1,3.907.391c1.563.391,3.125.781,4.3,1.172A2.982,2.982,0,0,1-753.323,520.221Z" transform="translate(936.756 -506.449)" fill="#414042"/>
        <path id="Path_174" data-name="Path 174" d="M-768.5,517.8l5.86,16.409a32.056,32.056,0,0,1-8.6.781l-5.47-15.628A19.219,19.219,0,0,1-768.5,517.8Z" transform="translate(941.77 -506.372)" fill="#6d6e71"/>
        <path id="Path_175" data-name="Path 175" d="M-769.3,519.072l3.907,11.721h0a8.533,8.533,0,0,1-1.954,1.172c-.391.391-.781.391-1.172.782L-773.6,517.9A10.187,10.187,0,0,1-769.3,519.072Z" transform="translate(950.782 -506.081)" fill="#6d6e71"/>
        <path id="Path_176" data-name="Path 176" d="M-762.735,519.972c2.735,1.563,3.125,3.907,1.172,5.86h0c-.391.391-.781.391-1.172.781-.391,0-.391.391-.782.391-.391.391-1.172.391-1.953.782a19.027,19.027,0,0,1-4.688.391,13.845,13.845,0,0,1-4.3-1.172c-3.125-1.953-3.125-4.688,0-6.642.391-.391.781-.391,1.172-.781a16.787,16.787,0,0,1,4.688-.782h1.954a5.548,5.548,0,0,1,2.344.782C-763.517,519.582-763.126,519.972-762.735,519.972Z" transform="translate(941.479 -503.465)" fill="#231f20"/>
      </g>
      <g id="Group_6" data-name="Group 6" transform="translate(203.163 108.446)">
        <path id="Path_177" data-name="Path 177" d="M-538,616.8l-80.875-46.493L-672.4,539.444c-5.47-3.125-14.456-3.125-19.926,0l-1.563.781-85.172,49.228c-5.079,2.735-5.47,8.2,0,11.33l134.4,77.749c5.47,3.125,14.456,3.125,19.926,0l87.125-50.4C-532.526,624.616-532.916,619.537-538,616.8Z" transform="translate(798.981 -366.856)" opacity="0.3" fill="url(#linear-gradient-2)"/>
        <path id="Path_178" data-name="Path 178" d="M-537.7,622.393l-80.875-46.884L-672.1,544.644c-5.47-3.126-14.456-3.126-19.926,0l-1.563.781-85.563,49.228c-5.079,2.735-5.47,8.2,0,11.33l134.4,77.749c5.47,3.125,14.456,3.125,19.926,0l87.125-50.4C-532.625,629.816-532.625,624.737-537.7,622.393Z" transform="translate(798.69 -351.74)" opacity="0.2" fill="url(#linear-gradient-3)"/>
        <path id="Path_179" data-name="Path 179" d="M-537.7,627.3l-80.875-46.493L-672.1,549.944c-5.47-3.125-14.456-3.125-19.926,0l-1.563.781-85.563,49.228c-5.079,2.735-5.47,8.2,0,11.33l134.4,77.749c5.47,3.125,14.456,3.125,19.926,0l87.125-50.4C-532.625,635.116-532.625,630.037-537.7,627.3Z" transform="translate(798.69 -336.333)" opacity="0.1" fill="url(#linear-gradient-4)"/>
        <g id="Group_2" data-name="Group 2" transform="translate(122.92 3.641)">
          <path id="Path_180" data-name="Path 180" d="M-732.828,573.935a3.691,3.691,0,0,1-3.907-3.907V552.447c0-4.688-5.47-16.8-9.768-26.177-8.6-18.754-10.939-25.786-7.814-29.693,2.344-3.126,7.032-2.735,11.721.781,3.517,2.735,2.344,5.079,1.563,5.86-.391.391-2.344,3.126-5.86.782a.383.383,0,0,1-.391-.391c1.563,4.688,5.079,13.284,7.814,19.535,5.47,11.721,10.158,23.051,10.158,29.3v17.581C-728.921,572.372-730.484,573.935-732.828,573.935Z" transform="translate(755.638 -494.458)" fill="#a7a9ac"/>
        </g>
        <path id="Path_181" data-name="Path 181" d="M-517.773,598.051a5.391,5.391,0,0,0-1.563-1.172l-150.809-87.125a16.965,16.965,0,0,0-8.2-1.953,18.163,18.163,0,0,0-8.2,1.953l-97.674,56.261c-.391.391-.391.391-.782.391h0l-.391.391.782,3.516.781,31.256,16.409,75.4,84.781-51.963c5.079-3.125,13.284-3.125,18.363,0l128.54,74.233,21.1-95.721C-514.256,603.13-517.773,598.051-517.773,598.051Zm-246.139-1.172a14.014,14.014,0,0,1,10.158-1.563,6.68,6.68,0,0,1,5.079,5.86l3.126,18.753L-770.163,633.6l-4.688-22.66C-774.07,605.865-769.772,600-763.912,596.879ZM-751.019,659q-4.689,2.93-8.2,2.344c-2.344-.391-4.3-1.563-4.688-3.516l-3.907-15.628,23.832-13.675,2.735,16.019C-740.47,648.842-744.768,655.483-751.019,659Zm14.455-64.465c-.781-6.251,4.3-14.456,11.33-18.363,3.516-1.954,6.642-2.344,8.986-1.172,2.344.781,3.907,3.125,3.907,6.251l1.172,19.144-23.051,12.893Zm17.191,45.712c-2.735,1.563-5.47,2.344-7.814,1.954a4.555,4.555,0,0,1-3.907-3.907l-1.953-16.018,22.27-12.893,1.172,16.409C-709.214,630.088-713.512,636.73-719.372,640.246Zm39.851-32.428c0,4.688-4.688,10.94-10.158,14.456-2.735,1.563-5.079,2.344-7.032,1.563-1.954-.391-3.126-1.954-3.126-4.3l-.391-16.409,21.1-12.112Zm1.172-25.786-21.489,12.112L-700.619,575c0-6.251,5.079-14.456,11.721-17.972,3.125-1.563,6.251-1.954,8.2-.782s3.125,3.126,3.125,6.251Zm28.912,35.944c-.391,5.079-4.688,6.251-9.768,3.517a19.108,19.108,0,0,1-6.251-6.251c-1.563-2.735-2.735-5.47-2.344-7.814l.781-16.8,19.144,10.939Zm1.953-25.4-19.144-10.939.781-18.363c0-5.86,4.688-7.814,10.549-4.688,2.735,1.563,5.079,4.3,7.032,7.033,1.563,2.735,2.735,6.251,2.344,8.986ZM-622.87,633.6c-.391,5.079-5.079,6.251-10.158,3.126a17.047,17.047,0,0,1-6.251-6.642,16.191,16.191,0,0,1-2.344-7.814l1.172-16.8,19.535,11.33Zm4.688-42.977-1.954,17.972-19.925-11.33L-638.5,579.3c.391-5.47,5.47-7.814,10.939-4.688a20.2,20.2,0,0,1,7.033,7.033A19.278,19.278,0,0,1-618.182,590.628Zm22.27,58.6c-.782,4.688-5.47,6.251-10.94,3.126a18.055,18.055,0,0,1-6.642-6.642c-1.563-2.735-2.344-5.47-1.953-7.814l1.953-16.409,19.925,11.721Zm6.642-42.586-2.735,17.581-20.316-11.721,1.954-17.972c.781-5.47,5.86-7.423,11.721-4.3a16.187,16.187,0,0,1,7.033,7.423A13.578,13.578,0,0,1-589.27,606.646Zm20.707,58.6c-.781,4.688-6.251,5.86-11.721,2.735a18.056,18.056,0,0,1-6.642-6.642c-1.563-2.735-2.344-5.47-1.954-7.814l2.735-16.018,20.316,11.721Zm-15.628-36.335,3.125-17.581c.782-5.47,6.642-7.423,12.5-3.907a16.19,16.19,0,0,1,7.032,7.423,15.72,15.72,0,0,1,1.954,8.986l-3.516,17.581Zm44.149,53.135c-1.172,4.688-6.642,5.86-12.111,2.344a18.055,18.055,0,0,1-6.642-6.642c-1.563-2.735-2.344-5.47-1.563-7.814l3.516-16.018,21.1,12.112Zm10.549-41.414-4.3,17.191-21.1-12.112,3.907-17.191c1.172-5.47,7.033-7.032,13.284-3.907a16.191,16.191,0,0,1,7.033,7.423C-529.494,634.777-528.712,637.9-529.494,640.637Z" transform="translate(792.042 -452.03)" fill="url(#linear-gradient-5)"/>
        <path id="Path_182" data-name="Path 182" d="M-767.007,569.174q-4.689,2.93-8.2,2.344A5.635,5.635,0,0,1-779.9,568a7.363,7.363,0,0,0,3.516,1.563,15.9,15.9,0,0,0,8.6-2.344c6.251-3.516,10.549-10.158,9.767-14.456l-2.735-13.674.781-.391,2.735,16.019C-756.458,559.016-760.756,565.658-767.007,569.174Z" transform="translate(808.03 -362.205)" fill="#f6428d"/>
        <path id="Path_183" data-name="Path 183" d="M-756.6,553.07l-24.614,13.674-.391-2.735,24.223-13.284-3.125-18.753a1.436,1.436,0,0,0-.391-1.172,7.367,7.367,0,0,1,1.563,3.517Z" transform="translate(803.088 -385.17)" fill="#f6428d"/>
        <path id="Path_184" data-name="Path 184" d="M-750.011,550.209c.391,4.688-3.907,10.94-9.767,14.456-2.735,1.563-5.47,2.344-7.814,1.954A4.586,4.586,0,0,1-771.5,563.1a3.955,3.955,0,0,0,2.735,1.563c1.954.391,4.688-.391,7.814-1.954,5.861-3.516,10.158-9.767,9.767-14.456l-.781-14.065.781-.391Z" transform="translate(832.449 -376.449)" fill="#f6428d"/>
        <path id="Path_185" data-name="Path 185" d="M-748.858,548.361l-23.051,12.893-.391-2.344,22.66-12.5-1.172-19.535V525.7a7.8,7.8,0,0,1,.782,3.516Z" transform="translate(830.123 -399.995)" fill="#f6428d"/>
        <path id="Path_186" data-name="Path 186" d="M-742.4,529.1l-.782,16.8c0,4.688-4.688,10.94-10.158,14.456-2.735,1.563-5.079,2.344-7.032,1.563-1.563-.391-2.735-1.563-3.126-3.907a2.638,2.638,0,0,0,2.344,1.563c1.954.391,4.3,0,7.033-1.563,5.47-3.125,9.767-9.377,10.158-14.456l.391-14.456Z" transform="translate(855.705 -390.112)" fill="#f6428d"/>
        <path id="Path_187" data-name="Path 187" d="M-741.33,524.126l-.782,19.535L-763.6,555.772v-2.344l21.1-11.721.782-19.535V521A4.151,4.151,0,0,1-741.33,524.126Z" transform="translate(855.414 -413.658)" fill="#f6428d"/>
        <path id="Path_188" data-name="Path 188" d="M-735.765,531.8l-1.172,16.8c-.391,5.079-4.688,6.251-9.768,3.516a19.107,19.107,0,0,1-6.251-6.251,12.6,12.6,0,0,1-2.344-7.032,23.885,23.885,0,0,0,1.954,4.688,19.105,19.105,0,0,0,6.251,6.251c5.079,3.126,9.377,1.563,9.768-3.516l1.563-14.456Z" transform="translate(879.542 -382.263)" fill="#f6428d"/>
        <path id="Path_189" data-name="Path 189" d="M-734.684,526.644l-1.172,17.972L-755,533.677v-1.953l19.144,10.939,1.172-17.972v1.953Z" transform="translate(880.414 -404.065)" fill="#f6428d"/>
        <path id="Path_190" data-name="Path 190" d="M-726.321,528.7v1.172l-1.954,17.972-19.925-11.33V534.56l19.925,11.33Z" transform="translate(900.181 -391.274)" fill="#f6428d"/>
        <path id="Path_191" data-name="Path 191" d="M-727.993,535.7l-1.954,16.409c-.391,5.079-5.079,6.251-10.158,3.125a17.044,17.044,0,0,1-6.251-6.642,16.191,16.191,0,0,1-2.344-7.814,18.414,18.414,0,0,0,2.344,5.86,18.053,18.053,0,0,0,6.642,6.642c5.079,3.125,9.768,1.563,10.549-3.126l1.172-14.456Z" transform="translate(898.728 -370.926)" fill="#f6428d"/>
        <path id="Path_192" data-name="Path 192" d="M-722,551.739l-.391,1.563c-.781,4.688-5.47,6.251-10.939,3.126a18.055,18.055,0,0,1-6.642-6.642c-1.563-2.735-2.344-5.47-1.954-7.814V540.8a13.171,13.171,0,0,0,1.954,6.642,18.055,18.055,0,0,0,6.642,6.642C-727.47,557.209-722.782,556.037-722,551.739Z" transform="translate(918.131 -356.1)" fill="#f6428d"/>
        <path id="Path_193" data-name="Path 193" d="M-720.784,545.821v2.344L-741.1,536.444V534.1Z" transform="translate(920.821 -375.577)" fill="#f6428d"/>
        <path id="Path_194" data-name="Path 194" d="M-712.8,562.521l-.391,2.344L-733.9,553.144l3.125-17.581c0-.391.391-1.172.391-1.563l-2.735,16.8Z" transform="translate(941.751 -375.868)" fill="#f6428d"/>
        <path id="Path_195" data-name="Path 195" d="M-714.61,567.958v.782c-.781,4.688-6.251,5.86-11.721,2.735a18.056,18.056,0,0,1-6.642-6.642c-1.563-2.735-2.344-5.47-1.953-7.814L-732.191,541h0l-2.344,14.065c-.391,2.344.391,5.079,1.953,7.814a18.057,18.057,0,0,0,6.642,6.642C-720.861,572.256-716.173,571.474-714.61,567.958Z" transform="translate(938.479 -355.519)" fill="#f6428d"/>
        <path id="Path_196" data-name="Path 196" d="M-707.256,572.939h0c-1.172,5.079-6.642,5.86-12.111,2.735a18.053,18.053,0,0,1-6.642-6.642c-1.563-2.735-2.344-5.47-1.563-7.814l3.517-16.018h.391l-3.125,13.675a11.8,11.8,0,0,0,1.563,7.814,18.053,18.053,0,0,0,6.642,6.642C-713.9,576.065-709.209,576.065-707.256,572.939Z" transform="translate(959.256 -343.309)" fill="#f6428d"/>
        <path id="Path_197" data-name="Path 197" d="M-704.621,567.112l-.782,2.344-21.1-12.112,3.907-17.191a2.983,2.983,0,0,1,.781-1.953l-3.907,17.191Z" transform="translate(963.263 -363.659)" fill="#f6428d"/>
        <path id="Path_198" data-name="Path 198" d="M-552.232,620.146-633.5,667.03c-5.079,3.126-13.284,3.126-18.363,0l-125.414-72.279c-5.079-3.125-4.688-7.814,0-10.549l79.7-46.1,51.181,29.693a16.965,16.965,0,0,0,8.2,1.954,18.162,18.162,0,0,0,8.2-1.954l2.344-1.563,75.4,43.367C-547.544,611.942-547.544,616.63-552.232,620.146Z" transform="translate(805.013 -363.949)" fill="#cc1f5e"/>
        <path id="Path_199" data-name="Path 199" d="M-739.674,539.644c-5.079-3.125-13.284-3.125-18.363,0l-1.563.782,51.181,29.693a16.966,16.966,0,0,0,8.2,1.953,18.163,18.163,0,0,0,8.2-1.953l2.344-1.563Z" transform="translate(867.042 -366.274)" fill="#e01e68"/>
        <path id="Path_200" data-name="Path 200" d="M-689.666,568.456l-2.344,1.563a16.965,16.965,0,0,1-8.2,1.954,18.162,18.162,0,0,1-8.2-1.954L-759.6,540.326l1.563-.781c5.079-3.125,13.284-3.125,18.363,0Z" transform="translate(867.042 -366.565)" fill="#cc1f5e"/>
        <path id="Path_201" data-name="Path 201" d="M-612.43,618.625c-6.251,3.517-16.019,3.517-22.27,0L-785.9,531.5l1.172,4.3,18.363,72.67a7.37,7.37,0,0,0,3.907,5.47l125.414,72.279c5.079,3.126,13.284,3.126,18.363,0l81.265-46.884c2.344-1.563,3.125-3.516,3.907-5.47l17.972-67.2,1.172-4.688ZM-777.7,549.472c-1.172-5.079.781-7.814,4.688-7.032A26.934,26.934,0,0,1-769.1,544a21.5,21.5,0,0,1,3.516,2.735,33.735,33.735,0,0,1,5.079,5.47c2.344,3.516,4.3,7.032,5.079,10.158l4.3,19.926-21.488-12.5Zm24.223,64.075a32.7,32.7,0,0,1-7.814-7.032,23.474,23.474,0,0,1-4.688-8.6l-4.688-18.363,21.1,12.5,3.907,17.972C-744.486,615.5-748,617.063-753.472,613.546Zm6.251-45.712c-1.172-6.251,2.344-8.6,8.6-5.079l.781.391a31.091,31.091,0,0,1,8.2,7.814,27.975,27.975,0,0,1,4.688,9.768l3.125,19.144-21.1-12.5Zm21.489,62.121a23.976,23.976,0,0,1-7.423-6.642c-1.954-2.735-3.907-5.86-4.3-8.6l-3.516-17.972,20.707,12.5,2.735,17.581C-716.747,631.909-720.263,633.081-725.732,629.956Zm8.986-44.149c-.781-6.251,3.125-8.2,9.377-4.688a31.092,31.092,0,0,1,8.2,7.814,22.132,22.132,0,0,1,4.3,9.377l1.953,18.754-21.1-12.5Zm18.363,60.167a23.974,23.974,0,0,1-7.423-6.642c-1.953-2.735-3.516-5.47-3.907-8.2l-2.735-17.191,20.707,12.112,1.954,16.8C-689.007,647.928-692.914,649.491-698.384,645.974Zm12.112-42.2c-.391-5.861,3.907-7.814,10.158-4.3a31.093,31.093,0,0,1,8.2,7.814c1.954,3.125,3.516,6.251,3.516,9.377l1.172,17.972-21.1-12.5Zm14.847,58.214a22.714,22.714,0,0,1-7.033-6.642,19.446,19.446,0,0,1-3.516-7.814l-1.563-16.8,20.707,12.112,1.172,16.018C-661.658,664.337-665.956,665.509-671.425,661.993Zm15.237-40.242c-.391-5.47,4.3-7.423,10.549-3.907a24.872,24.872,0,0,1,7.814,7.814c1.953,3.125,3.125,6.251,3.125,8.986v17.191l-20.707-12.5Zm12.112,56.26a22.709,22.709,0,0,1-7.032-6.642c-1.953-2.735-3.126-5.47-3.126-7.814l-.781-16.019,20.316,12.112v15.628C-634.7,680.356-639,681.137-644.077,678.011Zm46.493-16.018c-.391,4.3-5.079,10.158-10.549,13.284-2.735,1.563-5.079,1.954-6.642,1.563s-2.735-1.563-2.344-3.907l.781-14.456,20.316-11.331Zm2.344-23.051-20.707,11.721.782-16.8c.391-5.47,5.47-12.5,11.33-16.409,3.126-1.954,5.86-2.344,7.423-1.563,1.954.782,2.735,2.344,2.735,5.079Zm27.349,6.642c-.781,4.688-5.86,10.939-11.33,14.065-2.735,1.563-5.079,1.954-6.642,1.563s-2.344-1.954-2.344-4.3l1.954-15.628,21.1-12.112Zm7.423-43.368-3.125,18.363-21.489,12.112,2.344-17.581c.781-5.47,5.86-12.5,11.721-16.409l.391-.391c.391,0,.391-.391.781-.391s.391-.391.781-.391h0a8.91,8.91,0,0,1,6.642-1.172C-560.468,597.137-559.686,599.091-560.468,602.216Zm23.442,26.177c-1.172,5.079-6.642,11.33-12.5,14.456-2.735,1.563-5.079,1.953-6.642,1.563s-2.344-1.953-1.563-4.3l3.125-16.41,21.879-12.5Zm9.377-52.353c1.563.781,2.344,3.125,1.563,6.251l-4.688,19.535-22.27,12.893,3.907-18.754c1.172-5.079,5.47-11.721,10.94-16.018,1.172-.781,1.953-1.563,3.126-2.344a13.88,13.88,0,0,1,3.516-1.563C-529.993,575.258-528.431,575.258-527.649,576.04Z" transform="translate(790.588 -383.135)" fill="url(#linear-gradient-6)"/>
        <path id="Path_202" data-name="Path 202" d="M-756.6,576.719c-.391,3.125-3.516,3.516-8.2,1.172a32.7,32.7,0,0,1-7.814-7.032,23.474,23.474,0,0,1-4.688-8.6L-782,543.9l2.344,1.563,3.516,14.847a23.471,23.471,0,0,0,4.688,8.6c2.344,2.735,4.688,5.47,7.423,7.033C-760.511,577.5-758.167,577.5-756.6,576.719Z" transform="translate(801.925 -347.089)" fill="#f6428d"/>
        <path id="Path_203" data-name="Path 203" d="M-757.052,574.251l-21.488-12.5-5.079-20.707c-.781-3.516-.391-5.86,1.563-6.642a7.993,7.993,0,0,0,0,4.3l5.079,20.707,19.144,11.33Z" transform="translate(796.122 -374.705)" fill="#f6428d"/>
        <path id="Path_204" data-name="Path 204" d="M-750.786,577.488l-21.1-12.5-3.907-19.925q-.586-4.1,1.172-5.86a5.423,5.423,0,0,0,0,3.516l3.907,19.925,19.535,11.721Z" transform="translate(819.549 -360.751)" fill="#f6428d"/>
        <path id="Path_205" data-name="Path 205" d="M-750.667,579.946c-.391,3.516-3.907,4.3-8.6,1.563a23.969,23.969,0,0,1-7.423-6.642c-1.953-2.735-3.907-5.86-4.3-8.6L-774.5,548.3l1.953,1.172,2.735,14.456c.391,2.735,1.954,5.47,4.3,8.6a23.975,23.975,0,0,0,7.423,6.642C-754.574,581.119-751.84,581.119-750.667,579.946Z" transform="translate(823.728 -334.298)" fill="#f6428d"/>
        <path id="Path_206" data-name="Path 206" d="M-744.149,582.684c0,3.907-3.907,5.079-8.986,1.954A23.975,23.975,0,0,1-760.558,578c-1.953-2.735-3.516-5.47-3.907-8.2L-767.2,552.6l1.172.782,1.953,14.456a22.223,22.223,0,0,0,3.907,8.2,23.973,23.973,0,0,0,7.423,6.642C-748.447,585.028-745.321,585.028-744.149,582.684Z" transform="translate(844.949 -321.798)" fill="#f6428d"/>
        <path id="Path_207" data-name="Path 207" d="M-744.153,580.535l-21.1-12.5-2.735-19.144c-.391-1.954,0-3.907.782-4.688v2.735l2.735,19.144,19.925,12.112Z" transform="translate(842.218 -346.217)" fill="#f6428d"/>
        <path id="Path_208" data-name="Path 208" d="M-737.449,583.482l-21.1-12.5-1.954-18.363a8.676,8.676,0,0,1,.391-3.516v1.563l1.954,18.363,20.316,12.112Z" transform="translate(864.425 -331.972)" fill="#f6428d"/>
        <path id="Path_209" data-name="Path 209" d="M-738.212,585.13h0c.391,5.079-3.907,6.251-9.377,3.125a22.713,22.713,0,0,1-7.033-6.642,19.445,19.445,0,0,1-3.516-7.814L-759.7,557l.781.391,1.563,14.065a17.389,17.389,0,0,0,3.516,7.814,22.713,22.713,0,0,0,7.033,6.642C-742.509,588.646-738.993,588.256-738.212,585.13Z" transform="translate(866.751 -309.007)" fill="#f6428d"/>
        <path id="Path_210" data-name="Path 210" d="M-731.793,589.33c0,4.688-4.3,5.47-9.768,2.344a22.714,22.714,0,0,1-7.033-6.642c-1.953-2.735-3.125-5.47-3.125-7.814L-752.5,561.2h0l.781,13.675c0,2.344,1.172,5.079,3.125,7.814a38.141,38.141,0,0,0,7.033,6.642c5.079,3.126,9.377,1.954,9.377-2.344V573.312h0Z" transform="translate(887.681 -296.798)" fill="#f6428d"/>
        <path id="Path_211" data-name="Path 211" d="M-731.212,585.846l-20.707-12.5-.781-17.581V554.2l.781,17.191,20.707,12.5v1.954Z" transform="translate(887.1 -317.147)" fill="#f6428d"/>
        <path id="Path_212" data-name="Path 212" d="M-721.546,561l-1.563,15.237c-.391,4.3-5.079,10.158-10.549,13.284-2.735,1.563-5.079,1.954-6.642,1.563s-2.735-1.563-2.344-3.907a2.6,2.6,0,0,0,1.954,1.563c1.563.391,3.907,0,6.642-1.563,5.079-3.125,9.768-8.986,10.158-13.284l1.172-12.5Z" transform="translate(916.113 -297.379)" fill="#f6428d"/>
        <path id="Path_213" data-name="Path 213" d="M-720.03,557.407l-1.563,17.191L-742.3,586.319v-2.344l19.925-11.721,1.563-17.191V553.5A11.561,11.561,0,0,1-720.03,557.407Z" transform="translate(917.332 -319.182)" fill="#f6428d"/>
        <path id="Path_214" data-name="Path 214" d="M-712.249,556.5l-2.735,16.019c-.781,4.688-5.86,10.939-11.331,14.065-2.735,1.563-5.079,1.954-6.642,1.563a4.052,4.052,0,0,1-2.344-3.126,2.029,2.029,0,0,0,1.563.782c1.563.391,3.907,0,6.642-1.563,5.47-3.125,10.549-9.377,11.33-14.065l2.344-13.284Z" transform="translate(937.681 -310.461)" fill="#f6428d"/>
        <path id="Path_215" data-name="Path 215" d="M-709.886,553.379l-3.125,18.363L-734.5,583.854l.391-2.735,19.926-11.721,3.125-18.363c0-1.172.391-1.954,0-2.735C-709.886,549.082-709.5,551.035-709.886,553.379Z" transform="translate(940.007 -334.298)" fill="#f6428d"/>
        <path id="Path_216" data-name="Path 216" d="M-702.3,551.9l-4.3,17.191c-1.172,5.079-6.642,11.33-12.5,14.456-2.735,1.563-5.079,1.953-6.642,1.563-1.172-.391-1.563-1.172-1.954-2.344.391,0,.391.391.782.391,1.563.391,3.907,0,6.642-1.563,5.47-3.125,10.94-9.767,12.112-14.456l3.516-13.674Z" transform="translate(959.774 -323.833)" fill="#f6428d"/>
        <path id="Path_217" data-name="Path 217" d="M-699.342,548.76-704.03,568.3l-22.27,12.893.781-3.126,20.316-11.721,4.688-19.535a6.625,6.625,0,0,0,0-3.907C-698.951,543.681-698.561,546.026-699.342,548.76Z" transform="translate(963.844 -349.995)" fill="#f6428d"/>
        <path id="Path_218" data-name="Path 218" d="M-506.87,554.646v26.567h0a5.55,5.55,0,0,1-.781,2.344,14.925,14.925,0,0,1-3.516,3.516l-97.674,56.651c-6.251,3.516-16.018,3.516-22.27,0L-782.7,556.209a11.711,11.711,0,0,1-3.907-3.516,6.65,6.65,0,0,1-.391-2.735v-.391h0V523a5.648,5.648,0,0,0,.781,2.735,11.718,11.718,0,0,0,3.907,3.516l151.2,87.125c6.251,3.516,16.018,3.516,22.27,0l97.674-56.651c1.563-1.172,3.125-1.954,3.516-3.516.39,0,.39-.782.781-1.563Z" transform="translate(787.391 -407.844)" fill="url(#linear-gradient-7)"/>
        <path id="Path_219" data-name="Path 219" d="M-514.756,562.074l-1.172,4.688-16.018,9.377-6.642,3.907-30.865,17.581h0l-1.563.782-.391.391-41.414,23.832c-6.251,3.516-16.018,3.516-22.27,0l-102.753-59.777-.781-.391-27.349-15.628-7.423-4.3-11.33-6.642-1.172-4.3,151.2,87.126c6.251,3.516,16.018,3.516,22.27,0Z" transform="translate(790.588 -382.844)" fill="#cc1f5e"/>
        <path id="Path_220" data-name="Path 220" d="M-511.268,595.988-535.1,582.313l-7.814-4.688-119.163-68.763c-6.251-3.516-16.018-3.516-22.27,0l-98.065,56.651c-3.125,1.954-4.688,3.907-4.688,6.251a5.646,5.646,0,0,0,.781,2.735,11.719,11.719,0,0,0,3.907,3.516l151.2,87.125c6.251,3.516,16.018,3.516,22.27,0l97.674-56.651c1.563-1.172,3.125-1.954,3.516-3.516a5.557,5.557,0,0,0,.781-2.344v-.782C-506.579,600.285-508.142,597.941-511.268,595.988Zm-3.126,7.423-95.33,55.088-2.735,1.563a16.965,16.965,0,0,1-8.2,1.954,18.162,18.162,0,0,1-8.2-1.954l-51.181-29.693-99.237-57.432a5.394,5.394,0,0,1-1.563-1.172,5.39,5.39,0,0,1,1.563-1.172l98.065-56.26a16.962,16.962,0,0,1,8.2-1.954,18.159,18.159,0,0,1,8.2,1.954l122.288,70.716,7.814,4.688L-514,601.848a5.394,5.394,0,0,1,1.563,1.172C-512.831,602.63-513.221,603.02-514.393,603.411Z" transform="translate(787.1 -456.609)" fill="#f6428d"/>
        <g id="Group_3" data-name="Group 3" transform="translate(26.414 14.19)">
          <path id="Path_221" data-name="Path 221" d="M-775.888,640.709A3.915,3.915,0,0,1-779.8,636.8c-.391-8.6-1.172-23.833.391-27.349,3.907-12.112,77.358-109,77.749-110.177,2.344-3.125,7.033-2.735,11.721.782,3.516,2.735,2.344,5.079,1.563,5.86-.391.391-2.344,3.126-5.86.781l-1.172-1.172a1.435,1.435,0,0,0-1.172-.391c-9.377,12.112-72.669,97.283-75.8,106.66-.391,1.954-.391,14.456.391,24.614a4.016,4.016,0,0,1-3.907,4.3Z" transform="translate(780.339 -497.158)" fill="#a7a9ac"/>
        </g>
        <path id="Path_222" data-name="Path 222" d="M-738.781,494.207h0c-1.563-1.172-4.3-.781-7.033.782-5.079,2.735-8.986,9.377-8.986,14.065q0,3.516,2.344,4.688h0l59.777,34.382L-679.4,528.2Z" transform="translate(880.995 -493.526)" fill="url(#linear-gradient-8)"/>
        <path id="Path_223" data-name="Path 223" d="M-721.528,507.6c0,5.079-3.907,11.33-8.986,14.065s-8.986,1.172-8.986-3.907,3.907-11.33,8.986-14.065S-721.528,502.519-721.528,507.6Z" transform="translate(925.472 -467.847)" fill="#cc1f5e"/>
        <path id="Path_224" data-name="Path 224" d="M-743.381,497.007h0c-1.563-1.172-4.3-.782-7.033.781-5.079,2.735-8.986,9.377-8.986,14.065q0,3.516,2.344,4.688h0l59.777,34.381L-684,531Z" transform="translate(867.623 -485.386)" fill="url(#linear-gradient-9)"/>
        <path id="Path_225" data-name="Path 225" d="M-726.128,510.527c0,5.079-3.907,11.33-8.986,14.065s-8.986,1.172-8.986-3.907,3.907-11.33,8.986-14.065C-730.035,503.494-726.128,505.448-726.128,510.527Z" transform="translate(912.1 -459.836)" fill="#cc1f5e"/>
        <g id="Group_4" data-name="Group 4" transform="translate(132.386 52.766)">
          <path id="Path_226" data-name="Path 226" d="M-748.857,672.174a3.915,3.915,0,0,1-3.907-3.907c-.391-8.6-.781-23.832,0-27.349,1.954-5.47,12.893-35.944,23.442-65.246,9.768-26.567,20.316-56.651,21.1-58.6.391-1.172.391-1.563-1.563-2.735a3.843,3.843,0,0,1-1.172-5.47,3.843,3.843,0,0,1,5.47-1.172c1.563,1.172,7.033,4.3,5.079,11.721-.391,1.954-8.2,23.442-21.1,59-10.549,29.3-21.488,59.777-23.442,65.246-.391,1.954-.391,14.456.391,24.614,0,1.953-1.953,3.516-4.3,3.907Z" transform="translate(753.216 -507.031)" fill="#a7a9ac"/>
        </g>
        <g id="Group_5" data-name="Group 5" transform="translate(191.955 41.436)">
          <path id="Path_227" data-name="Path 227" d="M-677.924,582.539V588.4l-7.814-4.688v-1.172c0-10.158-31.646-50.4-46.1-67.2-2.344-2.735-3.516-3.907-4.3-3.907a3.843,3.843,0,0,1-1.172-5.47,3.843,3.843,0,0,1,5.47-1.172,39.674,39.674,0,0,1,6.251,5.86C-723.635,513-677.924,566.521-677.924,582.539Z" transform="translate(737.969 -504.131)" fill="#a7a9ac"/>
        </g>
      </g>
      <g id="Group_7" data-name="Group 7" transform="translate(356.316 20.942)">
        <path id="Path_228" data-name="Path 228" d="M-688.514,517.012a10.614,10.614,0,0,1-3.907,8.6l-.391.391a11.694,11.694,0,0,1-3.907,1.563,21.206,21.206,0,0,1-7.033,0c0,1.954.391,7.423,8.6,15.237A57.949,57.949,0,0,1-718.6,521.7c-16.018-9.377-29.3-26.567-29.3-38.679a11.192,11.192,0,0,1,3.125-8.2h0a5.386,5.386,0,0,1,1.563-1.172c5.47-2.735,14.456-1.563,24.614,4.3C-701.8,487.319-688.514,504.9-688.514,517.012Z" transform="translate(747.9 -467.896)" fill="#d1c6c6"/>
        <path id="Path_229" data-name="Path 229" d="M-651.16,548.177c0,5.079-1.563,8.6-4.688,10.94l-1.563.781h0c-7.033,3.907-18.753,2.344-32.037-5.47-12.893,5.47-30.865-7.814-30.865-7.814,8.6,1.953,10.939-1.563,11.33-4.688v-2.344C-721.1,527.86-729.3,513.4-729.3,502.465c0-4.688,1.563-8.6,4.688-10.94l1.954-1.172c7.032-3.907,19.144-1.954,32.428,5.86C-668.742,509.5-651.16,532.158-651.16,548.177Z" transform="translate(801.969 -420.921)" fill="#d1c6c6"/>
        <path id="Path_230" data-name="Path 230" d="M-653.468,557.829h0l-7.423,4.688c3.126-2.344,4.688-5.861,4.688-10.94,0-16.018-17.581-39.07-39.07-51.181-13.674-7.814-25.786-9.767-32.428-5.86l6.642-4.688h0c6.642-4.688,19.144-3.125,33.6,5.079,21.488,12.5,39.07,35.553,39.07,51.181C-648,551.577-649.951,555.484-653.468,557.829Z" transform="translate(806.621 -424.322)" fill="#b2a1a1"/>
        <path id="Path_231" data-name="Path 231" d="M-715.67,502.491c-.391,3.125-2.735,6.642-11.33,4.688l7.814-5.079C-718.014,502.1-716.842,502.491-715.67,502.491Z" transform="translate(808.656 -381.096)" fill="#fff" opacity="0.2"/>
        <path id="Path_232" data-name="Path 232" d="M-685.651,515.947c0,3.907-1.563,7.033-4.3,8.6h0l-6.251,4.3a10.614,10.614,0,0,0,3.907-8.6c0-12.112-13.284-29.693-29.693-39.07-10.158-5.86-19.535-7.423-24.614-4.3l5.47-3.516c5.079-3.907,14.846-2.735,25.786,3.907C-698.935,486.254-685.651,503.835-685.651,515.947Z" transform="translate(751.679 -471.129)" fill="#b2a1a1"/>
        <path id="Path_233" data-name="Path 233" d="M-721.581,497.24h0l-6.251,4.3h0c-8.6-7.814-8.986-13.284-8.6-15.237a21.107,21.107,0,0,0,7.033,0c.781,2.735,2.735,6.642,7.814,10.939Z" transform="translate(780.966 -427.026)" fill="#d1c6c6" opacity="0.2"/>
      </g>
      <g id="Group_8" data-name="Group 8" transform="translate(7.814 233.196)">
        <path id="Path_234" data-name="Path 234" d="M-808.97,636.978s-13.284-7.423-15.628-8.6c-8.2-4.688-12.112-10.158-12.5-16.018,0-6.642,5.47-13.674,14.846-19.144.781-.391,89.079-51.963,103.144-59.777,13.284-7.423,26.567-13.284,40.242-.391a1.189,1.189,0,0,1,0,1.563,1.189,1.189,0,0,1-1.563,0c-11.721-10.939-22.27-8.2-37.9.781-14.456,8.2-102.363,59.386-103.144,59.777-8.986,5.079-14.065,11.33-14.065,17.581,0,5.47,3.907,10.158,11.33,14.456,2.344,1.172,15.628,8.6,15.628,8.6Z" transform="translate(837.1 -525.456)" fill="#e0d9d9"/>
      </g>
      <g id="Group_9" data-name="Group 9" transform="translate(283.484 487.551)">
        <path id="Path_235" data-name="Path 235" d="M-748.017,602.441h-.391l-17.581-10.158c-.391-.391-.781-.782-.391-1.172s.781-.781,1.172-.391l17.581,10.158c.391.391.781.781.391,1.172A1.365,1.365,0,0,1-748.017,602.441Z" transform="translate(766.541 -590.559)" fill="#fff"/>
      </g>
      <g id="Group_10" data-name="Group 10" transform="translate(196.359 436.76)">
        <path id="Path_236" data-name="Path 236" d="M-770.317,589.441h-.391l-17.581-10.158c-.391-.391-.781-.781-.391-1.172s.781-.781,1.172-.391l17.581,10.158c.391.391.782.782.391,1.172A1.366,1.366,0,0,1-770.317,589.441Z" transform="translate(788.841 -577.559)" fill="#fff"/>
      </g>
      <g id="Group_12" data-name="Group 12" transform="translate(373.345 453.17)">
        <g id="Group_11" data-name="Group 11">
          <path id="Path_237" data-name="Path 237" d="M-653.91,715.93c-5.86,0-11.33-2.735-17.581-6.251-1.172-.781-2.344-1.172-3.516-1.954-8.6-4.3-50.4-28.13-67.981-38.288-.391-.391-.782-.782-.391-1.172s.781-.781,1.172-.391c13.674,7.814,59,33.6,67.981,38.288,1.172.781,2.344,1.172,3.517,1.954,8.986,4.688,16.409,8.6,26.567,2.735,10.549-6.251,105.1-60.558,117.991-68.372,7.032-4.3,10.939-8.6,10.939-12.5,0-3.516-2.735-6.642-8.2-9.767-12.893-7.814-64.074-36.335-64.465-36.726s-.781-.781-.391-1.172.781-.781,1.172-.391,51.572,28.912,64.465,36.726c5.86,3.516,8.986,7.423,8.986,11.721q0,7.033-11.721,14.065c-12.893,7.814-107.442,62.121-117.991,68.372A19.2,19.2,0,0,1-653.91,715.93Z" transform="translate(743.541 -581.759)" fill="#fff"/>
        </g>
      </g>
      <g id="Group_14" data-name="Group 14" transform="translate(5.079 230.473)" opacity="0.3">
        <g id="Group_13" data-name="Group 13">
          <path id="Path_238" data-name="Path 238" d="M-806.544,642.129a3.524,3.524,0,0,1-1.954-.391c-12.893-7.423-12.893-7.423-15.628-8.6-11.33-6.251-13.674-13.674-13.674-18.753,0-7.814,5.86-15.628,16.409-21.488.782-.391,89.079-51.963,103.535-59.777,13.675-7.814,28.521-14.065,43.758,0a4.184,4.184,0,0,1,.391,5.47,4.184,4.184,0,0,1-5.47.391c-10.549-9.768-19.925-7.423-34.381,1.172-14.456,8.2-102.363,59.386-103.144,59.777-7.814,4.688-12.5,10.158-12.5,14.846,0,5.47,5.47,9.377,9.767,12.112,2.344,1.172,2.344,1.172,15.628,8.986a4.326,4.326,0,0,1,1.563,5.47C-803.809,641.347-804.982,642.129-806.544,642.129Z" transform="translate(837.8 -524.759)" fill="#e0d9d9"/>
        </g>
      </g>
      <g id="Group_16" data-name="Group 16" transform="translate(280.534 484.21)" opacity="0.3">
        <g id="Group_15" data-name="Group 15">
          <path id="Path_239" data-name="Path 239" d="M-745.822,607.662a3.522,3.522,0,0,1-1.954-.391l-17.581-10.158a4.326,4.326,0,0,1-1.563-5.47,4.326,4.326,0,0,1,5.47-1.563l17.581,10.158a4.326,4.326,0,0,1,1.563,5.47A4.663,4.663,0,0,1-745.822,607.662Z" transform="translate(767.297 -589.703)" fill="#fff"/>
        </g>
      </g>
      <g id="Group_18" data-name="Group 18" transform="translate(193.408 433.419)" opacity="0.3">
        <g id="Group_17" data-name="Group 17">
          <path id="Path_240" data-name="Path 240" d="M-768.122,594.662a3.524,3.524,0,0,1-1.953-.391l-17.581-10.158a4.326,4.326,0,0,1-1.563-5.47,4.326,4.326,0,0,1,5.47-1.563l17.581,10.158a4.326,4.326,0,0,1,1.563,5.47A3.417,3.417,0,0,1-768.122,594.662Z" transform="translate(789.597 -576.703)" fill="#fff"/>
        </g>
      </g>
      <g id="Group_19" data-name="Group 19" transform="translate(108.452 385.97)">
        <path id="Path_241" data-name="Path 241" d="M-792.817,576.441h-.391l-17.581-10.158c-.391-.391-.781-.781-.391-1.172s.781-.782,1.172-.391l17.581,10.158c.391.391.782.781.391,1.172A1.365,1.365,0,0,1-792.817,576.441Z" transform="translate(811.341 -564.559)" fill="#fff"/>
      </g>
      <g id="Group_21" data-name="Group 21" transform="translate(105.502 382.629)" opacity="0.3">
        <g id="Group_20" data-name="Group 20">
          <path id="Path_242" data-name="Path 242" d="M-790.622,581.662a3.524,3.524,0,0,1-1.954-.391l-17.581-10.158a4.326,4.326,0,0,1-1.563-5.47,4.326,4.326,0,0,1,5.47-1.563l17.581,10.158a4.326,4.326,0,0,1,1.563,5.47A4.1,4.1,0,0,1-790.622,581.662Z" transform="translate(812.097 -563.704)" fill="#fff"/>
        </g>
      </g>
      <circle id="Ellipse_1" data-name="Ellipse 1" cx="4.298" cy="4.298" r="4.298" transform="translate(525.488 450.206)" fill="#fff"/>
      <g id="Group_23" data-name="Group 23" transform="translate(371.002 447.471)" opacity="0.3">
        <g id="Group_22" data-name="Group 22">
          <path id="Path_243" data-name="Path 243" d="M-518.939,620.542c-10.549-6.251-46.1-26.177-59.386-33.6a7.206,7.206,0,0,0-7.033-6.642,7,7,0,0,0-7.033,7.033,7,7,0,0,0,7.033,7.033,7.355,7.355,0,0,0,3.126-.782c13.284,7.423,48.837,27.349,59.386,33.6,4.3,2.735,6.642,5.079,6.642,7.423,0,2.735-3.516,6.251-9.377,9.767-8.2,4.688-48.056,27.74-115.646,66.809l-2.344,1.563c-8.6,5.079-14.456,1.953-23.442-3.126-1.172-.781-2.344-1.172-3.516-1.953-8.6-4.3-50.009-28.13-67.591-38.288a3.953,3.953,0,0,0-5.47,1.563,3.953,3.953,0,0,0,1.563,5.47c17.581,10.158,59.386,33.991,67.982,38.288,1.172.782,2.344,1.172,3.516,1.954,5.86,3.125,12.112,6.251,18.753,6.251a25.059,25.059,0,0,0,12.112-3.516l2.344-1.563c67.591-39.07,107.442-62.121,115.646-66.809,8.6-5.079,13.284-10.939,13.284-16.409Q-508.39,626.988-518.939,620.542Z" transform="translate(744.141 -580.3)" fill="#fff"/>
        </g>
      </g>
      <g id="Group_33" data-name="Group 33" transform="translate(21.586 337.294)">
        <g id="Group_24" data-name="Group 24">
          <path id="Path_244" data-name="Path 244" d="M-767.254,607.579c-8.2,4.688-21.879,4.688-30.474,0l-29.693-17.191c-8.2-4.688-8.2-12.893,0-17.581l29.693-17.191c8.2-4.688,21.879-4.688,30.474,0l29.693,17.191c8.2,4.688,8.2,12.893,0,17.581Z" transform="translate(833.575 -552.1)" fill="#76db26"/>
        </g>
        <g id="Group_25" data-name="Group 25" transform="translate(86.344 52.354)">
          <path id="Path_245" data-name="Path 245" d="M-745.154,620.979c-8.2,4.688-21.879,4.688-30.474,0l-29.693-17.191c-8.2-4.688-8.2-12.893,0-17.581l29.693-17.191c8.2-4.688,21.879-4.688,30.474,0l29.693,17.191c8.2,4.688,8.2,12.893,0,17.581Z" transform="translate(811.475 -565.5)" fill="#ed1c24"/>
        </g>
        <g id="Group_26" data-name="Group 26" transform="translate(173.86 102.363)">
          <path id="Path_246" data-name="Path 246" d="M-722.754,633.779c-8.2,4.688-21.879,4.688-30.474,0l-29.693-17.191c-8.2-4.688-8.2-12.893,0-17.581l29.693-17.191c8.2-4.688,21.879-4.688,30.474,0l29.693,17.191c8.6,4.688,8.6,12.893,0,17.581Z" transform="translate(789.075 -578.3)" fill="#58dfec"/>
        </g>
        <g id="Group_27" data-name="Group 27" transform="translate(264.893 153.153)">
          <path id="Path_247" data-name="Path 247" d="M-699.454,646.779c-8.6,4.688-21.879,4.688-30.474,0l-29.693-17.191c-8.2-4.688-8.2-12.893,0-17.581l29.693-17.191c8.2-4.688,21.879-4.688,30.474,0l29.693,17.191c8.2,4.688,8.2,12.893,0,17.581Z" transform="translate(765.775 -591.3)" fill="#58dfec"/>
        </g>
        <g id="Group_28" data-name="Group 28" transform="translate(27.251 12.503)">
          <path id="Path_248" data-name="Path 248" d="M-764.479,574.444c0-2.344-3.517-4.3-7.814-4.3l-38.679,3.907,4.3-14.456c0-2.344-3.516-4.3-7.814-4.3s-7.814,1.953-7.814,4.3l-4.3,19.144a3.664,3.664,0,0,0,2.344,3.125,12.479,12.479,0,0,0,5.47,1.172l46.493-3.907C-768,578.742-764.479,576.788-764.479,574.444Z" transform="translate(826.6 -555.3)" fill="#fff"/>
        </g>
        <path id="Path_249" data-name="Path 249" d="M-726.424,596.574a36.136,36.136,0,0,0,3.907-1.953c7.423-3.516,6.642-8.6,3.516-10.158-4.3-2.344-8.6,0-14.846,3.907l-.781.391c-1.563.782-9.377.782-13.284.391a3.664,3.664,0,0,0-2.344-3.125l-4.3-2.735a11.685,11.685,0,0,0-11.33,0l-17.972,10.549c-3.125,1.953-3.125,4.688,0,6.642l4.3,2.735a12.478,12.478,0,0,0,5.47,1.172c2.344,3.516,9.767,7.814,14.065,10.549,3.516,1.953,11.33,6.642,17.972,3.125.781-.391,1.172-.782,1.563-.782a11.586,11.586,0,0,0,7.423-1.172,8.507,8.507,0,0,0,1.953-1.563,8.97,8.97,0,0,0,5.47-1.563c1.954-1.172,2.735-2.735,2.344-3.907.782-.391,1.172-.781,1.563-.781,2.735-1.563,2.735-3.907,1.563-5.079-.782-.781-1.563-1.172-2.344-1.953a29.165,29.165,0,0,0-4.688-2.735c-.781-.391-.781-.781-.781-.781C-727.986,597.355-727.986,596.965-726.424,596.574Zm-53.525-.391,17.972-10.549a1.775,1.775,0,0,1,1.954,0l4.3,2.735a.733.733,0,0,1,0,1.172L-773.7,600.09a1.775,1.775,0,0,1-1.953,0l-4.3-2.735C-780.34,596.965-780.34,596.183-779.949,596.183Zm48.446,4.3c.781.391,3.125,1.954,4.3,2.735.391.391.781.391,1.172.781.391.782-.781,1.172-1.172,1.172a7.8,7.8,0,0,0-3.516.781c-.781.781-.391,1.563.391,2.344.781.391.391.781,0,1.172a4.251,4.251,0,0,1-1.954.391,4.282,4.282,0,0,0-3.125,0h-.391c-.781.391-1.172.782-.781,1.563a4.836,4.836,0,0,1-1.172.781,2.458,2.458,0,0,1-2.344,0,6.652,6.652,0,0,0-2.735-.391,2.362,2.362,0,0,0-2.344,1.172c-.391.781-.781.781-1.563,1.172-1.954,1.172-7.033-1.953-9.377-3.125-7.423-4.3-11.33-7.423-12.893-9.377l17.581-10.158c5.861.782,16.8,1.172,20.316-1.172l1.172-.391c2.344-1.172,4.688-2.735,6.251-3.125.391.781,0,2.735-3.126,4.3a38.01,38.01,0,0,1-4.3,1.953C-735.409,596.183-735.409,598.527-731.5,600.481Z" transform="translate(971.293 -465.69)" fill="#fff"/>
        <g id="Group_29" data-name="Group 29" transform="translate(276.516 165.851)">
          <path id="Path_250" data-name="Path 250" d="M-721,633.815c-.391.391-1.172.391-2.344.391a4.955,4.955,0,0,1-2.344-.391l-36.335-21.1c-.782-.391-.782-.781-.782-1.563a1.248,1.248,0,0,1,1.172-1.172l29.3-14.846a4.233,4.233,0,0,1,4.3,0l32.819,18.753a1.5,1.5,0,0,1,0,2.735L-721,633.815Zm-33.991-22.269,31.256,17.972,21.1-14.065-28.521-16.409Z" transform="translate(762.8 -594.55)" fill="#fff"/>
        </g>
        <g id="Group_30" data-name="Group 30" transform="translate(314.707 165.265)">
          <path id="Path_251" data-name="Path 251" d="M-725.969,608.465l-6.642,3.907a4.966,4.966,0,0,1-4.688,0,1.5,1.5,0,0,1,0-2.735l6.642-3.907c2.735-1.563,2.735-4.3,0-5.86l-.391-.391a10.759,10.759,0,0,0-9.767,0l-6.642,3.907a4.964,4.964,0,0,1-4.688,0,1.5,1.5,0,0,1,0-2.735l6.642-3.907c5.079-3.126,13.674-3.126,19.144,0l.391.391C-720.5,600.651-720.5,605.34-725.969,608.465Z" transform="translate(753.025 -594.4)" fill="#fff"/>
        </g>
        <g id="Group_31" data-name="Group 31" transform="translate(290.581 173.665)">
          <path id="Path_252" data-name="Path 252" d="M-732.633,619.8c-.391.391-1.172.391-2.344.391a4.957,4.957,0,0,1-2.344-.391l-21.1-12.112c-.781-.391-.781-.781-.781-1.563a1.248,1.248,0,0,1,1.172-1.172l15.628-7.814a4.233,4.233,0,0,1,4.3,0l19.144,11.331a1.5,1.5,0,0,1,0,2.735l-13.674,8.6Zm-18.753-13.284,16.409,9.377,9.377-6.251-15.237-8.6Z" transform="translate(759.2 -596.55)" fill="#fff"/>
        </g>
        <g id="Group_32" data-name="Group 32" transform="translate(111.236 61.272)">
          <path id="Path_253" data-name="Path 253" d="M-749.61,599.106h0c-.782.391-1.172.781-1.954,1.172-7.423,3.516-17.972,4.3-28.13,2.344a85.142,85.142,0,0,0-17.191-1.172,5.807,5.807,0,0,1-3.516-.781c-.781-.391-1.563-1.172-1.172-1.954,0,0,.391-5.86-1.954-10.158-3.125-5.86-1.563-12.111,4.3-16.018,7.423-5.079,19.925-6.251,28.13-2.735,5.079,2.344,7.814,5.47,7.814,9.377,6.642,0,12.112,1.563,16.019,4.688C-741.014,588.166-742.186,594.808-749.61,599.106Zm-43.367-2.735a133.982,133.982,0,0,1,16.018,1.172c7.423,1.172,14.846.781,19.926-1.563,5.47-2.344,6.642-6.642,3.125-9.377-4.3-3.126-11.33-2.735-13.284-2.344-1.563,0-3.125,0-3.907-.782q-1.758-1.172-1.172-2.344c.391-1.172,1.563-5.079-3.907-7.814a18.009,18.009,0,0,0-16.018,1.953,8.7,8.7,0,0,0-2.735,11.721A23.62,23.62,0,0,1-792.977,596.371Z" transform="translate(805.104 -567.783)" fill="#fff"/>
        </g>
      </g>
      <g id="Group_34" data-name="Group 34" transform="translate(1.172 104.496)">
        <path id="Path_254" data-name="Path 254" d="M-813,513.465a4.871,4.871,0,0,0,4.688,1.172c1.563,0,3.125-.781,5.079-1.563a25.074,25.074,0,0,0,5.079-3.907,25.665,25.665,0,0,0,4.688-6.642,2.862,2.862,0,0,0-3.125-3.126,23.783,23.783,0,0,1-6.251,6.251,7.8,7.8,0,0,1-6.251,1.172A7.251,7.251,0,0,0-813,513.465Z" transform="translate(913.8 -472.499)" fill="#fff" opacity="0.8"/>
        <path id="Path_255" data-name="Path 255" d="M-838.8,572.55v25.4c0,3.516,3.126,5.079,6.642,2.735l115.646-66.809h0c5.47,3.516,12.111-2.344,12.111-2.344-3.907,0-4.3-2.344-4.3-3.907a4.042,4.042,0,0,1,.391-1.563,8.906,8.906,0,0,0,1.172-4.3v-25.4c0-3.516-3.125-5.079-6.642-2.735l-118.381,68.763C-836.065,564.346-838.8,569.034-838.8,572.55Zm96.5-42.977c0-7.423,6.251-17.191,13.674-21.879,7.814-4.3,13.674-1.954,13.674,5.86s-6.251,17.191-13.674,21.879C-736.437,539.732-742.3,537-742.3,529.574Z" transform="translate(838.8 -492.515)" fill="#e0d9d9"/>
        <path id="Path_256" data-name="Path 256" d="M-812.2,507.568c0,2.344,1.563,3.907,3.516,3.516a9.935,9.935,0,0,0,2.735-.782,7.32,7.32,0,0,0,2.735-2.344c1.954-2.344,3.516-5.079,3.516-7.423,0-3.516-2.735-4.688-6.251-2.735S-812.2,504.442-812.2,507.568Z" transform="translate(916.125 -479.886)" fill="#fff" opacity="0.8"/>
        <path id="Path_257" data-name="Path 257" d="M-802.491,511.079-835.7,530.223v-5.079L-802.491,506Z" transform="translate(847.812 -453.313)" fill="#fff"/>
        <path id="Path_258" data-name="Path 258" d="M-815.384,516.579-835.7,527.91v-5.079l20.316-11.331Z" transform="translate(847.812 -437.325)" fill="#fff"/>
        <path id="Path_259" data-name="Path 259" d="M-757.561,510.279l-78.139,44.93V550.13l78.139-44.93Z" transform="translate(847.812 -455.639)" fill="#fff"/>
      </g>
      <g id="Group_35" data-name="Group 35" transform="translate(0 159.771)">
        <path id="Path_260" data-name="Path 260" d="M-816.165,529.916a25.669,25.669,0,0,1-4.688,6.642,16.119,16.119,0,0,1-5.079,3.907,9.46,9.46,0,0,1-5.079,1.563,6.227,6.227,0,0,1-4.688-1.563c0-2.735,1.563-4.688,3.125-6.642,1.563.781,3.907.391,6.251-1.172a19.111,19.111,0,0,0,6.251-6.251C-817.337,526.791-816.165,527.572-816.165,529.916Z" transform="translate(848.983 -449.286)" fill="#e0d9d9"/>
        <path id="Path_261" data-name="Path 261" d="M-712.123,507.591l-117.6,67.981c-3.517,1.953-6.642,6.642-6.642,10.549v25.4a4.437,4.437,0,0,0,1.172,3.125,2.283,2.283,0,0,1,.391,1.563c0,1.563-.782,4.688-4.3,8.986,0,0,7.033-2.344,12.112-12.112h0l114.865-66.419c3.516-1.953,6.642-6.642,6.642-10.549v-25.4C-705.481,506.809-708.607,505.637-712.123,507.591Zm-103.535,92.6c-7.423,4.3-13.674,1.954-13.674-5.86,0-7.423,6.251-17.191,13.674-21.488s13.674-1.954,13.674,5.86C-801.593,586.121-807.844,595.5-815.658,600.186Z" transform="translate(839.1 -506.663)" fill="#e0d9d9"/>
        <path id="Path_262" data-name="Path 262" d="M-822.2,527.557c0,2.344-1.563,5.47-3.516,7.423a7.006,7.006,0,0,1-2.735,1.953,7.246,7.246,0,0,1-2.735.782A3.279,3.279,0,0,1-834.7,534.2c0-3.516,2.735-7.814,6.251-9.767C-824.932,523.26-822.2,524.432-822.2,527.557Z" transform="translate(851.891 -456.304)" fill="#e0d9d9"/>
        <path id="Path_263" data-name="Path 263" d="M-783.751,519.079l-44.149,25.4V539.4l44.149-25.4Z" transform="translate(871.658 -485.332)" fill="#fff"/>
        <path id="Path_264" data-name="Path 264" d="M-750.151,517.97-827.9,562.509V557.43l77.749-44.93Z" transform="translate(871.658 -489.693)" fill="#fff"/>
        <path id="Path_265" data-name="Path 265" d="M-769.3,522.679l-58.6,33.991v-5.079l58.6-33.991Z" transform="translate(871.658 -474.867)" fill="#fff"/>
      </g>
      <g id="Group_37" data-name="Group 37" transform="translate(513.767 157.574)">
        <g id="Group_36" data-name="Group 36" transform="translate(0 2.344)" opacity="0.9">
          <path id="Path_266" data-name="Path 266" d="M-632.54,548.9v12.5l-73.06-42.2V506.7Z" transform="translate(713.414 -506.7)" fill="#d1c6c6" opacity="0.97"/>
          <path id="Path_267" data-name="Path 267" d="M-687.965,522.117l-14.456-8.2c-2.735-1.563-5.079-.391-5.079,2.735v16.409a11.14,11.14,0,0,0,5.079,8.6l14.456,8.2c2.735,1.563,5.079.391,5.079-2.735V530.713A11.14,11.14,0,0,0-687.965,522.117Z" transform="translate(707.891 -487.736)" fill="#d1c6c6" opacity="0.97"/>
          <path id="Path_268" data-name="Path 268" d="M-679.865,526.817l-14.456-8.2c-2.735-1.563-5.079-.391-5.079,2.735v16.409a11.14,11.14,0,0,0,5.079,8.6l14.456,8.2c2.735,1.563,5.079.391,5.079-2.735V535.413A11.139,11.139,0,0,0-679.865,526.817Z" transform="translate(731.437 -474.073)" fill="#d1c6c6" opacity="0.97"/>
          <path id="Path_269" data-name="Path 269" d="M-666.686,540.181V556.59c0,1.563-.391,2.735-1.563,3.126h-.391c-.781.391-1.953,0-3.125-.391l-14.456-8.2a11.139,11.139,0,0,1-5.079-8.6V526.116c0-1.563.391-2.735,1.563-3.126l.782-.391a4.213,4.213,0,0,1,2.735.781l14.456,8.2A11.139,11.139,0,0,1-666.686,540.181Z" transform="translate(754.983 -460.479)" fill="#d1c6c6" opacity="0.97"/>
          <path id="Path_270" data-name="Path 270" d="M-687.965,531.317l-14.456-8.2c-2.735-1.563-5.079-.391-5.079,2.735v16.41a11.14,11.14,0,0,0,5.079,8.6l14.456,8.2c2.735,1.563,5.079.391,5.079-2.735V539.913C-683.277,536.4-685.23,532.88-687.965,531.317Z" transform="translate(707.891 -460.992)" fill="#d1c6c6" opacity="0.97"/>
          <path id="Path_271" data-name="Path 271" d="M-679.865,535.917l-14.456-8.2c-2.735-1.563-5.079-.391-5.079,2.735v16.409a11.14,11.14,0,0,0,5.079,8.6l14.456,8.2c2.735,1.563,5.079.391,5.079-2.735V544.513C-675.177,541.387-677.13,537.48-679.865,535.917Z" transform="translate(731.437 -447.62)" fill="#d1c6c6" opacity="0.97"/>
          <path id="Path_272" data-name="Path 272" d="M-671.765,540.617l-14.456-8.2c-2.735-1.563-5.079-.391-5.079,2.735v16.409a11.139,11.139,0,0,0,5.079,8.6l14.456,8.2c2.735,1.563,5.079.391,5.079-2.735V549.213C-667.077,546.087-669.03,542.18-671.765,540.617Z" transform="translate(754.983 -433.957)" fill="#d1c6c6" opacity="0.97"/>
          <path id="Path_273" data-name="Path 273" d="M-688.065,540.417l-14.456-8.2c-2.735-1.563-5.079-.391-5.079,2.735v16.409a11.141,11.141,0,0,0,5.079,8.6l14.456,8.2c2.735,1.563,5.079.391,5.079-2.735V549.013A10.182,10.182,0,0,0-688.065,540.417Z" transform="translate(707.6 -434.538)" fill="#d1c6c6" opacity="0.97"/>
          <path id="Path_274" data-name="Path 274" d="M-679.965,545.117l-14.456-8.2c-2.735-1.563-5.079-.391-5.079,2.735v16.409a11.14,11.14,0,0,0,5.079,8.6l14.456,8.2c2.735,1.563,5.079.391,5.079-2.735v-16.41A9.708,9.708,0,0,0-679.965,545.117Z" transform="translate(731.146 -420.876)" fill="#d1c6c6" opacity="0.97"/>
          <path id="Path_275" data-name="Path 275" d="M-671.765,549.717l-14.456-8.2c-2.735-1.563-5.079-.391-5.079,2.735v16.409a11.139,11.139,0,0,0,5.079,8.6l14.456,8.2c2.735,1.563,5.079.391,5.079-2.735V558.313C-667.077,555.187-669.03,551.28-671.765,549.717Z" transform="translate(754.983 -407.503)" fill="#d1c6c6" opacity="0.97"/>
        </g>
        <path id="Path_276" data-name="Path 276" d="M-626.679,548.686v12.5l-5.861,1.954v-12.5l-73.06-42.2,5.86-2.344Z" transform="translate(713.414 -506.1)" fill="#b2a1a1" opacity="0.97"/>
        <path id="Path_277" data-name="Path 277" d="M-662.57,539.411V555.82c0,1.953-.781,3.126-1.953,3.517h-.391l-5.079,1.953a3.492,3.492,0,0,0,1.563-3.126V541.755a11.14,11.14,0,0,0-5.079-8.6l-14.456-8.2a9.945,9.945,0,0,0-2.735-.781l5.47-1.953c.781-.391,1.953,0,3.125.391l14.456,8.2A11.14,11.14,0,0,1-662.57,539.411Z" transform="translate(756.728 -459.708)" fill="#b2a1a1" opacity="0.97"/>
        <path id="Path_278" data-name="Path 278" d="M-670.67,534.711V551.12c0,1.954-.781,3.126-1.954,3.517h-.391l-5.079,1.953a3.492,3.492,0,0,0,1.563-3.125V537.055a11.14,11.14,0,0,0-5.079-8.6l-14.456-8.2a9.941,9.941,0,0,0-2.735-.781l5.47-1.953c.782-.391,1.954,0,3.126.391l14.456,8.2C-673.014,528.069-670.67,531.585-670.67,534.711Z" transform="translate(733.182 -473.371)" fill="#b2a1a1" opacity="0.97"/>
        <path id="Path_279" data-name="Path 279" d="M-670.77,543.911V560.32c0,1.953-.781,3.125-1.954,3.516h-.391l-5.079,1.953a3.492,3.492,0,0,0,1.563-3.125V546.255a11.14,11.14,0,0,0-5.079-8.6l-14.456-8.2a9.944,9.944,0,0,0-2.735-.781l5.47-1.954c.782-.391,1.954,0,3.125.391l14.456,8.2A10.183,10.183,0,0,1-670.77,543.911Z" transform="translate(732.891 -446.627)" fill="#b2a1a1" opacity="0.97"/>
        <path id="Path_280" data-name="Path 280" d="M-670.77,553.011V569.42c0,1.954-.781,3.125-1.954,3.516h-.391l-5.079,1.954a3.493,3.493,0,0,0,1.563-3.125V555.355a11.14,11.14,0,0,0-5.079-8.6l-14.456-8.2a9.944,9.944,0,0,0-2.735-.781l5.47-1.954c.782-.391,1.954,0,3.125.391l14.456,8.2A11.141,11.141,0,0,1-670.77,553.011Z" transform="translate(732.891 -420.174)" fill="#b2a1a1" opacity="0.97"/>
        <path id="Path_281" data-name="Path 281" d="M-678.87,548.311V564.72c0,1.954-.782,3.125-1.954,3.516h-.391l-5.079,1.954a3.493,3.493,0,0,0,1.563-3.125v-16.41a11.139,11.139,0,0,0-5.079-8.6l-14.456-8.2a9.942,9.942,0,0,0-2.735-.781l5.47-1.953c.781-.391,1.953,0,3.125.391l14.456,8.2A10.183,10.183,0,0,1-678.87,548.311Z" transform="translate(709.344 -433.837)" fill="#b2a1a1" opacity="0.97"/>
        <path id="Path_282" data-name="Path 282" d="M-678.87,539.211V555.62c0,1.954-.782,3.126-1.954,3.516h-.391l-5.079,1.953a3.492,3.492,0,0,0,1.563-3.125V541.555a11.14,11.14,0,0,0-5.079-8.6l-14.456-8.2a9.94,9.94,0,0,0-2.735-.781l5.47-1.954c.781-.391,1.953,0,3.125.391l14.456,8.2A10.183,10.183,0,0,1-678.87,539.211Z" transform="translate(709.344 -460.29)" fill="#b2a1a1" opacity="0.97"/>
        <path id="Path_283" data-name="Path 283" d="M-678.77,530.111V546.52c0,1.954-.781,3.125-1.954,3.516h-.391l-5.079,1.953a3.492,3.492,0,0,0,1.563-3.125V532.455a11.14,11.14,0,0,0-5.079-8.6l-14.456-8.2a9.942,9.942,0,0,0-2.735-.781l5.47-1.954c.781-.391,1.954,0,3.125.391l14.456,8.2A11.14,11.14,0,0,1-678.77,530.111Z" transform="translate(709.635 -486.743)" fill="#b2a1a1" opacity="0.97"/>
        <path id="Path_284" data-name="Path 284" d="M-662.67,548.511V564.92c0,1.954-.781,3.125-1.953,3.516h-.391l-5.079,1.954a3.492,3.492,0,0,0,1.563-3.125V550.855a11.14,11.14,0,0,0-5.079-8.6l-14.456-8.2a9.941,9.941,0,0,0-2.735-.781l5.47-1.954c.781-.391,1.953,0,3.125.391l14.456,8.2A10.708,10.708,0,0,1-662.67,548.511Z" transform="translate(756.437 -433.255)" fill="#b2a1a1" opacity="0.97"/>
        <path id="Path_285" data-name="Path 285" d="M-662.961,558v16.409c0,1.954-.781,3.125-1.953,3.516h-.391l-5.079,1.953a3.492,3.492,0,0,0,1.563-3.125V560.346a11.14,11.14,0,0,0-5.079-8.6l-14.065-8.6a4.213,4.213,0,0,0-2.735-.781l5.47-1.954c.781-.391,1.954,0,3.125.391l14.456,8.2C-665.3,550.969-662.961,554.876-662.961,558Z" transform="translate(756.728 -406.802)" fill="#b2a1a1" opacity="0.97"/>
      </g>
      <g id="Group_40" data-name="Group 40" transform="translate(146.902)">
        <path id="Path_286" data-name="Path 286" d="M-635.454,468.236l-3.516-1.954h0c-1.563-.781-3.516-.781-5.861.781L-793.3,552.626c-4.3,2.735-8.2,8.2-8.2,12.5v80.093a5.04,5.04,0,0,0,1.954,4.3h0l1.953,1.172-.391-.782a10.186,10.186,0,0,0,4.3-1.172l148.465-85.563c4.3-2.735,8.2-8.2,8.2-12.5V470.189a2.928,2.928,0,0,0-.391-1.953h1.953Z" transform="translate(801.5 -465.769)" fill="#163fa1"/>
        <path id="Path_287" data-name="Path 287" d="M-636.216,551.111c0,4.3-3.517,10.158-8.2,12.5L-792.5,649.176c-4.3,2.735-8.2,1.172-8.2-3.517V565.566c0-4.3,3.516-10.158,8.2-12.5L-644.03,467.5c4.3-2.735,8.2-1.172,8.2,3.516l-.391,80.093Z" transform="translate(803.826 -464.644)" fill="url(#linear-gradient-10)"/>
        <path id="Path_288" data-name="Path 288" d="M-747.34,493.218c0,6.251-5.079,14.065-11.33,17.581S-770,512.362-770,506.111s5.079-14.065,11.331-17.581S-747.34,487.357-747.34,493.218Z" transform="translate(893.07 -404.407)" fill="#fcf586" opacity="0.5"/>
        <path id="Path_289" data-name="Path 289" d="M-743.739,491.28c0,6.251-5.079,14.065-11.33,17.581s-11.33,1.563-11.33-4.688,5.079-14.065,11.33-17.581S-743.739,485.029-743.739,491.28Z" transform="translate(903.534 -410.283)" fill="#ed1c24"/>
        <g id="Group_38" data-name="Group 38" transform="translate(12.112 95.306)" opacity="0.8">
          <path id="Path_290" data-name="Path 290" d="M-790.921,497.651c1.954-1.172,3.907-1.563,5.079-1.172h.391V491.4L-796,497.26v5.079h.391C-794.437,500.386-792.874,498.433-790.921,497.651Z" transform="translate(805.376 -486.565)" fill="url(#linear-gradient-11)"/>
          <path id="Path_291" data-name="Path 291" d="M-798.3,498.961v3.516l7.814-4.3V493.1l-6.251,3.516A3.212,3.212,0,0,0-798.3,498.961Z" transform="translate(798.69 -481.623)" fill="url(#linear-gradient-12)"/>
          <path id="Path_292" data-name="Path 292" d="M-798.009,504.568l7.423-4.3a2.984,2.984,0,0,1-.782-1.954,9.186,9.186,0,0,1,.782-3.125V494.8l-7.814,4.3v5.47Z" transform="translate(798.4 -476.682)" fill="url(#linear-gradient-13)"/>
          <path id="Path_293" data-name="Path 293" d="M-798.3,504.8c0,.781.781,1.172,1.563.781l6.251-3.516V496.6l-7.814,4.3Z" transform="translate(798.69 -471.449)" fill="url(#linear-gradient-14)"/>
          <path id="Path_294" data-name="Path 294" d="M-796,501.051v5.079l10.939-6.251V494.8a13.8,13.8,0,0,1-5.47,5.079C-792.874,501.051-794.828,501.442-796,501.051Z" transform="translate(805.377 -476.682)" fill="url(#linear-gradient-15)"/>
          <path id="Path_295" data-name="Path 295" d="M-786.749,490.309-793,494.216v5.079l7.814-4.3v-3.516C-785.186,490.309-785.968,489.918-786.749,490.309Z" transform="translate(814.098 -490.162)" fill="url(#linear-gradient-16)"/>
          <path id="Path_296" data-name="Path 296" d="M-792.709,496.679a3.3,3.3,0,0,1,.781,2.344,7.241,7.241,0,0,1-.781,2.735l7.423-4.3V491.6l-7.814,4.3.391.781Z" transform="translate(813.807 -485.984)" fill="url(#linear-gradient-17)"/>
          <path id="Path_297" data-name="Path 297" d="M-793,503.558l6.251-3.516a3.213,3.213,0,0,0,1.563-2.344v-4.3L-793,497.7Z" transform="translate(814.098 -480.751)" fill="url(#linear-gradient-18)"/>
          <path id="Path_298" data-name="Path 298" d="M-785.36,493.291a2.35,2.35,0,0,0-1.563-.391,6.235,6.235,0,0,0-3.126,1.172c-1.172.781-1.953,1.563-3.125,2.344a8.182,8.182,0,0,0-1.563,2.344c-.391.391-.391.781-.781,1.172a7.247,7.247,0,0,0-.781,2.735,2.984,2.984,0,0,0,.781,1.954h0a1.435,1.435,0,0,0,1.172.391,5.591,5.591,0,0,0,3.907-1.172,11.452,11.452,0,0,0,3.907-3.516c.391-.781.782-1.172,1.172-1.953h0v-.391a7.246,7.246,0,0,0,.781-2.735,2.985,2.985,0,0,0-.781-1.954C-784.579,493.682-784.97,493.682-785.36,493.291Z" transform="translate(804.504 -482.205)" fill="url(#linear-gradient-19)"/>
        </g>
        <g id="Group_39" data-name="Group 39" transform="translate(121.507 13.797)" opacity="0.8">
          <path id="Path_300" data-name="Path 300" d="M-770.4,476.626a35.975,35.975,0,0,0,3.125-1.954,9,9,0,0,1,3.516-1.172c.782,0,1.172.781,1.172,1.563a5.333,5.333,0,0,1-2.344,3.907h0c1.172-.391,2.735-.391,2.735,1.563a4.436,4.436,0,0,1-1.172,3.125,14.235,14.235,0,0,1-4.3,3.907,5.192,5.192,0,0,1-2.735,1.172S-770.4,476.626-770.4,476.626Zm1.954,4.3,1.563-.781c1.954-1.172,2.735-2.344,2.735-3.907s-1.172-1.563-2.735-.391c-.781.391-1.172.781-1.563.781Zm0,6.251c.391,0,.781-.391,1.563-.781,1.563-1.172,3.126-2.735,3.126-4.3,0-1.953-1.563-1.563-3.516-.391l-1.563.781.391,4.688Z" transform="translate(770.4 -457.091)" fill="#fff"/>
          <path id="Path_301" data-name="Path 301" d="M-762.33,481.779v-1.172h0a6.949,6.949,0,0,1-2.735,3.126c-1.953,1.172-2.735.391-2.735-1.172,0-2.344,1.954-4.688,5.47-6.642h0c0-.781-.391-1.953-1.953-.781a5.742,5.742,0,0,0-2.344,1.954l-.391-.781a22.337,22.337,0,0,1,3.125-2.735c2.735-1.563,3.516,0,3.516,1.954V481Zm-.391-4.3c-1.954,1.172-3.907,2.735-3.907,4.3,0,1.172.782,1.172,1.563.781a7.321,7.321,0,0,0,2.344-2.735v-2.344Z" transform="translate(777.958 -458.728)" fill="#fff"/>
          <path id="Path_302" data-name="Path 302" d="M-765.4,477.38v-2.344l1.563-1.172v1.563h0a6.674,6.674,0,0,1,3.125-3.516c1.172-.781,3.126-1.172,3.126,1.954v5.47l-1.563.781v-5.47c0-1.563-.391-2.344-1.954-1.563a6.077,6.077,0,0,0-2.344,3.126v6.251l-1.563.781v-5.86h-.391Z" transform="translate(784.935 -463.314)" fill="#fff"/>
          <path id="Path_303" data-name="Path 303" d="M-761.037,477.9h0a2.963,2.963,0,0,0,.782-1.563l2.735-4.688,1.953-1.172-3.516,5.86,3.907,3.126-1.954,1.172-3.125-2.735-.782,1.563v3.516l-1.563.781V470.081l1.563-.781Z" transform="translate(793.074 -469.3)" fill="#fff"/>
        </g>
        <path id="Path_304" data-name="Path 304" d="M-791.367,503.757c0,3.125-1.172,5.86-3.516,7.033-1.954,1.172-3.517.391-3.517-3.125a8.306,8.306,0,0,1,3.517-7.033C-792.539,499.46-791.367,500.632-791.367,503.757Zm-5.86,3.125c0,2.344.781,3.516,1.953,2.735,1.563-.781,1.953-2.735,1.953-5.079s-.781-3.516-1.953-2.735A7.7,7.7,0,0,0-797.228,506.883Z" transform="translate(810.512 -365.719)" fill="#fff" opacity="0.8"/>
        <path id="Path_305" data-name="Path 305" d="M-789.267,502.557c0,3.125-1.172,5.86-3.516,7.033-1.953,1.172-3.516,0-3.516-3.125a8.306,8.306,0,0,1,3.516-7.033C-790.83,498.26-789.267,499.432-789.267,502.557Zm-5.86,3.126c0,2.344.781,3.516,1.954,2.735,1.563-.781,1.954-2.735,1.954-5.079s-.782-3.516-1.954-2.735S-795.128,503.339-795.128,505.683Z" transform="translate(816.616 -369.207)" fill="#fff" opacity="0.8"/>
        <path id="Path_306" data-name="Path 306" d="M-787.268,501.357c0,3.125-1.172,5.86-3.516,7.033-1.954,1.172-3.516,0-3.516-3.126a8.305,8.305,0,0,1,3.516-7.032C-788.439,497.06-787.268,498.232-787.268,501.357Zm-5.47,3.125c0,2.344.782,3.516,1.954,2.735,1.563-.781,1.954-2.735,1.954-5.079s-.782-3.516-1.954-2.735S-792.737,502.139-792.737,504.483Z" transform="translate(822.43 -372.695)" fill="#fff" opacity="0.8"/>
        <path id="Path_307" data-name="Path 307" d="M-785.167,500.157c0,3.126-1.172,5.86-3.517,7.033-1.954,1.172-3.516.391-3.516-3.125a8.305,8.305,0,0,1,3.516-7.033C-786.339,495.86-785.167,497.032-785.167,500.157Zm-5.47,3.126c0,2.344.782,3.516,1.954,2.735,1.563-.781,1.953-2.735,1.953-5.079s-.781-3.516-1.953-2.735S-790.637,500.939-790.637,503.283Z" transform="translate(828.535 -376.184)" fill="#fff" opacity="0.8"/>
        <path id="Path_308" data-name="Path 308" d="M-781.367,497.957c0,3.126-1.172,5.86-3.516,7.032-1.954,1.172-3.516,0-3.516-3.125a8.305,8.305,0,0,1,3.516-7.032C-782.539,493.66-781.367,494.832-781.367,497.957Zm-5.47,3.126c0,2.344.782,3.516,1.954,2.735,1.563-.782,1.954-2.735,1.954-5.079s-.782-3.516-1.954-2.735S-786.837,498.739-786.837,501.083Z" transform="translate(839.581 -382.579)" fill="#fff" opacity="0.8"/>
        <path id="Path_309" data-name="Path 309" d="M-779.267,496.757c0,3.126-1.172,5.861-3.517,7.033-1.954,1.172-3.516.391-3.516-3.125a8.306,8.306,0,0,1,3.516-7.033C-780.439,492.46-779.267,493.632-779.267,496.757Zm-5.861,3.126c0,2.344.782,3.516,1.954,2.735,1.563-.782,1.953-2.735,1.953-5.079s-.782-3.516-1.953-2.735A7.7,7.7,0,0,0-785.128,499.883Z" transform="translate(845.686 -386.067)" fill="#fff" opacity="0.8"/>
        <path id="Path_310" data-name="Path 310" d="M-777.267,495.557c0,3.125-1.172,5.86-3.517,7.032-1.953,1.172-3.516.391-3.516-3.125a8.306,8.306,0,0,1,3.516-7.033C-778.439,491.259-777.267,492.432-777.267,495.557Zm-5.47,3.125c0,2.344.781,3.516,1.953,2.735,1.563-.781,1.954-2.735,1.954-5.079s-.781-3.516-1.954-2.735S-782.737,496.339-782.737,498.683Z" transform="translate(851.5 -389.556)" fill="#fff" opacity="0.8"/>
        <path id="Path_311" data-name="Path 311" d="M-775.167,494.357c0,3.125-1.172,5.861-3.517,7.033-1.953,1.172-3.516,0-3.516-3.125a8.307,8.307,0,0,1,3.516-7.033C-776.339,490.06-775.167,491.232-775.167,494.357Zm-5.47,3.125c0,2.344.781,3.516,1.953,2.735,1.563-.782,1.954-2.735,1.954-5.079s-.781-3.516-1.954-2.735S-780.637,495.139-780.637,497.483Z" transform="translate(857.604 -393.044)" fill="#fff" opacity="0.8"/>
        <path id="Path_312" data-name="Path 312" d="M-771.367,492.157c0,3.125-1.172,5.86-3.517,7.033-1.954,1.172-3.516.391-3.516-3.126a8.305,8.305,0,0,1,3.516-7.032C-772.539,487.86-771.367,489.032-771.367,492.157Zm-5.47,3.516c0,2.344.782,3.516,1.954,2.735,1.563-.781,1.954-2.735,1.954-5.079s-.781-3.516-1.954-2.735C-776.056,490.985-776.837,492.939-776.837,495.674Z" transform="translate(868.651 -399.44)" fill="#fff" opacity="0.8"/>
        <path id="Path_313" data-name="Path 313" d="M-769.267,490.957c0,3.125-1.172,5.86-3.516,7.033-1.953,1.172-3.516,0-3.516-3.126a8.306,8.306,0,0,1,3.516-7.033C-770.439,486.66-769.267,487.832-769.267,490.957Zm-5.47,3.516c0,2.344.781,3.516,1.953,2.735,1.563-.782,1.954-2.735,1.954-5.079s-.781-3.516-1.954-2.735C-773.956,489.785-774.737,491.739-774.737,494.473Z" transform="translate(874.756 -402.928)" fill="#fff" opacity="0.8"/>
        <path id="Path_314" data-name="Path 314" d="M-767.167,489.757c0,3.125-1.172,5.86-3.516,7.033-1.953,1.172-3.516.391-3.516-3.126a8.306,8.306,0,0,1,3.516-7.032C-768.34,485.46-767.167,486.632-767.167,489.757Zm-5.86,3.516c0,2.344.781,3.516,1.953,2.735,1.563-.782,1.954-2.735,1.954-5.079s-.781-3.516-1.954-2.735C-771.856,488.585-773.028,490.539-773.028,493.274Z" transform="translate(880.86 -406.416)" fill="#fff" opacity="0.8"/>
        <path id="Path_315" data-name="Path 315" d="M-765.167,488.557c0,3.125-1.172,5.86-3.516,7.033-1.953,1.172-3.516.391-3.516-3.125a8.306,8.306,0,0,1,3.516-7.033C-766.34,484.26-765.167,485.432-765.167,488.557Zm-5.47,3.516c0,2.344.781,3.516,1.954,2.735,1.563-.781,1.953-2.735,1.953-5.079s-.781-3.516-1.953-2.735C-769.856,487.385-770.637,489.339-770.637,492.074Z" transform="translate(886.674 -409.905)" fill="#fff" opacity="0.8"/>
        <path id="Path_316" data-name="Path 316" d="M-761.367,486.235c0,3.125-1.172,5.86-3.517,7.033-1.953,1.172-3.516.391-3.516-3.125a8.306,8.306,0,0,1,3.516-7.033C-762.539,482.328-761.367,483.11-761.367,486.235Zm-5.47,3.516c0,2.344.781,3.516,1.953,2.735,1.563-.781,1.954-2.735,1.954-5.079s-.781-3.516-1.954-2.735C-766.056,485.063-766.837,487.017-766.837,489.752Z" transform="translate(897.721 -416.178)" fill="#fff" opacity="0.8"/>
        <path id="Path_317" data-name="Path 317" d="M-759.267,485.035c0,3.125-1.172,5.86-3.516,7.032-1.953,1.172-3.516.391-3.516-3.125a8.306,8.306,0,0,1,3.516-7.033C-760.439,481.128-759.267,481.91-759.267,485.035Zm-5.47,3.516c0,2.344.781,3.516,1.953,2.735,1.563-.781,1.953-2.735,1.953-5.079s-.781-3.516-1.953-2.735C-763.956,483.863-764.737,485.817-764.737,488.551Z" transform="translate(903.825 -419.666)" fill="#fff" opacity="0.8"/>
        <path id="Path_318" data-name="Path 318" d="M-757.167,483.835c0,3.125-1.172,5.861-3.516,7.032-1.953,1.172-3.516,0-3.516-3.126a8.306,8.306,0,0,1,3.516-7.032C-758.339,479.928-757.167,480.71-757.167,483.835Zm-5.47,3.516c0,2.344.781,3.516,1.954,2.735,1.563-.781,1.953-2.735,1.953-5.079s-.781-3.516-1.953-2.735C-761.856,482.663-762.637,484.617-762.637,487.352Z" transform="translate(909.93 -423.155)" fill="#fff" opacity="0.8"/>
        <path id="Path_319" data-name="Path 319" d="M-755.067,482.635c0,3.126-1.172,5.861-3.516,7.033-1.953,1.172-3.516,0-3.516-3.126a8.306,8.306,0,0,1,3.516-7.032C-756.63,478.728-755.067,479.51-755.067,482.635Zm-5.86,3.516c0,2.344.781,3.516,1.954,2.735,1.563-.781,1.953-2.735,1.953-5.079s-.781-3.516-1.953-2.735C-759.756,481.463-760.928,483.417-760.928,486.152Z" transform="translate(916.035 -426.643)" fill="#fff" opacity="0.8"/>
        <path id="Path_320" data-name="Path 320" d="M-778.53,499.186c0,2.735-1.172,4.688-2.735,5.47s-2.344,0-2.735-2.344c0-2.735,1.172-4.688,2.735-5.47C-779.312,495.67-778.53,496.842-778.53,499.186Zm-4.3,2.344c0,1.954.781,2.735,1.563,2.344,1.172-.782,1.563-2.344,1.563-4.3s-.391-2.735-1.563-2.344A6.248,6.248,0,0,0-782.828,501.53Z" transform="translate(852.372 -376.775)" fill="#fff"/>
        <path id="Path_321" data-name="Path 321" d="M-776.93,498.286c0,2.735-.781,4.688-2.735,5.47-1.563.781-2.344,0-2.735-2.344,0-2.735,1.172-4.688,2.735-5.47C-777.711,494.77-776.93,495.942-776.93,498.286Zm-4.3,2.344c0,1.954.781,2.735,1.563,2.344,1.172-.781,1.563-2.344,1.563-4.3s-.391-2.735-1.563-2.344A6.245,6.245,0,0,0-781.228,500.63Z" transform="translate(857.023 -379.392)" fill="#fff"/>
        <path id="Path_322" data-name="Path 322" d="M-780.9,505.44l3.516-10.549.782-.391-3.516,10.549Z" transform="translate(861.384 -382.247)" fill="#fff"/>
        <path id="Path_323" data-name="Path 323" d="M-774.33,496.837c0,2.735-1.172,4.688-2.735,5.47s-2.344,0-2.735-2.344c0-2.735,1.172-4.688,2.735-5.47C-775.112,493.32-774.33,494.1-774.33,496.837Zm-4.3,2.344c0,1.953.781,2.735,1.563,2.344,1.172-.781,1.563-2.344,1.563-4.3s-.391-2.735-1.563-2.344A6.247,6.247,0,0,0-778.628,499.181Z" transform="translate(864.581 -383.803)" fill="#fff"/>
        <path id="Path_324" data-name="Path 324" d="M-772.73,495.937c0,2.735-.781,4.688-2.735,5.47-1.563.781-2.344,0-2.735-2.344,0-2.735,1.172-4.688,2.735-5.47C-773.9,492.42-772.73,493.2-772.73,495.937Zm-4.3,2.344c0,1.954.782,2.735,1.563,2.344,1.172-.781,1.563-2.344,1.563-4.3s-.391-2.735-1.563-2.344A6.248,6.248,0,0,0-777.028,498.281Z" transform="translate(869.232 -386.419)" fill="#fff"/>
        <path id="Path_325" data-name="Path 325" d="M-769.488,506.87l-28.912,16.8V518.2l28.912-16.8Z" transform="translate(810.512 -362.189)" fill="#fff" opacity="0.8"/>
        <path id="Path_326" data-name="Path 326" d="M-694.865,499.17-798.4,558.946v-5.47L-694.865,493.7Z" transform="translate(810.512 -384.573)" fill="#fff" opacity="0.8"/>
      </g>
      <g id="Group_41" data-name="Group 41" transform="translate(176.204 138.747)">
        <path id="Path_327" data-name="Path 327" d="M-773.293,510.451c1.563.782,1.563,3.126,0,5.861L-784.233,533.5l10.939,4.688c1.563.782,1.563,3.125,0,5.86-1.563,2.344-4.3,3.907-5.86,3.126l-13.674-5.861A3.546,3.546,0,0,1-794,538.581a6.3,6.3,0,0,1,1.172-3.516l13.674-21.488C-777.591,511.233-774.856,509.67-773.293,510.451Z" transform="translate(794 -475.215)" fill="#58dfec" opacity="0.6"/>
        <path id="Path_328" data-name="Path 328" d="M-765.593,505.951c1.563.781,1.563,3.125,0,5.86L-776.533,529l10.939,4.688c1.563.782,1.563,3.126,0,5.861-1.563,2.344-4.3,3.907-5.86,3.125l-13.675-6.251a2.362,2.362,0,0,1-1.172-2.344,6.3,6.3,0,0,1,1.172-3.517l13.675-21.488C-769.891,506.733-767.156,505.17-765.593,505.951Z" transform="translate(816.384 -488.297)" fill="#58dfec" opacity="0.4"/>
        <path id="Path_329" data-name="Path 329" d="M-757.893,501.355c1.563.781,1.563,3.125,0,5.86l-10.939,17.191,10.939,4.688c1.563.781,1.563,3.125,0,5.86-1.563,2.344-4.3,3.907-5.86,3.126l-13.674-5.861a2.362,2.362,0,0,1-1.172-2.344,6.3,6.3,0,0,1,1.172-3.516l13.674-21.488C-761.8,502.136-759.456,500.964-757.893,501.355Z" transform="translate(838.768 -501.281)" fill="#58dfec" opacity="0.2"/>
      </g>
    </g>
  </g>
</svg>
