<svg xmlns="http://www.w3.org/2000/svg" width="650" height="400.997" viewBox="0 0 650 400.997">
  <g id="undraw_texting_k35o" transform="translate(0 -0.011)">
    <path id="Path_778" data-name="Path 778" d="M19,492.569H647.176s55.07-71.287-9.75-144.564c-24.053-27.174-25.882-60.776-18.677-92.3C638.226,170.5,560.278,95.1,475.706,117.229c-1.611.425-3.239.856-4.878,1.3-127.476,34.765-231.843-.173-272.012-17.469a115.522,115.522,0,0,0-50.791-9.386c-45.08,2.014-113.4,19.377-49.941,115.018C187.545,341.527,19,492.569,19,492.569Z" transform="translate(-19 -91.56)" fill="#6c63ff" opacity="0.1"/>
    <ellipse id="Ellipse_116" data-name="Ellipse 116" cx="12.586" cy="16.474" rx="12.586" ry="16.474" transform="translate(138.725 356.32)" fill="#3f3d56"/>
    <ellipse id="Ellipse_117" data-name="Ellipse 117" cx="12.586" cy="16.474" rx="12.586" ry="16.474" transform="translate(138.725 336.183)" fill="#3f3d56"/>
    <ellipse id="Ellipse_118" data-name="Ellipse 118" cx="12.586" cy="16.474" rx="12.586" ry="16.474" transform="translate(138.725 316.045)" fill="#3f3d56"/>
    <ellipse id="Ellipse_119" data-name="Ellipse 119" cx="12.586" cy="16.474" rx="12.586" ry="16.474" transform="translate(138.725 295.908)" fill="#3f3d56"/>
    <ellipse id="Ellipse_120" data-name="Ellipse 120" cx="12.586" cy="16.474" rx="12.586" ry="16.474" transform="translate(138.725 275.771)" fill="#3f3d56"/>
    <ellipse id="Ellipse_121" data-name="Ellipse 121" cx="12.586" cy="16.474" rx="12.586" ry="16.474" transform="translate(138.725 255.633)" fill="#3f3d56"/>
    <ellipse id="Ellipse_122" data-name="Ellipse 122" cx="12.586" cy="16.474" rx="12.586" ry="16.474" transform="translate(138.725 235.496)" fill="#3f3d56"/>
    <ellipse id="Ellipse_123" data-name="Ellipse 123" cx="6.992" cy="9.151" rx="6.992" ry="9.151" transform="translate(248.921 368.677)" fill="#3f3d56"/>
    <ellipse id="Ellipse_124" data-name="Ellipse 124" cx="6.992" cy="9.151" rx="6.992" ry="9.151" transform="translate(248.921 357.489)" fill="#3f3d56"/>
    <ellipse id="Ellipse_125" data-name="Ellipse 125" cx="6.992" cy="9.151" rx="6.992" ry="9.151" transform="translate(248.921 346.302)" fill="#3f3d56"/>
    <ellipse id="Ellipse_126" data-name="Ellipse 126" cx="6.992" cy="9.151" rx="6.992" ry="9.151" transform="translate(248.921 335.114)" fill="#3f3d56"/>
    <ellipse id="Ellipse_127" data-name="Ellipse 127" cx="6.992" cy="9.151" rx="6.992" ry="9.151" transform="translate(248.921 323.927)" fill="#3f3d56"/>
    <ellipse id="Ellipse_128" data-name="Ellipse 128" cx="6.992" cy="9.151" rx="6.992" ry="9.151" transform="translate(248.921 312.74)" fill="#3f3d56"/>
    <ellipse id="Ellipse_129" data-name="Ellipse 129" cx="6.992" cy="9.151" rx="6.992" ry="9.151" transform="translate(248.921 301.552)" fill="#3f3d56"/>
    <path id="Path_779" data-name="Path 779" d="M288.913,218.783a61.038,61.038,0,0,0,4.688-6.9l-33.065-5.432,35.766.263a60.412,60.412,0,0,0,1.152-47.765l-47.989,24.892L293.713,151.3a60.289,60.289,0,1,0-99.568,67.472,60.362,60.362,0,0,0-6.886,11.008l42.926,22.3-45.762-15.366a60.306,60.306,0,0,0,9.722,56.614,60.284,60.284,0,1,0,94.769,0A60.306,60.306,0,0,0,288.913,218.783Z" transform="translate(-90.487 -104.621)" fill="#6c63ff"/>
    <path id="Path_780" data-name="Path 780" d="M181.24,361.58a60.015,60.015,0,0,0,12.9,37.271,60.284,60.284,0,1,0,94.769,0C296.991,388.592,181.24,354.811,181.24,361.58Z" transform="translate(-90.487 -210.141)" opacity="0.1"/>
    <path id="Path_781" data-name="Path 781" d="M413.486,414.4a39.525,39.525,0,0,1-3.121-4.6l22.045-3.625-23.846.179a40.275,40.275,0,0,1-.766-31.845l31.991,16.613-29.5-21.7A40.191,40.191,0,1,1,476.667,414.4a40.062,40.062,0,0,1,4.581,7.328L452.631,436.6l30.514-10.231a40.191,40.191,0,0,1-6.478,37.747,40.191,40.191,0,1,1-63.209,0,40.213,40.213,0,0,1,0-49.7Z" transform="translate(-189.021 -205.161)" fill="#6c63ff"/>
    <path id="Path_782" data-name="Path 782" d="M485.278,509.54a40.034,40.034,0,0,1-8.6,24.853,40.191,40.191,0,1,1-63.209,0C408.107,527.569,485.278,505.065,485.278,509.54Z" transform="translate(-189.029 -275.471)" opacity="0.1"/>
    <path id="Path_783" data-name="Path 783" d="M19,770.664s67.416-65.447,90.753-43.43S231.623,755.108,240.7,753.81s62.23-3.888,92.05-.649,303.376-9.073,314.4,17.5Z" transform="translate(-19 -369.655)" fill="#3f3d56"/>
    <path id="Path_784" data-name="Path 784" d="M703.2,223.746H672.883A5.163,5.163,0,0,0,674,220.5a5.22,5.22,0,0,0-.38-1.941h13.984a5.185,5.185,0,1,0,0-10.371H604.019a5.2,5.2,0,0,0-5.185,5.185,5.091,5.091,0,0,0,.386,1.941H585.235a5.191,5.191,0,0,0,0,10.376h30.318a5.146,5.146,0,0,0-1.119,3.239,5.2,5.2,0,0,0,5.185,5.185H703.2a5.185,5.185,0,1,0,0-10.371Z" transform="translate(-266.286 -142.945)" fill="#6c63ff" opacity="0.1"/>
    <path id="Path_785" data-name="Path 785" d="M947.721,356.976H917.4a5.163,5.163,0,0,0,1.147-3.244,5.109,5.109,0,0,0-.38-1.941h13.984a5.185,5.185,0,0,0,0-10.371h-83.61a5.2,5.2,0,0,0-5.185,5.185,5.085,5.085,0,0,0,.38,1.941H829.755a5.191,5.191,0,0,0,0,10.376h30.318a5.146,5.146,0,0,0-1.119,3.239,5.2,5.2,0,0,0,5.185,5.185h83.582a5.185,5.185,0,1,0,0-10.371Z" transform="translate(-374.028 -201.65)" fill="#6c63ff" opacity="0.1"/>
    <path id="Path_786" data-name="Path 786" d="M499.084,305.68h-17.76a3.015,3.015,0,0,0,.671-1.9,3.094,3.094,0,0,0-.224-1.119h8.2a3.037,3.037,0,1,0,0-6.075H440.953a3.049,3.049,0,0,0-3.037,3.037,2.988,2.988,0,0,0,.229,1.119h-8.178a3.037,3.037,0,1,0,0,6.075h17.76a3.015,3.015,0,0,0-.671,1.9,3.049,3.049,0,0,0,3.037,3.043h48.99a3.043,3.043,0,0,0,0-6.08Z" transform="translate(-198.745 -181.897)" fill="#6c63ff" opacity="0.1"/>
    <path id="Path_787" data-name="Path 787" d="M707.7,748.548a13.3,13.3,0,0,1-.973,3.356,24.055,24.055,0,0,0,5.935,1.371.559.559,0,0,0,.38-.056c.151-.117.129-.352.106-.559a7.434,7.434,0,0,1,.615-3.222q1.678-4.671,3.312-9.353c-1.935-.878-5.941-.347-7.574,1.119C708,742.557,708.067,746.657,707.7,748.548Z" transform="translate(-322.032 -377.124)" fill="#a1616a"/>
    <path id="Path_788" data-name="Path 788" d="M758.011,757.157a1.074,1.074,0,0,0-.1.414c0,.5.66.671,1.158.716a31.7,31.7,0,0,1,7.059,1.471c.28-.828-.112-1.717-.123-2.584a9.759,9.759,0,0,1,1.152-3.407,15.62,15.62,0,0,0,.654-6.327c-1.913.129-6.478-.755-7.546,1.225-.593,1.119-.559,2.8-.828,4.027A31.138,31.138,0,0,1,758.011,757.157Z" transform="translate(-344.584 -380.515)" fill="#a1616a"/>
    <path id="Path_789" data-name="Path 789" d="M723.6,611.186l-5.034.3a1.443,1.443,0,0,0-.917.269,1.376,1.376,0,0,0-.341.878c-.671,5.034.509,10.175-.117,15.209-.252,1.98-.777,3.916-1.186,5.862-.688,3.25-1.063,6.556-1.438,9.856a22.481,22.481,0,0,0-.19,4.939c.145,1.387.559,2.741.61,4.134a14.378,14.378,0,0,1-.85,4.833,52.6,52.6,0,0,1-3.133,7.759,38.527,38.527,0,0,0-2.97,6.6c-1.04,3.7-.559,7.736-1.8,11.378a5.693,5.693,0,0,0-.559,2.746,3.14,3.14,0,0,0,2.59,2.288,9.2,9.2,0,0,0,3.63-.274c1.963-.42,4.05-.906,5.432-2.361a9.944,9.944,0,0,0,1.812-3.256c.912-2.237,1.818-4.509,2.651-6.791a25.788,25.788,0,0,1,1.287-3.161c.459-.873,1.029-1.678,1.516-2.551a25.916,25.916,0,0,0,1.947-4.7c3.591-11.02,4.688-22.934,10.113-33.171.257-.487.291-1.119.559-1.577a16.3,16.3,0,0,1,.75,5.152,108.3,108.3,0,0,1-.285,11.9c-.224,2.886-.559,5.767-.626,8.665,0,1.32,0,2.646.028,3.972v1.08c.045,1.885.089,3.77.274,5.644.789,7.742-1.65,15.271-.772,23a1.337,1.337,0,0,0,.257.761c.375.4,1.041.185,1.55-.034a16.649,16.649,0,0,1,5.292-1.32,3.569,3.569,0,0,0,1.605-.358,3.282,3.282,0,0,0,1.18-2.456q1.829-11.294,3.653-22.588a54.016,54.016,0,0,0,.694-5.443c.14-2.372-.034-4.755.2-7.115.319-3.356,1.678-6.545,2.7-9.733.526-1.678,1.057-3.328,1.538-5.006s.923-3.418,1.315-5.141a24.846,24.846,0,0,0,.733-9.129,10.159,10.159,0,0,0-4.76-7.5c-1.975-1.08-4.29-1.242-6.522-1.488-6.371-.7-12.72-2.237-19.1-1.678C725.8,611.678,724.745,611.118,723.6,611.186Z" transform="translate(-321.554 -320.513)" fill="#3f3d56"/>
    <path id="Path_790" data-name="Path 790" d="M703.951,778.921a7.172,7.172,0,0,0,.794-1.678l2.064-5.594a48.605,48.605,0,0,0,1.678-5.107,23.927,23.927,0,0,0,.682-6.332,23.575,23.575,0,0,1-6.215-.873,9.6,9.6,0,0,0-2.36-.5,4.106,4.106,0,0,0-3.983,4.346,6.262,6.262,0,0,1,.089,1.018,3.184,3.184,0,0,1-.291.979l-2.2,5.37a11.787,11.787,0,0,0-1.119,4.139C692.932,779.716,700.78,783.492,703.951,778.921Z" transform="translate(-316.02 -385.576)" fill="#3f3d56"/>
    <path id="Path_791" data-name="Path 791" d="M750.444,780.595a9.6,9.6,0,0,0,0,2.534,5.643,5.643,0,0,0,5.124,4.329,7.344,7.344,0,0,0,6.215-3.06,6.6,6.6,0,0,0,1.035-1.986,10.307,10.307,0,0,0,.347-2.109l.889-9.414c.129-1.32.666-3.228,0-4.475-.559-1.057-1.919-1.4-2.965-1.8a11.662,11.662,0,0,0-5.493-.822c-3.261.274-3.228,3.6-3.72,6.259Q750.914,775.3,750.444,780.595Z" transform="translate(-341.257 -387.736)" fill="#3f3d56"/>
    <path id="Path_792" data-name="Path 792" d="M737.6,447.7c-1.5,2.109-3.7,3.658-5.174,5.79a10.879,10.879,0,0,0-1.907,6.629,12.418,12.418,0,0,1,0,3.614,6.427,6.427,0,0,1-1.443,2.394,20.1,20.1,0,0,1-9.19,6.108c-.431.134-.968.425-.861.861a.89.89,0,0,0,.4.453l7.272,5.208a92.434,92.434,0,0,0,13.279,8.441,47.178,47.178,0,0,0,27.13,4.268,14.147,14.147,0,0,1-2.154-6.153c-.28-2.629.19-5.28.14-7.926a20.484,20.484,0,0,0-1.678-7.831c-.627-1.438-1.421-2.8-1.9-4.29a22.193,22.193,0,0,1-.805-5.594l-.375-6.259a12.63,12.63,0,0,0-.52-3.429,8.5,8.5,0,0,0-1.331-2.361c-2.663-3.479-6.713-4.967-10.953-5.331-1.852-.157-4.117-.308-5.823.5C739.655,443.791,738.827,445.989,737.6,447.7Z" transform="translate(-327.441 -246.042)" fill="#3f3d56"/>
    <path id="Path_793" data-name="Path 793" d="M743.1,490.249a4.156,4.156,0,0,1-2.623,2.439,12.372,12.372,0,0,1-3.658.559l-2.668.123a1.164,1.164,0,0,0-.822.246.962.962,0,0,0-.235.6c-.168,1.421.66,2.747,1.488,3.916,2.651,3.714,5.829,7.244,9.974,9.14a16.451,16.451,0,0,0,18.963-3.826,1.678,1.678,0,0,0,.526-.934,1.572,1.572,0,0,0-.806-1.309c-.884-.654-1.924-1.08-2.8-1.728a8.391,8.391,0,0,1-3.037-4.592,13.817,13.817,0,0,1-.252-5.566c-3.317-.945-6.931-.2-10.253-1.119-.777-.213-2.237-1.029-3.054-.559S743.357,489.455,743.1,490.249Z" transform="translate(-333.639 -266.014)" fill="#a1616a"/>
    <path id="Path_794" data-name="Path 794" d="M743.1,490.249a4.156,4.156,0,0,1-2.623,2.439,12.372,12.372,0,0,1-3.658.559l-2.668.123a1.164,1.164,0,0,0-.822.246.962.962,0,0,0-.235.6c-.168,1.421.66,2.747,1.488,3.916,2.651,3.714,5.829,7.244,9.974,9.14a16.451,16.451,0,0,0,18.963-3.826,1.678,1.678,0,0,0,.526-.934,1.572,1.572,0,0,0-.806-1.309c-.884-.654-1.924-1.08-2.8-1.728a8.391,8.391,0,0,1-3.037-4.592,13.817,13.817,0,0,1-.252-5.566c-3.317-.945-6.931-.2-10.253-1.119-.777-.213-2.237-1.029-3.054-.559S743.357,489.455,743.1,490.249Z" transform="translate(-333.639 -266.014)" opacity="0.1"/>
    <circle id="Ellipse_130" data-name="Ellipse 130" cx="11.171" cy="11.171" r="11.171" transform="translate(406.72 207.432)" fill="#a1616a"/>
    <path id="Path_795" data-name="Path 795" d="M756.808,499.752a36.651,36.651,0,0,1-6.41,2.081,12.34,12.34,0,0,1-6.657-.364,23.176,23.176,0,0,1-4.123-2.349,17.606,17.606,0,0,0-7.585-3.065,5.11,5.11,0,0,0-3.692.794,5.034,5.034,0,0,0-1.628,3.356c-.369,2.663.263,5.348.828,7.977,2.142,9.985,3.356,20.428.957,30.363-1.259,5.275.1,10.762.285,16.183a19.367,19.367,0,0,0,.733,5.51A6.654,6.654,0,0,0,733,564.37a10.9,10.9,0,0,0,5.124.324,12.12,12.12,0,0,1,6.058.671c1.32.615,2.556,1.678,4,1.549.738-.067,1.41-.448,2.142-.559,1.471-.246,2.881.559,4.218,1.219a26.1,26.1,0,0,0,10.628,2.691c1.885-4.436.912-9.425,1.119-14.242.084-1.8.352-3.591.459-5.392a60.306,60.306,0,0,0-.084-6.517l-.682-14.656c-.2-3.988,1.84-7.893,1.678-11.875a35.946,35.946,0,0,0-.766-5.515c-.123-.615-.252-1.225-.425-1.824-1.231-4.2-4.771-7.272-8.156-10.03a1.639,1.639,0,0,0-1.5-.464Z" transform="translate(-330.789 -269.766)" fill="#6c63ff"/>
    <path id="Path_796" data-name="Path 796" d="M727.965,563.921c.045,3.916-1.365,7.7-2.747,11.378a4.846,4.846,0,0,1-2.031,2.881,4.214,4.214,0,0,1-3.356-.229,22.589,22.589,0,0,1-2.87-1.326c-.973-.559-2.07-1.158-3.116-.8-1.281.436-1.678,2.031-1.852,3.356a35.5,35.5,0,0,1-5.23-.319.985.985,0,0,1-.459-.146.967.967,0,0,1-.291-.626c-.179-.934-.364-1.863-.559-2.8-.056-.291-.268-.677-.559-.559.235-3.625-.52-7.233-.794-10.852a28.787,28.787,0,0,1,.056-5.51,53.4,53.4,0,0,1,1.052-5.443c.861-3.837,2.517-7.736,2.612-11.629a13.143,13.143,0,0,0-.151-2.338q-1.186-7.322-2.36-14.656c-.2-1.219-.4-2.45-.682-3.653-.213-.9-.414-1.762-.643-2.623-.14-.526-.291-1.046-.464-1.572l4.475-12.306a22.6,22.6,0,0,1,1.231-2.948,11.534,11.534,0,0,1,5.006-4.883,4.514,4.514,0,0,0,1.678-1.119c.218-.285.352-.632.559-.929.789-1.119,2.405-1.208,3.753-.962a5.115,5.115,0,0,1,3.267,1.678,6.583,6.583,0,0,1,.716,1.454q1.343,3.256,2.7,6.505a2.466,2.466,0,0,1,1.119,2.237c0,1.611-.229,3.216-.162,4.827a1.217,1.217,0,0,0,.034.347c.2,1.449,1.225,2.668,1.572,4.123,1.331,5.566-.61,11.294-1.751,16.921-.045.224-.089.442-.129.666a50.833,50.833,0,0,0-.895,9.918,28.345,28.345,0,0,0,.291,4.128c.185,1.2.481,2.389.615,3.6a33.335,33.335,0,0,1,0,5.068C727.439,557.813,727.931,560.861,727.965,563.921Z" transform="translate(-320.618 -268.528)" fill="#454b69"/>
    <path id="Path_797" data-name="Path 797" d="M752.341,531.038a4.816,4.816,0,0,1,.638,2.237,1.488,1.488,0,0,1-.336.929,1.4,1.4,0,0,1-1.281.352,3.518,3.518,0,0,1-1.247-.559,2.891,2.891,0,0,1-1.192-1.2,3.115,3.115,0,0,1-.179-.75l-.3-1.891a2.411,2.411,0,0,1,0-1.119c.252-.778,1.382-2.154,2.237-1.482S751.922,530.143,752.341,531.038Z" transform="translate(-340.385 -283.589)" fill="#454b69"/>
    <path id="Path_798" data-name="Path 798" d="M797.189,530.024c-.33-.861-1.314-1.225-2.12-1.678a9.911,9.911,0,0,1-3.725-4.268c-.884-1.7-1.544-3.513-2.5-5.169a2.013,2.013,0,0,0-.638-.761.772.772,0,0,0-.929.056,1.007,1.007,0,0,0-.207.531,12,12,0,0,0,.341,3.72,14.5,14.5,0,0,1-3.546,11.747c-1.158,1.281-2.6,2.405-3.216,4.016a9.458,9.458,0,0,0-.336,3.916l.386,7.138a67.461,67.461,0,0,1-2.433,21.53c-1.119,4.027-3.009,8.094-2.237,12.2.291,1.572.973,3.133.694,4.71a1.605,1.605,0,0,0,0,.917,1.337,1.337,0,0,0,.559.52l3.72,2.428,3.356-9.94a18.379,18.379,0,0,0,.744-2.6,19.886,19.886,0,0,0,.218-3.054,128.962,128.962,0,0,1,3.451-26.537,20.367,20.367,0,0,1,1.119-3.669,22.482,22.482,0,0,1,4.2-5.745c.039-.822-.067-1.645,0-2.472a15.826,15.826,0,0,1,.61-4.262A5.125,5.125,0,0,1,797.189,530.024Z" transform="translate(-352.487 -279.464)" fill="#454b69"/>
    <path id="Path_799" data-name="Path 799" d="M795.258,556.08a50.5,50.5,0,0,0,.106,7.065l.559,9.364a13.463,13.463,0,0,0,.559,3.7c.448,1.275,1.275,2.394,1.706,3.681.146.436.246.895.392,1.337a15.7,15.7,0,0,0,.671,1.566,28.983,28.983,0,0,1,2.031,10.941c.106,3.731-.084,7.473.3,11.187a6.751,6.751,0,0,1-2.97.146,4.157,4.157,0,0,0-1.119-.151,3.53,3.53,0,0,0-.94.268,9.683,9.683,0,0,1-8.128-.727,16.221,16.221,0,0,1-2.075-1.521,6.36,6.36,0,0,1-1.421-1.5,5.594,5.594,0,0,1-.643-2.719c-.129-3.8,1.119-7.49,1.963-11.187a103.976,103.976,0,0,0,1.678-10.846c.621-5.331.453-10.813,1.678-16.043a4.419,4.419,0,0,1,.9-2.075,4.474,4.474,0,0,1,1.443-.929C793.031,557.1,794.145,556.595,795.258,556.08Z" transform="translate(-356.2 -296.235)" fill="#454b69"/>
    <path id="Path_800" data-name="Path 800" d="M797.189,530.024c-.33-.861-1.314-1.225-2.12-1.678a9.911,9.911,0,0,1-3.725-4.268c-.884-1.7-1.544-3.513-2.5-5.169a2.013,2.013,0,0,0-.638-.761.772.772,0,0,0-.929.056,1.007,1.007,0,0,0-.207.531,12,12,0,0,0,.341,3.72,14.5,14.5,0,0,1-3.546,11.747c-1.158,1.281-2.6,2.405-3.216,4.016a9.458,9.458,0,0,0-.336,3.916l.386,7.138a67.461,67.461,0,0,1-2.433,21.53c-1.119,4.027-3.009,8.094-2.237,12.2.291,1.572.973,3.133.694,4.71a1.605,1.605,0,0,0,0,.917,1.337,1.337,0,0,0,.559.52l3.72,2.428,3.356-9.94a18.379,18.379,0,0,0,.744-2.6,19.886,19.886,0,0,0,.218-3.054,128.962,128.962,0,0,1,3.451-26.537,20.367,20.367,0,0,1,1.119-3.669,22.482,22.482,0,0,1,4.2-5.745c.039-.822-.067-1.645,0-2.472a15.826,15.826,0,0,1,.61-4.262A5.125,5.125,0,0,1,797.189,530.024Z" transform="translate(-352.487 -279.464)" opacity="0.1"/>
    <path id="Path_801" data-name="Path 801" d="M797.176,641.19a2,2,0,0,1-.727,1.052c-.375.213-.984.034-1.018-.4-.627-.084-1.119.654-1.723.7s-1.164-.559-1.756-.425c-.38.1-.738.5-1.085.324-.145-.073-.235-.229-.386-.285-.241-.078-.47.145-.716.2-.52.117-.9-.52-.917-1.052a3.607,3.607,0,0,0-.106-1.578.336.336,0,0,0-.162-.179c-.168-.078-.352.078-.464.229-.414.559-.531,1.337-.951,1.919s-1.421.856-1.8.252a1.426,1.426,0,0,1-.078-1.012c.252-1.432.811-2.97,2.1-3.641a5.7,5.7,0,0,1,3.692-.089q2.568.559,5.129,1.158c.453.106,1.538.162,1.734.688S797.355,640.742,797.176,641.19Z" transform="translate(-356.62 -331.868)" fill="#a1616a"/>
    <path id="Path_802" data-name="Path 802" d="M757.684,461.314c.559,3.015,2.282,5.672,3.664,8.419s2.484,5.868,1.734,8.844a30.772,30.772,0,0,1-1.119,3.015,28.484,28.484,0,0,0-1.152,5.359,28.168,28.168,0,0,0-.442,7.468,9.432,9.432,0,0,0,3.356,6.489l-.157-1.119a12.436,12.436,0,0,1,2.366,1.628,15.025,15.025,0,0,0,1.678-4.559l3.8,2.948c1.678,1.287,3.558,2.64,5.639,2.383l-1.678-3.865c-.464-1.074-.929-2.142-1.477-3.177a9.989,9.989,0,0,1-.906-1.935,8.729,8.729,0,0,1-.246-1.79,124.809,124.809,0,0,0-5.493-29.087,24.248,24.248,0,0,0-2.646-6.153,7.708,7.708,0,0,0-2.2-2.277,10.691,10.691,0,0,0-4.749-1.247,14.649,14.649,0,0,0-3.463-.078,10.627,10.627,0,0,0-3.356,1.152,17.9,17.9,0,0,0-7.742,7.68,15.216,15.216,0,0,0-1.751,7.77c.218,2.853,2.937,1.555,4.771.845C750.652,468.251,755.016,465.5,757.684,461.314Z" transform="translate(-337.276 -250.599)" fill="#3f3d56"/>
    <path id="Path_803" data-name="Path 803" d="M752.341,531.038a4.816,4.816,0,0,1,.638,2.237,1.488,1.488,0,0,1-.336.929,1.4,1.4,0,0,1-1.281.352,3.518,3.518,0,0,1-1.247-.559,2.891,2.891,0,0,1-1.192-1.2,3.115,3.115,0,0,1-.179-.75l-.3-1.891a2.411,2.411,0,0,1,0-1.119c.252-.778,1.382-2.154,2.237-1.482S751.922,530.143,752.341,531.038Z" transform="translate(-340.385 -283.589)" opacity="0.1"/>
    <path id="Path_804" data-name="Path 804" d="M741.058,407.39l-2.1,15.713,9.219-.559,3-15.153Z" transform="translate(-325.605 -179.502)" fill="#454b69"/>
    <circle id="Ellipse_131" data-name="Ellipse 131" cx="0.699" cy="0.699" r="0.699" transform="translate(419.289 231.865)" fill="#fff"/>
    <g id="Group_56" data-name="Group 56" transform="translate(404.025 207.991)" opacity="0.1">
      <path id="Path_805" data-name="Path 805" d="M763.3,481.476c.1-.274.179-.559.252-.828.744-2.981-.358-6.1-1.74-8.849s-3.082-5.4-3.658-8.419c-2.668,4.184-7.02,6.936-11.568,8.7-1.835.71-4.559,2-4.777-.845a11.453,11.453,0,0,1,0-1.907,13.25,13.25,0,0,0-.5,4.559c.218,2.853,2.937,1.555,4.771.845,4.553-1.762,8.9-4.514,11.568-8.7.559,3.015,2.282,5.672,3.664,8.391A15.412,15.412,0,0,1,763.3,481.476Z" transform="translate(-741.282 -463.38)"/>
      <path id="Path_806" data-name="Path 806" d="M786.829,521.44q-1.9-1.465-3.8-2.948a14.983,14.983,0,0,1-1.678,4.564,12.3,12.3,0,0,0-2.366-1.633l.157,1.119a9.521,9.521,0,0,1-3.356-6.489,27.7,27.7,0,0,1,.436-7.468c.039-.268.084-.559.123-.806-.263,1.119-.436,2.3-.61,3.457a28.182,28.182,0,0,0-.442,7.468,9.432,9.432,0,0,0,3.356,6.489l-.157-1.119a12.73,12.73,0,0,1,2.366,1.633,15.1,15.1,0,0,0,1.678-4.559q1.9,1.471,3.8,2.948c1.678,1.281,3.558,2.64,5.638,2.383l-1.208-2.8A11.211,11.211,0,0,1,786.829,521.44Z" transform="translate(-756.221 -482.944)"/>
    </g>
    <path id="Path_807" data-name="Path 807" d="M748.1,510.194a13.2,13.2,0,0,1,3.127-2.987.94.94,0,0,1,.643-.179c.179.039.33.173.515.207a1.023,1.023,0,0,0,.6-.145l2.584-1.242a2.741,2.741,0,0,1,1.236-.358.906.906,0,0,1,.9.778c0,.481-.475.805-.9,1.046a24.171,24.171,0,0,0-3.625,2.528c-.559.5-1.2,1.32-.761,1.958a1.678,1.678,0,0,0,1.421.475,11.406,11.406,0,0,0,2.8-.213c.738-.185,1.432-.515,2.176-.688a10.7,10.7,0,0,1,2.075-.207,1.678,1.678,0,0,1,1.169.252c.308.263.28.895-.117.973a1.837,1.837,0,0,1-.666,2.4c-.733.559-1.678.789-2.444,1.264a3.15,3.15,0,0,1,2.747-.1.56.56,0,0,1,.252.313c.05.263-.229.464-.475.559-3.669,1.712-8.016,1.119-11.859,2.389a12.615,12.615,0,0,0-4.408,2.545c.6-.559-3.088-4.475-2.769-5.594.257-.917,2.109-2.086,2.8-2.8Q746.665,511.867,748.1,510.194Z" transform="translate(-337.708 -273.944)" fill="#a1616a"/>
    <path id="Path_808" data-name="Path 808" d="M731.243,535.481a2.987,2.987,0,0,0,.2,1.5,5.472,5.472,0,0,1-.75,3.742,16.22,16.22,0,0,1-2.618,3.574,34.513,34.513,0,0,1-3.949,3.5,85.02,85.02,0,0,1-8.614,5.941,7.171,7.171,0,0,1-2.489,1.091,7.455,7.455,0,0,1-2.086-.034,12.047,12.047,0,0,1-2.735-.559,13.143,13.143,0,0,0-.151-2.338q-1.186-7.322-2.361-14.656c-.2-1.219-.4-2.45-.682-3.653-.213-.895-.414-1.762-.643-2.623v-.062c.559-1.41,2.2-2.3,2.361-3.8,2.366-.224,4.587-.487,6.959-.7a15.662,15.662,0,0,1-.453,6.623.867.867,0,0,0,.867-.531c.173-.319.229-.688.375-1.024.559-1.275,2.2-1.577,3.356-2.316,2.036-1.264,2.914-4.005,5.107-4.956a.8.8,0,0,1,.515-.089c.481.129.559.973,1.08.94a.738.738,0,0,0,.414-.235c.9-.811,2.014-1.482,2.9-2.288.123.241.241.481.358.722q1.868,3.781,3.731,7.568a5.383,5.383,0,0,0,2,2.551C733.554,534.479,731.6,534.345,731.243,535.481Z" transform="translate(-320.988 -281.447)" opacity="0.1"/>
    <path id="Path_809" data-name="Path 809" d="M704.486,524.991c-.157,1.5-1.807,2.4-2.36,3.809a6.824,6.824,0,0,0-.274,2.316,63.918,63.918,0,0,1-.839,6.561,13.306,13.306,0,0,0,.47,6.534,32.486,32.486,0,0,1,1.583,3.6,12.527,12.527,0,0,0,.638,2.551c.867,1.678,3.077,2.115,4.973,2.321a7.455,7.455,0,0,0,2.086.034,7.272,7.272,0,0,0,2.495-1.091,85.548,85.548,0,0,0,8.609-5.941,23.433,23.433,0,0,0,6.567-7.076,5.506,5.506,0,0,0,.755-3.742,2.869,2.869,0,0,1-.2-1.5c.352-1.119,2.3-1,2.73-2.114a5.3,5.3,0,0,1-1.991-2.545l-4.089-8.3c-.895.811-2.014,1.482-2.9,2.293a.772.772,0,0,1-.42.235c-.5.034-.6-.811-1.08-.94a.817.817,0,0,0-.509.084c-2.2.956-3.077,3.7-5.113,4.962-1.186.738-2.8,1.04-3.356,2.316-.145.33-.2.7-.375,1.024a.867.867,0,0,1-.867.559,15.594,15.594,0,0,0,.453-6.623C709.079,524.51,706.858,524.773,704.486,524.991Z" transform="translate(-319.43 -280.518)" fill="#454b69"/>
    <path id="Path_810" data-name="Path 810" d="M797.864,640.48c.151-.056.3-.117.453-.162a1.857,1.857,0,0,0,.5-2.014c-.2-.526-1.281-.559-1.734-.688q-2.562-.615-5.129-1.152a5.558,5.558,0,0,0-3.692.084c-.414.218-.755.945-1.035,1.315l.431.369c.464.386.94.766,1.432,1.119a.352.352,0,0,1,.369-.117.336.336,0,0,1,.162.179,1.121,1.121,0,0,1,.117.352A9.655,9.655,0,0,0,797.864,640.48Z" transform="translate(-357.503 -331.533)" fill="#454b69"/>
    <path id="Path_811" data-name="Path 811" d="M1048.231,457.545v47.793c0,1.421-2.663,2.579-5.957,2.579H916.113c-3.295,0-5.963-1.158-5.963-2.579V457.545c0-1.426,2.668-2.875,5.963-2.875H1042.28C1045.574,454.67,1048.231,456.119,1048.231,457.545Z" transform="translate(-411.665 -251.551)" fill="#3f3d56"/>
    <rect id="Rectangle_18" data-name="Rectangle 18" width="65.715" height="2.321" transform="translate(559.088 220.202)" fill="#6c63ff"/>
    <rect id="Rectangle_19" data-name="Rectangle 19" width="65.715" height="2.321" transform="translate(559.088 225.852)" fill="#6c63ff" opacity="0.5"/>
    <rect id="Rectangle_20" data-name="Rectangle 20" width="65.715" height="2.321" transform="translate(559.088 231.507)" fill="#6c63ff" opacity="0.5"/>
    <rect id="Rectangle_21" data-name="Rectangle 21" width="65.715" height="2.321" transform="translate(559.088 237.163)" fill="#6c63ff" opacity="0.5"/>
    <path id="Path_812" data-name="Path 812" d="M946.769,476.09a15.579,15.579,0,0,0-8.586,28.584v-2.64a3.546,3.546,0,0,1,3.116-3.507,6.153,6.153,0,0,0,10.841,0,3.552,3.552,0,0,1,3.121,3.507v2.707a15.584,15.584,0,0,0-8.491-28.651Zm6.852,19.019a.962.962,0,0,1-.207.268.9.9,0,0,1-.453.151,2.922,2.922,0,0,1-.313,0,6.181,6.181,0,0,1-12.11-1.756,6.1,6.1,0,0,1,.806-3.043.706.706,0,0,1-.067-.045,2.064,2.064,0,0,1,.2-2.858,4.238,4.238,0,0,1,1.281-.47A5.656,5.656,0,0,0,946,484.878a5.279,5.279,0,0,1-.034.94,1.37,1.37,0,0,1,1.958-.067,3.734,3.734,0,0,0,.559.626,1.555,1.555,0,0,0,.694.2l1.549.2a2.238,2.238,0,0,1,2.355,1.678,15.5,15.5,0,0,1,1.018,3.284,5.252,5.252,0,0,1-.481,3.379Z" transform="translate(-420.931 -260.989)" fill="#6c63ff" opacity="0.5"/>
    <path id="Path_813" data-name="Path 813" d="M1048.231,217.865v47.8c0,1.421-2.663,2.579-5.957,2.579H916.113c-3.295,0-5.963-1.158-5.963-2.579v-47.8c0-1.421,2.668-2.875,5.963-2.875H1042.28C1045.574,215,1048.231,216.444,1048.231,217.865Z" transform="translate(-411.665 -145.941)" fill="#3f3d56"/>
    <rect id="Rectangle_22" data-name="Rectangle 22" width="65.715" height="2.321" transform="translate(559.088 86.132)" fill="#6c63ff"/>
    <rect id="Rectangle_23" data-name="Rectangle 23" width="65.715" height="2.321" transform="translate(559.088 91.787)" fill="#6c63ff" opacity="0.5"/>
    <rect id="Rectangle_24" data-name="Rectangle 24" width="65.715" height="2.321" transform="translate(559.088 97.442)" fill="#6c63ff" opacity="0.5"/>
    <rect id="Rectangle_25" data-name="Rectangle 25" width="65.715" height="2.321" transform="translate(559.088 103.092)" fill="#6c63ff" opacity="0.5"/>
    <path id="Path_814" data-name="Path 814" d="M946.769,236.42A15.579,15.579,0,0,0,938.183,265v-2.64a3.541,3.541,0,0,1,3.116-3.507,6.153,6.153,0,0,0,10.841,0,3.547,3.547,0,0,1,3.121,3.507v2.7a15.579,15.579,0,0,0-8.491-28.645Zm6.852,19.019a.822.822,0,0,1-.207.268.845.845,0,0,1-.453.151,2.926,2.926,0,0,1-.313,0,6.181,6.181,0,0,1-12.11-1.751,6.086,6.086,0,0,1,.805-3.043l-.067-.045a2.064,2.064,0,0,1,.2-2.858,4.1,4.1,0,0,1,1.281-.47A5.661,5.661,0,0,0,946,245.208a5.319,5.319,0,0,1-.034.945,1.376,1.376,0,0,1,1.958-.073,3.523,3.523,0,0,0,.559.626,1.633,1.633,0,0,0,.694.2l1.549.2a3,3,0,0,1,1.768.638,2.925,2.925,0,0,1,.587,1.046,15.662,15.662,0,0,1,1.018,3.289,5.235,5.235,0,0,1-.481,3.362Z" transform="translate(-420.931 -155.384)" fill="#6c63ff" opacity="0.5"/>
    <path id="Path_815" data-name="Path 815" d="M936.214,337.205V385c0,1.421-2.668,2.573-5.963,2.573H804.067c-3.289,0-5.957-1.152-5.957-2.573v-47.8c0-1.426,2.668-2.875,5.957-2.875H930.234C933.529,334.33,936.214,335.779,936.214,337.205Z" transform="translate(-362.297 -198.526)" fill="#3f3d56"/>
    <rect id="Rectangle_26" data-name="Rectangle 26" width="65.715" height="2.321" transform="translate(496.41 152.887)" fill="#6c63ff"/>
    <path id="Path_816" data-name="Path 816" d="M834.726,355.75a15.584,15.584,0,0,0-8.592,28.584V383.3a3.541,3.541,0,0,1,3.116-3.507,6.187,6.187,0,0,0,10.846,0,3.541,3.541,0,0,1,3.116,3.507v1.119a15.579,15.579,0,0,0-8.486-28.668Zm6.108,19.757a6.153,6.153,0,1,1-12.306,0,6.774,6.774,0,0,1,3.546-9.056,2.058,2.058,0,0,1,1.734-3.177h.146a2.053,2.053,0,0,0-1.639,3.071h.062a1.977,1.977,0,0,1-.039-.408,2.014,2.014,0,0,1,.386-1.2,2.053,2.053,0,0,1,1.969-1.454h.145a2.047,2.047,0,0,0-1.572.917,2.059,2.059,0,0,1,3.194,1.723,1.53,1.53,0,0,1,0,.229,6.774,6.774,0,0,1,4.408,9.353Z" transform="translate(-371.565 -207.964)" fill="#6c63ff" opacity="0.5"/>
    <rect id="Rectangle_27" data-name="Rectangle 27" width="65.715" height="2.321" transform="translate(496.41 158.543)" fill="#6c63ff" opacity="0.5"/>
    <rect id="Rectangle_28" data-name="Rectangle 28" width="65.715" height="2.321" transform="translate(496.41 164.192)" fill="#6c63ff" opacity="0.5"/>
    <rect id="Rectangle_29" data-name="Rectangle 29" width="65.715" height="2.321" transform="translate(496.41 169.848)" fill="#6c63ff" opacity="0.5"/>
  </g>
</svg>
