<svg id="undraw_wallet_aym5" xmlns="http://www.w3.org/2000/svg" xmlns:xlink="http://www.w3.org/1999/xlink" width="683.714" height="442.045" viewBox="0 0 683.714 442.045">
  <defs>
    <linearGradient id="linear-gradient" x1="0.5" y1="1" x2="0.5" gradientUnits="objectBoundingBox">
      <stop offset="0" stop-color="gray" stop-opacity="0.251"/>
      <stop offset="0.54" stop-color="gray" stop-opacity="0.122"/>
      <stop offset="1" stop-color="gray" stop-opacity="0.102"/>
    </linearGradient>
  </defs>
  <rect id="Rectangle_14" data-name="Rectangle 14" width="683.714" height="4.996" transform="translate(0 437.048)" fill="#85848b"/>
  <path id="Path_683" data-name="Path 683" d="M864.438,652.223c0,3.843-22.4,15.048-49.013,15.048s-47.345-11.2-47.345-15.048,21.568-2.606,48.2-2.606S864.438,648.373,864.438,652.223Z" transform="translate(-322.759 -303.396)" fill="#504f60"/>
  <path id="Path_684" data-name="Path 684" d="M864.438,653.72c0,3.843-22.4,15.048-49.013,15.048s-47.345-11.2-47.345-15.048" transform="translate(-322.759 -304.893)" opacity="0.2"/>
  <path id="Path_685" data-name="Path 685" d="M503.617,540c4.319.554,8.8.905,12.937-.436.651-.2,1.368-.651,1.3-1.3a1.577,1.577,0,0,0-.293-.651,40.24,40.24,0,0,1-3.909-7.446.652.652,0,0,0-.241-.339.613.613,0,0,0-.417,0c-1.909.5-3.557,1.733-5.452,2.26a7.752,7.752,0,0,1-2.97.221c-.86-.1-2.032-.808-2.814-.717C502.2,534.432,503.284,537.09,503.617,540Z" transform="translate(-229.924 -261.691)" fill="#6c63ff"/>
  <path id="Path_686" data-name="Path 686" d="M627.462,526.484c2.847-1.954,5.8-4.006,7.478-7.022a1.219,1.219,0,0,0,.2-.606,1.252,1.252,0,0,0-.241-.586,24.208,24.208,0,0,0-6.078-6.56,17.726,17.726,0,0,0-3.387,3.127c-.716.756-2.7,1.954-2.716,3.107,0,.651.756,1.407,1.107,1.954.476.7.925,1.42,1.355,2.15C625.43,522.406,627.69,526.341,627.462,526.484Z" transform="translate(-272.088 -255.391)" fill="#6c63ff"/>
  <path id="Path_687" data-name="Path 687" d="M506.981,551.206a2.9,2.9,0,0,1-.521,1.889,2.56,2.56,0,0,1-1.094.651c-6.039,2.163-13.028-.534-19.054,1.6-1.238.436-2.41,1.068-3.654,1.485a19.883,19.883,0,0,1-4.56.808c-2.13.2-4.273.332-6.41.391a15.415,15.415,0,0,1-4.834-.423,5.8,5.8,0,0,1-3.706-2.938,2.82,2.82,0,0,1-.182-2.091,2.254,2.254,0,0,1,.4-.651,5.714,5.714,0,0,1,1.42-1.153L467,549.336a14.914,14.914,0,0,1,3.368-1.785c.879-.287,1.811-.41,2.7-.651,3.12-.912,5.5-3.387,7.719-5.765l3.023-3.225a3.043,3.043,0,0,1,1.049-.84,2.906,2.906,0,0,1,1.3-.124,17.418,17.418,0,0,1,8.24,2.762,10.678,10.678,0,0,0,2.032,1.2,7.257,7.257,0,0,0,5.68-.7c.775-.417.606-.651.932-1.394s1.12-1.218,1.811-.541a1.915,1.915,0,0,1,.43.821c.651,2.15.4,4.462.4,6.716a2.96,2.96,0,0,0,.13,1.042,5.9,5.9,0,0,0,.593.964,2.193,2.193,0,0,1,.124.248,6.625,6.625,0,0,1,.437,3.146Z" transform="translate(-216.358 -264.179)" fill="#514e7f"/>
  <path id="Path_688" data-name="Path 688" d="M506.981,557.156a2.9,2.9,0,0,1-.521,1.889,2.56,2.56,0,0,1-1.094.651c-6.039,2.163-13.028-.534-19.054,1.6-1.238.436-2.41,1.068-3.654,1.485a19.88,19.88,0,0,1-4.56.808c-2.13.2-4.273.332-6.41.391a15.413,15.413,0,0,1-4.834-.423,5.8,5.8,0,0,1-3.706-2.938,2.82,2.82,0,0,1-.182-2.091,2.253,2.253,0,0,1,.4-.651c.352.736.606,1.713.827,2.065a4.228,4.228,0,0,0,2.827,2.039,7.023,7.023,0,0,0,2.606-.332c5.472-1.355,11.289-1.374,16.546-3.426a38.263,38.263,0,0,1,5.42-2.085,42.613,42.613,0,0,1,5.863-.475c3.088-.248,6.078-1.179,9.12-1.668a6.625,6.625,0,0,1,.41,3.166Z" transform="translate(-216.358 -270.129)" fill="#464353"/>
  <path id="Path_689" data-name="Path 689" d="M632.927,528.2a10.98,10.98,0,0,1-3.335,5.941,38.847,38.847,0,0,0-4.671,5.107c-1.563,2.391-2.267,5.355-4.3,7.374a11.788,11.788,0,0,1-2.606,1.857,18.178,18.178,0,0,1-3.355,1.544c-3.036.971-6.306.749-9.478.515a8.525,8.525,0,0,1-3.009-.58,9.072,9.072,0,0,1-1.251-.769,5.974,5.974,0,0,1-1.954-1.954,1.955,1.955,0,0,1-.189-1.42,3.336,3.336,0,0,1,.906-1.381,21.5,21.5,0,0,1,2.293-2.065,13.724,13.724,0,0,0,2.984-2.606,8.415,8.415,0,0,0,1.153-2.606,23.112,23.112,0,0,0,.84-4.983,15.794,15.794,0,0,1,.345-3.335c.482-1.72,1.759-3.257,1.616-5.035a1.257,1.257,0,0,1,.065-.762,1.062,1.062,0,0,1,.6-.371,10.618,10.618,0,0,1,3.114-.723,3.629,3.629,0,0,1,2.892,1.133c.443.534.736,1.3,1.388,1.511a2.2,2.2,0,0,0,.99.039,8.3,8.3,0,0,0,4.56-1.4,5.687,5.687,0,0,0,1.889-4.149c0-.593-.267-1.212.651-1.3.691-.091,1.238.651,1.589,1.107a15.433,15.433,0,0,1,3.049,5.55,1.637,1.637,0,0,1,.58-.111,2.521,2.521,0,0,1,2.078,1.062,4.136,4.136,0,0,1,.567,2.814Z" transform="translate(-263.723 -257.502)" fill="#514e7f"/>
  <path id="Path_690" data-name="Path 690" d="M633.058,531.654a10.98,10.98,0,0,1-3.335,5.941,38.842,38.842,0,0,0-4.671,5.107c-1.563,2.391-2.267,5.355-4.3,7.374a11.791,11.791,0,0,1-2.606,1.857,18.178,18.178,0,0,1-3.355,1.544c-3.036.971-6.306.749-9.478.515a8.525,8.525,0,0,1-3.009-.58,9.072,9.072,0,0,1-1.251-.769,5.974,5.974,0,0,1-1.954-1.954,4.762,4.762,0,0,1,1.954-.469c1.407.078,2.436,1.407,3.785,1.818,1.922.58,3.837-.775,5.785-1.238a39.173,39.173,0,0,0,3.863-.651,9.55,9.55,0,0,0,2.86-1.733,14.558,14.558,0,0,0,3.055-2.944,18.921,18.921,0,0,0,1.791-3.576,51.138,51.138,0,0,1,3.622-6.931,4.9,4.9,0,0,1,.736-.964,10.269,10.269,0,0,1,1-.723,7.571,7.571,0,0,0,2.3-4.2,7.341,7.341,0,0,1,.515-1.4,2.521,2.521,0,0,1,2.078,1.062A4.137,4.137,0,0,1,633.058,531.654Z" transform="translate(-263.855 -260.957)" fill="#464353"/>
  <path id="Path_691" data-name="Path 691" d="M440.18,213.387a13.816,13.816,0,0,1,3.909,4.56c.912,1.785,6.169,15.634,5.863,17.647,1.713-1.726,8.468-2.006,10.2-3.733.723-.723,4.625-4.332,5.211-5.172s4.938-2.606,5.413-3.492c1.778-3.185-12.611-15.256-10.768-18.4a.821.821,0,0,0,.15-.5.808.808,0,0,0-.241-.384,21.576,21.576,0,0,0-4.163-2.847,6.6,6.6,0,0,1-3.172-3.778,13.679,13.679,0,0,0-3.68,2.488q-3.961,3.394-7.784,6.925c-1,.925-2.925,2.156-3.387,3.479C437.184,211.6,439.229,212.611,440.18,213.387Z" transform="translate(-207.572 -145.789)" fill="#a1616a"/>
  <path id="Path_692" data-name="Path 692" d="M467.6,214.13a42.4,42.4,0,0,0-6.162,5.042c-1.785,1.765-3.479,3.811-3.909,6.28-.182.971-.156,1.954-.306,2.938-.651,4.267-4.338,7.394-5.967,11.387a19.743,19.743,0,0,0-1.036,3.811,45.043,45.043,0,0,0-.749,7.478c-.039,2.43,2.345,4.1,3.218,6.371a38.9,38.9,0,0,1,1.55,6.925,82.046,82.046,0,0,0,3.909,12.833c3.211,8.872,13.621,33.4,16.833,42.277,9.843-2.469,36.043-8.143,44.759-13.348,2.905-1.733-20.161-21.282-17.054-22.63a1.16,1.16,0,0,0,.873-1.635c-3.107-13.589-12.826-24.754-17.236-37.984-1.531-4.592-4.28-8.514-6.364-12.879-1.889-3.954-2.9-8.325-5.159-12.084a7.621,7.621,0,0,0-1.648-2.052,9.72,9.72,0,0,0-1.817-1.1C470.041,215.133,468.843,214.762,467.6,214.13Z" transform="translate(-211.696 -151.659)" fill="#514e7f"/>
  <circle id="Ellipse_101" data-name="Ellipse 101" cx="15.406" cy="15.406" r="15.406" transform="translate(217.723 35.242)" fill="#a1616a"/>
  <path id="Path_693" data-name="Path 693" d="M466.4,206.358a5.166,5.166,0,0,1,5.791-.834,2.8,2.8,0,0,1,1.72,2.782l7.641.117a15.342,15.342,0,0,1,3.622.332,5.263,5.263,0,0,1,3.023,1.9c.091.124.2.274.352.293a.56.56,0,0,0,.352-.117,6.631,6.631,0,0,1,3.8-.651c4.13.267,7.947,2.332,11.185,4.912a3.615,3.615,0,0,1,1.3,1.622c.267.866-.052,1.954.651,2.573,0,7.166,2.462,13.862,4.1,20.845.293,1.244,1.485,2.345,2.313,3.322a13.4,13.4,0,0,1,2.469,3.687c1.394,3.622-.528,7.882.827,11.517a19.733,19.733,0,0,0,2.606,4.137,10.7,10.7,0,0,1,2.228,5.342c.059.873-.052,1.752,0,2.606a15.776,15.776,0,0,0,.651,3.459q.834,3.153,1.746,6.3c.99,3.387,2.28,7.042,5.316,8.846-7.328,1.244-15.054,2.462-22.037-.085a11.425,11.425,0,0,1-2.749-1.374c-2.521-1.8-3.739-4.873-4.827-7.778a36.727,36.727,0,0,1-2.69-10.038,11.524,11.524,0,0,0-.463-3.257c-.71-1.889-2.606-3.029-4.325-4.078a20.768,20.768,0,0,1-5.211-4.052,8.1,8.1,0,0,1-2.111-6.084c.13-1.075.554-2.111.593-3.192A2.5,2.5,0,0,0,482.8,246.8c-5.335-1.616-7.882-7.934-9.068-13.38a42.953,42.953,0,0,1-.684-8.534l-.072-5.557a7.335,7.335,0,0,1-2.4-5.27,6.261,6.261,0,0,0-.033-1.746,4.815,4.815,0,0,0-1.225-1.857,16.571,16.571,0,0,1-2.925-4.1Z" transform="translate(-217.598 -148.473)" fill="#464353"/>
  <path id="Path_694" data-name="Path 694" d="M440.636,231.68c-.176,1.72.215,3.485-.169,5.172-.15.651-.41,1.3-.6,1.909a11.2,11.2,0,0,0,.71,7.25,40.385,40.385,0,0,0,3.707,6.416,10.422,10.422,0,0,1,1.186,2.221,11.5,11.5,0,0,1,.456,2.534,78.71,78.71,0,0,0,1.811,10.24c.73,2.918,9.016,27.868,10.944,30.18a2.456,2.456,0,0,0,1.485,1.01,2.7,2.7,0,0,0,1.264-.261l3.909-1.5a2.554,2.554,0,0,0,.905-.5,2.332,2.332,0,0,0,.56-1.537c.28-3.179-8.025-28.3-9.081-31.307-3.192-9.068-7.439-17.81-9.517-27.2-.58-2.606-.886-6.618-2.795-8.7-.788-.86-.521-.5-1.466-.046a10.7,10.7,0,0,0-1.381.723A4.521,4.521,0,0,0,440.636,231.68Z" transform="translate(-208.243 -156.18)" fill="#464353"/>
  <path id="Path_695" data-name="Path 695" d="M556.62,320.79" transform="translate(-249.047 -188.839)" fill="#464353"/>
  <path id="Path_696" data-name="Path 696" d="M458.926,246.273c1.049,5.544,2.13,11.074,3.2,16.618l15.3-4.006c.124-1.6-.73-3.088-1.3-4.56-1.394-3.5-1.427-7.394-2.554-10.989-.853-2.736-2.339-5.25-3.14-8.006-.462-1.6-.7-3.257-1.153-4.879a35.439,35.439,0,0,0-1.8-4.658,29.161,29.161,0,0,0-3.335-6.182c-1.954.73-4.039,1.576-5.153,3.342a7.218,7.218,0,0,0-.951,3.257c-.267,3.433.977,6.885.567,10.3a30.289,30.289,0,0,0,.319,9.765Z" transform="translate(-214.67 -153.569)" fill="#6c63ff"/>
  <path id="Path_697" data-name="Path 697" d="M483.662,356.045c.86,3.257-.384,6.684-1.4,9.908a76.8,76.8,0,0,0-3.114,14.917,12.909,12.909,0,0,1-.769,3.772c-.482,1.088-1.3,2.006-1.863,3.042-1.537,2.723-1.5,6.045-1.166,9.159.221,2.052.554,4.1.964,6.117.5,2.469,1.12,5.048.4,7.459,1.212-.267,2.032,1.3,1.954,2.534s-.476,2.606.117,3.667c1.5.547,1.511,2.606,1.466,4.2a35.339,35.339,0,0,0,1.042,8.208q3.4,16.351,7.218,32.61c5.5,1.707,11.934,3.485,17.184,1.12a3.446,3.446,0,0,0,2.176-2.189,3.818,3.818,0,0,0-.208-1.681l-2.488-9.055a16.625,16.625,0,0,1-.892-6.7c.241-1.674.971-3.479.15-4.957-.28-.508-.723-.905-1.049-1.388-1.3-1.909-.619-4.462-.515-6.775a5.368,5.368,0,0,0-.1-1.55,7.746,7.746,0,0,0-.743-1.7,26,26,0,0,1-2.866-12.937,3.2,3.2,0,0,0-.228-1.687,5.455,5.455,0,0,1-.423-.69,1.889,1.889,0,0,1,.137-1.244,11.4,11.4,0,0,1-2.006-1.954,2.808,2.808,0,0,0,.482-4.391,1.466,1.466,0,0,0,.7-2.521c-.319-.221-.743-.319-.971-.651-.352-.482-.065-1.153.221-1.668l1.518-2.742c1.133-2.039,1.388-4.56,2.606-6.514a48.818,48.818,0,0,0,4.013-9.159l4.384-12.1,2.951,2.56a9.327,9.327,0,0,1,2.423,2.762,11.92,11.92,0,0,1,.788,3.309c1.081,6.566,5.211,12.26,6.742,18.728a12.334,12.334,0,0,0,1.394,4.182,9.121,9.121,0,0,1,.795,1.2,6.357,6.357,0,0,1,.332,1.987,9.27,9.27,0,0,0,3.909,6.644c1.453,1,3.257,1.681,4.045,3.257a6.071,6.071,0,0,0,.651,1.388c.7.847,2.221.945,2.521,2.006.169.593-.143,1.3.189,1.824a1.726,1.726,0,0,0,.723.541l4.241,2.117c4.742,2.371,7.166,7.817,10.664,11.784a25.4,25.4,0,0,1,3.192,4.221c1.511,2.7,2.208,6.1,4.762,7.817a7.2,7.2,0,0,1,1.85,1.375c.8,1.055.508,2.534.58,3.863s1.088,2.912,2.352,2.508a9.27,9.27,0,0,0,0,4.918,24.754,24.754,0,0,0,15.022-6.084c1.238-1.081,2.43-2.462,2.443-4.1a1.472,1.472,0,0,0-.182-.814,2.326,2.326,0,0,0-.958-.723c-3.967-2.15-5.159-7.133-7.166-11.178-1.752-3.57-4.345-6.644-6.514-9.96-4.716-7.133-7.934-15.764-15.067-20.474-1.57-1.036-3.394-1.954-4.182-3.667-.436-.958-.489-2.052-.834-3.042a2.64,2.64,0,0,0-2.228-1.954,13.653,13.653,0,0,0,.508-4.729,5.973,5.973,0,0,0-.234-2.039,9.917,9.917,0,0,0-1.049-2.019,19.373,19.373,0,0,1-2.684-10.423c.052-1.883.384-3.824-.182-5.622-.287-.905-.788-1.733-1.133-2.606a16.285,16.285,0,0,1-.814-4.9l-.391-6.26a30.8,30.8,0,0,0-.808-6.188c-1.3-4.86-2.606-25.216-7.068-27.509s-12.129,13.374-17.152,13.68a22.335,22.335,0,0,0-6.514,1.257c-3.342,1.251-6.143,3.583-8.872,5.863l-9.237,7.758A34.036,34.036,0,0,1,483.662,356.045Z" transform="translate(-220.653 -189.602)" fill="#464353"/>
  <path id="Path_698" data-name="Path 698" d="M418.053,167.376A11.613,11.613,0,0,1,427.017,163a20.876,20.876,0,0,1,9.908,2.488,12.24,12.24,0,0,0,2.892,1.186c1.629.332,3.439-.111,4.912.651,1.954,1.036,2.332,3.674,2.163,5.863s-.58,4.619.586,6.514a15.06,15.06,0,0,1,1.127,1.7,5.622,5.622,0,0,1-.091,3.622,23.476,23.476,0,0,1-1.87-2.391,2.2,2.2,0,0,0-2.7-.7c-.84.567-.827,1.6-.873,2.521s-.28,2.032-1.153,2.332a1.87,1.87,0,0,1-1.954-.762c-1.492-1.824-.892-4.736-2.371-6.573-.84-1.042-2.241-1.55-3.016-2.645-.612-.86-.769-1.954-1.3-2.879s-1.778-1.6-2.606-.964a3.523,3.523,0,0,0-.7.932,4.006,4.006,0,0,1-4.755,1.433,7.954,7.954,0,0,0-2.058-.892,2.547,2.547,0,0,0-2.352,1.3,5.088,5.088,0,0,0-.651,2.723c0,1.3.234,2.69-.508,3.733a3.863,3.863,0,0,1-1.042.99c-1.088.7-2.606,1.166-3.609.371a2.71,2.71,0,0,1-.808-2.527,20.43,20.43,0,0,1,.769-2.671c.573-2.019-.176-4.293.449-6.195A19.777,19.777,0,0,1,418.053,167.376Z" transform="translate(-199.379 -133.834)" fill="#464353"/>
  <path id="Path_699" data-name="Path 699" d="M432.794,225.415a2.371,2.371,0,0,0,.143,1.414,2.247,2.247,0,0,0,.769.736,15.8,15.8,0,0,0,7.257,2.352,2.208,2.208,0,0,1,1,.261,1.764,1.764,0,0,1,.423,2.019,5.256,5.256,0,0,0-.463,2.15c.189,1.361,1.8,1.954,3.166,2.156a7.364,7.364,0,0,0,5.511-1.075,8.514,8.514,0,0,0,2.273-3.407c3.739-8.592,5.048-18.09,8.833-26.656a5.654,5.654,0,0,0,.567-1.785,1.759,1.759,0,0,0-.7-1.642c-.7-.436-1.8-.189-2.273-.873-.234-.345-.208-.814-.417-1.179-.436-.775-1.583-.651-2.365-1.1-.612-.326-1.036-1-1.72-1.127a2.163,2.163,0,0,0-1.778.769c-2.221,2.072-3.387,5.009-4.625,7.784a91.256,91.256,0,0,1-6.618,12.273c.293-.456-1.407-3.908-2.072-4.058-1.166-.234-2.658,1.811-3.29,2.573A16.389,16.389,0,0,0,432.794,225.415Z" transform="translate(-205.866 -145.916)" fill="#6c63ff"/>
  <path id="Path_700" data-name="Path 700" d="M465.263,200.32a3.12,3.12,0,0,0-2.417,1.212,6.892,6.892,0,0,0-1.01,3.257A28.3,28.3,0,0,1,458,215.094" transform="translate(-214.67 -146.845)" opacity="0.1"/>
  <path id="Path_701" data-name="Path 701" d="M470.443,204.31a3.72,3.72,0,0,0-3.159,1.9,10.65,10.65,0,0,0-.795,3.218,17.659,17.659,0,0,1-3.159,6.768" transform="translate(-216.528 -148.236)" opacity="0.1"/>
  <path id="Path_702" data-name="Path 702" d="M516.9,383.465v-8.091a22.461,22.461,0,0,0-22.461-22.454H174.921a22.461,22.461,0,0,0-22.461,22.454v14.917Z" transform="translate(-108.164 -200.039)" fill="#33323d"/>
  <path id="Path_703" data-name="Path 703" d="M323.378,311.67s-.912,56.582,9.12,75.2,14.331,99.608,14.331,99.608,105.165,10.879,178.449-13.028S754.5,439.765,754.5,439.765L728.221,262.651s-129.821-8.325-203.672,26.9S323.378,311.67,323.378,311.67Z" transform="translate(-167.735 -168.274)" fill="#8dd070"/>
  <path id="Path_704" data-name="Path 704" d="M323.378,311.67s-.912,56.582,9.12,75.2,14.331,99.608,14.331,99.608,105.165,10.879,178.449-13.028S754.5,439.765,754.5,439.765L728.221,262.651s-129.821-8.325-203.672,26.9S323.378,311.67,323.378,311.67Z" transform="translate(-167.735 -168.274)" opacity="0.1"/>
  <path id="Path_705" data-name="Path 705" d="M358.774,339.032s-3.29,46.687,4.964,61.6,8.638,81.512,8.638,81.512,94.644,4.391,161.968-18.526,208.8-37.782,208.8-37.782L727.065,281s-117.06-1.205-185.38,31.053S358.774,339.032,358.774,339.032Z" transform="translate(-179.856 -174.966)" fill="#8dd070"/>
  <ellipse id="Ellipse_102" data-name="Ellipse 102" cx="24.571" cy="52.7" rx="24.571" ry="52.7" transform="translate(323.378 160.582) rotate(-7.1)" opacity="0.1"/>
  <path id="Path_706" data-name="Path 706" d="M637.472,130.66s-126.121,31.919-185.6,88.1S267.2,301.553,267.2,301.553s16.494,54.126,31.75,68.77,44.192,90.417,44.192,90.417,103.425-21.927,165.831-67.187S716.821,291.13,716.821,291.13Z" transform="translate(-148.16 -122.563)" opacity="0.2"/>
  <path id="Path_707" data-name="Path 707" d="M264.29,289.116s16.487,54.133,31.73,68.777,44.192,90.41,44.192,90.41,103.438-21.92,165.851-67.181S713.9,278.72,713.9,278.72L634.555,118.23s-126.114,31.919-185.589,88.1S264.29,289.116,264.29,289.116Z" transform="translate(-147.146 -118.23)" fill="#8dd070"/>
  <path id="Path_708" data-name="Path 708" d="M264.29,289.116s16.487,54.133,31.73,68.777,44.192,90.41,44.192,90.41,103.438-21.92,165.851-67.181S713.9,278.72,713.9,278.72L634.555,118.23s-126.114,31.919-185.589,88.1S264.29,289.116,264.29,289.116Z" transform="translate(-147.146 -118.23)" opacity="0.1"/>
  <path id="Path_709" data-name="Path 709" d="M308,309.761s11.2,45.449,23.633,57.11,33.222,74.913,33.222,74.913,91.42-24.871,148.464-67.343,187.145-99.973,187.145-99.973L640.724,141.5s-111.777,34.766-166.906,86.436S308,309.761,308,309.761Z" transform="translate(-162.382 -126.342)" fill="#8dd070"/>
  <ellipse id="Ellipse_103" data-name="Ellipse 103" cx="24.571" cy="52.7" rx="24.571" ry="52.7" transform="translate(282.06 135.773) rotate(-24.97)" opacity="0.1"/>
  <path id="Path_710" data-name="Path 710" d="M525.53,399.876V624.615a19.432,19.432,0,0,1-19.438,19.432H171.915a19.432,19.432,0,0,1-19.425-19.432V377.22c9.576,3.557,9.576,3.557,19.425,3.257H506.092a19.438,19.438,0,0,1,19.438,19.4Z" transform="translate(-108.174 -208.51)" opacity="0.1"/>
  <path id="Path_711" data-name="Path 711" d="M525.53,404.263V629a19.438,19.438,0,0,1-19.438,19.432H171.915A19.432,19.432,0,0,1,152.49,629V381.6c9.576,3.55,9.576,3.55,19.425,3.257H506.092a19.438,19.438,0,0,1,19.438,19.406Z" transform="translate(-108.174 -210.036)" fill="#504f60"/>
  <path id="Path_712" data-name="Path 712" d="M667.16,543.938v71.871h-69.7a35.937,35.937,0,1,1,0-71.874Z" transform="translate(-250.755 -266.624)" opacity="0.1"/>
  <path id="Path_713" data-name="Path 713" d="M668.62,541v71.884h-69.7a35.937,35.937,0,1,1,0-71.874Z" transform="translate(-251.264 -265.601)" fill="#33323d"/>
  <circle id="Ellipse_104" data-name="Ellipse 104" cx="14.012" cy="14.012" r="14.012" transform="translate(336.984 299.241)" opacity="0.1"/>
  <circle id="Ellipse_105" data-name="Ellipse 105" cx="14.012" cy="14.012" r="14.012" transform="translate(337.935 297.339)" fill="#6c63ff"/>
  <path id="Path_714" data-name="Path 714" d="M886.463,534.668c.554,6-3.987,11.823-2.664,17.7.287,1.257.827,2.443,1.023,3.713.547,3.492-1.531,6.794-3.518,9.713l-17.067,25.04a15.546,15.546,0,0,1-2.436,3.01c-3.257,2.905-8.156,2.606-12.442,3.472A21.262,21.262,0,0,0,841.02,601a.534.534,0,0,0-.078.73,7.166,7.166,0,0,0,6.2,2.912c.449.593,0,1.459-.651,1.883-.918.651-2.176.808-2.358,2.358a2.56,2.56,0,0,0,.313,1.563,4.853,4.853,0,0,0,2.984,2.078c5.908,1.8,12.292-1.368,16.715-5.687s7.6-9.771,11.934-14.168c2.4-2.43,5.133-4.514,7.609-6.872,4.938-4.7,8.775-10.423,12.481-16.149a18.02,18.02,0,0,0,2.7-5.5c.469-2,.248-4.019.775-5.954.691-2.541,2.547-4.56,4.091-6.69,3.029-4.169,5.048-9.27,4.651-14.4s-3.583-10.208-8.429-11.953a7.491,7.491,0,0,0-4.723-.287c-1.987.612-3.453,2.254-4.807,3.824l-3.257,3.746a8.78,8.78,0,0,0-1.889,2.866,3,3,0,0,0,.651,3.185" transform="translate(-348.119 -259.888)" fill="#fbbebe"/>
  <path id="Path_715" data-name="Path 715" d="M886.463,534.668c.554,6-3.987,11.823-2.664,17.7.287,1.257.827,2.443,1.023,3.713.547,3.492-1.531,6.794-3.518,9.713l-17.067,25.04a15.546,15.546,0,0,1-2.436,3.01c-3.257,2.905-8.156,2.606-12.442,3.472A21.262,21.262,0,0,0,841.02,601a.534.534,0,0,0-.078.73,7.166,7.166,0,0,0,6.2,2.912c.449.593,0,1.459-.651,1.883-.918.651-2.176.808-2.358,2.358a2.56,2.56,0,0,0,.313,1.563,4.853,4.853,0,0,0,2.984,2.078c5.908,1.8,12.292-1.368,16.715-5.687s7.6-9.771,11.934-14.168c2.4-2.43,5.133-4.514,7.609-6.872,4.938-4.7,8.775-10.423,12.481-16.149a18.02,18.02,0,0,0,2.7-5.5c.469-2,.248-4.019.775-5.954.691-2.541,2.547-4.56,4.091-6.69,3.029-4.169,5.048-9.27,4.651-14.4s-3.583-10.208-8.429-11.953a7.491,7.491,0,0,0-4.723-.287c-1.987.612-3.453,2.254-4.807,3.824l-3.257,3.746a8.78,8.78,0,0,0-1.889,2.866,3,3,0,0,0,.651,3.185" transform="translate(-348.119 -259.888)" opacity="0.05"/>
  <path id="Path_716" data-name="Path 716" d="M922.736,773.437c-3.726,2.273-8.371,2.41-12.7,1.883-.7-.085-1.524-.137-1.954.4-.651.782.117,1.954.912,2.56a18.792,18.792,0,0,0,8.722,3.589,57.445,57.445,0,0,0,8.534.567c7.817.137,15.634.267,23.327-.853a3.3,3.3,0,0,0,1.3-.378,2.385,2.385,0,0,0,.964-1.466,5.814,5.814,0,0,0-2.026-5.55,17.007,17.007,0,0,0-5.439-2.918l-6.775-2.638c-1.589-.619-4.136-2.26-5.863-2.13C928.495,766.741,925.426,771.861,922.736,773.437Z" transform="translate(-371.475 -344.206)" fill="#3f3d56"/>
  <path id="Path_717" data-name="Path 717" d="M922.736,773.437c-3.726,2.273-8.371,2.41-12.7,1.883-.7-.085-1.524-.137-1.954.4-.651.782.117,1.954.912,2.56a18.792,18.792,0,0,0,8.722,3.589,57.445,57.445,0,0,0,8.534.567c7.817.137,15.634.267,23.327-.853a3.3,3.3,0,0,0,1.3-.378,2.385,2.385,0,0,0,.964-1.466,5.814,5.814,0,0,0-2.026-5.55,17.007,17.007,0,0,0-5.439-2.918l-6.775-2.638c-1.589-.619-4.136-2.26-5.863-2.13C928.495,766.741,925.426,771.861,922.736,773.437Z" transform="translate(-371.475 -344.206)" opacity="0.05"/>
  <path id="Path_718" data-name="Path 718" d="M935.246,618.518c-2.821,3.752-5.739,8.084-5.042,12.729.378,2.5,1.778,4.71,2.808,7.022a49.545,49.545,0,0,1,2.84,9.875c1.055,4.912,2.117,9.836,2.762,14.826.736,5.635-2.723,21.94-3.042,27.614a5.837,5.837,0,0,1-1.192,3.83c-.371.391-.866.7-1.036,1.212a2.071,2.071,0,0,0,.228,1.433,15.763,15.763,0,0,0,8.469,7.778c3.628,1.524,12.377,4.156,16.331,4.293a3.256,3.256,0,0,0,1.537-.2,2.989,2.989,0,0,0,1.186-1.361c2.834-5.42.111-24.689.15-30.806.039-5.1,1.244-10.169,1.023-15.263-.182-4.091-1.3-8.091-1.674-12.169-.651-6.683.573-13.4,1.8-20.005.938-5.068,1.883-10.136,3.088-15.139a29.068,29.068,0,0,1,3.257-8.788c1.3-2.1,3.133-3.863,4.651-5.863a26.461,26.461,0,0,0,5.211-19.373c-.091-.651-9.771,2.456-10.625,2.827a33.1,33.1,0,0,0-9.472,6.091c-2.241,2.137-4.006,4.99-5.967,7.381q-4.163,5.074-8.221,10.221Q939.689,612.564,935.246,618.518Z" transform="translate(-379.236 -279.221)" fill="#464353"/>
  <path id="Path_719" data-name="Path 719" d="M935.246,618.185c-2.821,3.752-5.739,8.091-5.042,12.729.378,2.508,1.778,4.716,2.808,7.029a49.485,49.485,0,0,1,2.84,9.869c1.055,4.918,2.117,9.843,2.762,14.826.736,5.641-2.723,21.94-3.042,27.614a5.854,5.854,0,0,1-1.192,3.837c-.371.384-.866.7-1.036,1.205a2.065,2.065,0,0,0,.228,1.433,15.956,15.956,0,0,0,8.469,7.817c3.628,1.563,12.377,2.925,16.331,3.055a3.256,3.256,0,0,0,1.537-.2,2.944,2.944,0,0,0,1.186-1.355c2.834-5.42.111-23.451.15-29.574.039-5.107,1.244-10.169,1.023-15.269-.182-4.091-1.3-8.091-1.674-12.162-.651-6.69.573-13.406,1.8-20.012.938-5.062,1.883-10.13,3.088-15.139a29.068,29.068,0,0,1,3.257-8.788c1.3-2.1,3.133-3.863,4.651-5.863a26.447,26.447,0,0,0,5.211-19.373c-.091-.651-9.771,2.456-10.625,2.827a33.253,33.253,0,0,0-9.472,6.1c-2.241,2.13-4.006,4.983-5.967,7.374q-4.163,5.074-8.221,10.227Q939.689,612.225,935.246,618.185Z" transform="translate(-379.236 -279.116)" opacity="0.05"/>
  <circle id="Ellipse_106" data-name="Ellipse 106" cx="15.81" cy="15.81" r="15.81" transform="translate(508.815 225.038)" fill="#fbbebe"/>
  <path id="Path_720" data-name="Path 720" d="M903.614,485.326a20.474,20.474,0,0,0,13.126,9.159l-1.192,4.332c-2.058,7.439-4.371,15.308-10.117,20.468a9.514,9.514,0,0,0-1.6-7.4,27.894,27.894,0,0,0-5.368-5.609l-9.1-7.882a2.742,2.742,0,0,1-.651-.769,2.312,2.312,0,0,1,0-1.733c1.16-3.609,4.469-5.863,7.166-8.3a24.816,24.816,0,0,0,3.6-4.2C901.3,480.8,902.422,483.41,903.614,485.326Z" transform="translate(-364.749 -245.142)" fill="#fbbebe"/>
  <path id="Path_721" data-name="Path 721" d="M855.741,456.772l-.358-2.97c2.495.651,4.866-1.472,6.462-3.667s3.075-4.781,5.5-5.7c2.951-1.107,6.078.651,8.9,2.137a28.138,28.138,0,0,0,10.208,3.322,6.715,6.715,0,0,1,1.687.274c1.837.651,2.71,2.957,2.977,5.048s.2,4.312,1.1,6.175c.651,1.414,1.863,2.462,2.606,3.856,1.954,3.739.065,8.853,2.1,12.52l-5.068-4.645c-.463-.423-1.114-.866-1.629-.508-.4.287-.437.905-.6,1.4a2.661,2.661,0,0,1-3.609,1.3,10.341,10.341,0,0,1-3.257-2.951,19.772,19.772,0,0,0-8.039-6.1,10.318,10.318,0,0,0-8.468.56c-2.365,1.335-4.1,4.449-7,4.56-3.974.15-5.628-7.25-7.465-10.175a3.583,3.583,0,0,0,1.042-4.482C853.109,456.622,855.682,456.316,855.741,456.772Z" transform="translate(-351.942 -231.818)" fill="#464353"/>
  <path id="Path_722" data-name="Path 722" d="M554.916,319.665a30.758,30.758,0,0,0-3.511,3.687,7.38,7.38,0,0,0-1.615,4.736,2.424,2.424,0,0,0,.456,1.388,1.173,1.173,0,0,0,1.3.4,1.752,1.752,0,0,0,.651-.573,31.449,31.449,0,0,1,2.189-2.371c.28-.28.651-.573,1.029-.469a1.1,1.1,0,0,1,.443.293,3,3,0,0,1,.919,1.433,3.377,3.377,0,0,1-1.01,2.775,7.11,7.11,0,0,0-1.7,2.514,1.114,1.114,0,0,0,0,.808,1.211,1.211,0,0,0,.508.43,7.27,7.27,0,0,0,6.149.4c1.3-.528,2.462-1.433,3.8-1.9a8.792,8.792,0,0,0,1.681-.651,3.491,3.491,0,0,0,1.492-2.234,9.212,9.212,0,0,0,.1-2.742,31.537,31.537,0,0,0-2.241-10.312,1.3,1.3,0,0,0-.378-.547,1.205,1.205,0,0,0-.651-.176c-1.668-.176-4.4-1.029-6.013-.41a4.247,4.247,0,0,0-1.42,1.264C556.8,317.737,554.916,319.229,554.916,319.665Z" transform="translate(-246.666 -187.141)" fill="#a1616a"/>
  <path id="Path_723" data-name="Path 723" d="M544.334,286.833c0-1.589-1.954-5.426,1.153-5.68,0-1.7-2.4-2.755-1.954-4.56.143-.6.651-1.088.71-1.7.2-1.739-2.944-2.684-2.423-4.351.2-.651.886-1.029,1.036-1.674.352-1.5-2.339-2.176-2.391-3.72,0-.521.293-1.01.267-1.531,0-.651-.567-1.147-.879-1.713-.814-1.453-.417-3.7-1.9-4.449.984.085,1.3-1.375.9-2.267s-1.231-1.668-1.238-2.658a4.01,4.01,0,0,0,0-1.081c-.274-.951-1.83-1.029-2.091-1.954a8.335,8.335,0,0,1-.033-1.068c-.1-.736-.86-1.205-1.57-1.414a6.4,6.4,0,0,1-2.1-.749c-.456-.345-.984-.918-1.472-.651-.182.111-.274.319-.41.476-.586.684-1.707.384-2.443-.117-2.176-1.479-3.257-4.13-3.72-6.716s-.449-5.257-1.029-7.817a16.7,16.7,0,0,0-.7-2.345,12.338,12.338,0,0,1-1.094-2.332c-.117-1.5,2.984-.476,4.163-.326a18.54,18.54,0,0,1,3.381.651,36.155,36.155,0,0,1,3.459,1.518c4.7,2.078,10.384,2.332,14.162,5.824,1.244,1.146,2.293,2.651,3.909,3.172a17.685,17.685,0,0,1,2.189.567c1.791.84,2.072,3.218,3.049,4.938a9.67,9.67,0,0,1,.8,1.433,5.522,5.522,0,0,1,.261,1.824l.137,4.514a166.477,166.477,0,0,1-.365,22.663c-.261,2.482-.651,5.035.085,7.42.2.651.469,1.264.651,1.922a11.722,11.722,0,0,1,.248,2.345l.1,2.925a.912.912,0,0,1-.143.651.938.938,0,0,1-.788.189c-4.071-.365-8.188-2.658-12.032-1.27" transform="translate(-236.611 -155.781)" fill="#464353"/>
  <ellipse id="Ellipse_107" data-name="Ellipse 107" cx="48.179" cy="6.964" rx="48.179" ry="6.964" transform="translate(445.341 341.863)" fill="#504f60"/>
  <path id="Path_724" data-name="Path 724" d="M825.514,487.459c-.847-3.628-1.375-6.814-1.375-6.814a14.041,14.041,0,0,0-1.576-6.911v-.99h0v-7.3a24.875,24.875,0,0,1,1.844-3.824c1.3-2.293,0-10.7,0-10.7s-4.866-11.849-3.687-19.367-9.993-33.379-9.993-33.379a32.956,32.956,0,0,1,1.049-7.387,5.634,5.634,0,0,0,.143-1.55v-.13c-.169-4.957-4.091-14.246-4.091-14.246l.528-17.706s2.5-10.423-1.576-24.461c-1.427-4.892-2.339-8.807-2.918-11.83-.065-.339-.13-.651-.182-.984,8.4-1.3,14.813-2.345,14.813-2.345s-4.873-20.383-8.162-23.953-5.921-14.781-5.921-14.781-1.713-14.39,1.055-18.6,3.159-11.465,3.159-11.465,6.312-4.56,7.107-6.625,2.1-6.625,2.1-9.042-.788-4.56-.528-5.863-1.844-6.117-.788-8.41a6.17,6.17,0,0,0,.417-2.208.284.284,0,0,0,0-.065h0a30.951,30.951,0,0,0-.554-5.98,16.969,16.969,0,0,0-6.254-3.342l-.137-.547-.358-1.433a6.956,6.956,0,0,0-.619-.365v-.521l-.059-2.071.99-4.651c1.954-8.091-8.853-9.3-8.853-9.3a5.7,5.7,0,0,0-3.062-2.684c-2.169-.762-.358,12.168.651,13.028.762.651,3.12,4.677,4.26,6.671h0l.182.326a4.563,4.563,0,0,0-.5.521l.41,2.808.065.43a11.653,11.653,0,0,0-1.726,2.938s1.954,2.163,1.583,4.56a14.606,14.606,0,0,0,.651,5.6c-.117-.137-1.5-1.635-2.892-1.27s-5.263,1.531-5.263,1.531-2.892.508-2.606,1.146-1.954,3.439-1.954,3.439L783.12,220c-.078-.221-.163-.443-.228-.651a17.937,17.937,0,0,1-.651-3.257,17.79,17.79,0,0,0,2.488-.788,5.367,5.367,0,0,0,2.15-1.381,8.335,8.335,0,0,0,1.257-3.355c.612-2.267,1.954-4.28,2.886-6.436a20.924,20.924,0,0,0,1.466-11.582,7.558,7.558,0,0,0-1.192-3.387c-1.27-1.746-3.576-2.456-5.25-3.85s-2.755-3.524-4.71-4.56a9.34,9.34,0,0,0-5.9-.508,31.809,31.809,0,0,0-11.029,4.013c-1.133.651-2.384,1.453-3.687,1.212a4.814,4.814,0,0,1-2.658-1.954.662.662,0,0,1,.033-.1.654.654,0,0,1-.085-.1,13.739,13.739,0,0,0-1.212,5.824,7.176,7.176,0,0,0,.039.932v.593h0a1.484,1.484,0,0,1-.059.41,2.964,2.964,0,0,1-.73,1.049,7.034,7.034,0,0,0-.651.866,1.073,1.073,0,0,1,.1-.319,4.632,4.632,0,0,0-.808,2.456,2.508,2.508,0,0,0,.586,1.759,8.47,8.47,0,0,0,1.27,1.016,14.826,14.826,0,0,0-.234,2.606,15.054,15.054,0,0,0,7.335,12.839c.091.215.176.436.261.651a18.548,18.548,0,0,1,1.414,8.468,3.977,3.977,0,0,1-.091.612c-.033.2-.2.215-.28.326h0s-12.852.13-15.875-2.606-7.635,6.69-7.635,6.69-4.606.892-5.531,0-6.312-.124-6.312-.124a11.615,11.615,0,0,0-8.032-2.931,23.575,23.575,0,0,0-5.863-3.257h0l-.143-.052h0a6.566,6.566,0,0,0-2.9-.365s-6.319-5.211-8.162-8.025-10.618-13.2-10.657-13.25v-.5l-.1-1.511a5.415,5.415,0,0,1-.788.065c-.046-.15-.111-.326-.176-.528a29.134,29.134,0,0,0-1.863-4.28s0-1.909.554-2.391-.228-7.485-.228-7.485-5.693-13.308-10.794-3.374c0,0-9.641,6.429-1.55,13.921,0,0,3.257,1.563,3.687,2.8.3.8,1.394,3.049,2.13,4.56l.332.651-.091.078.117,1.251.052.482c-1.524.866-2.56,1.726-2.306,2.371a14.245,14.245,0,0,1,.919,3.439s11.191,14.018,12.638,20.005c0,0,30.011,17.836,39.88,19.106l-1.746,8.892a70.956,70.956,0,0,0-.391,7.263c.13,1.909-1.186,10.573-1.186,10.573s-1.713,12.742-3.159,14.527-1.186,9.426-1.186,9.426a64.4,64.4,0,0,1-1.954,10.827c-1.446,4.84-.4,10.833-.4,10.833s-5,11.465,6.977,3.694c0,0,5.863-.365,12.651-.6v.651c0,.873,0,1.817-.046,2.808-.091,6.566-.13,15.634.169,22.461.528,12.1,4.215,36.056,4.215,36.056V397.6a16.413,16.413,0,0,0-.352,3.439,22.383,22.383,0,0,0,3.257,12.045l.925,8.025s2.163,5.289,2.2,8.468a4.44,4.44,0,0,1-.091.762,5.128,5.128,0,0,0-.1,1.231c-.124,3.648,2.071,12.377,2.071,12.377s.13,8.788,1.446,9.3c1.127.436-1.5,5.062-2.286,6.39a1.814,1.814,0,0,1-.046-.248l-.163.261a6.237,6.237,0,0,0-.41,2.228,3.192,3.192,0,0,0,1.459,3.088c2.5,1.531,3.843,2.8,1.72,3.309a22.111,22.111,0,0,0-2.319.489,1.006,1.006,0,0,0-.111-.293,1.394,1.394,0,0,0-.866,1.537,6.515,6.515,0,0,0,.775,2.957,32.265,32.265,0,0,0,3.563,6.514l1.01-.111a4.926,4.926,0,0,1-.586,1.088,4.194,4.194,0,0,1-1.485,1.3,4.6,4.6,0,0,1-1.8.619,5.081,5.081,0,0,0-3.726,1.811c-1.3,1.7-2.137,4.013.456,6.045l9.413,3.257s16.194,2.1,15.334-1.531-1.381-6.814-1.381-6.814a14.364,14.364,0,0,0-1.3-6.443,8.377,8.377,0,0,0-.573-.951l.573-.059s1.186-8.032,2.762-9.556c.365-.352.449-.651.365-.834.163-.436-.254-.69-.782-.84l-.117.319a7.677,7.677,0,0,0-1.57-.176s-.528-4.2,1.186-5.732a1.622,1.622,0,0,0,.332-1.251,6.722,6.722,0,0,0-.182-1.713.837.837,0,0,1-.059.1,61.712,61.712,0,0,0-3.778-9.882s-.13-3.817.925-5.348-.137-20.767-.137-20.767.4-9.3-.788-13.628,1.446-9.432,1.446-9.432v-.339l-.15-1.466a.38.38,0,0,0,0,.091c-.267-2.462-.769-6.925-1.14-8.983-.528-2.931.137-16.937.137-16.937l2.365-5.993,4.215,10.325,4.475,13.758a11.754,11.754,0,0,1,2.267,5.863v.43a7.535,7.535,0,0,0-.052.918,8.181,8.181,0,0,0,1.362,4.905s1.186,6.514,3.029,8.149,1.844,4.84,1.844,4.84,2.234,9.432,3.257,11.074c.886,1.394.932,5.211.925,6.4h0v.339s.313,3.374.3,6.2v1.01a.284.284,0,0,0,0-.072,9.811,9.811,0,0,1-.274,2.293l-.039.13a1.662,1.662,0,0,1,.046-.475,23.941,23.941,0,0,0-.651,5.863c-.059,3.387.456,7.4,2.508,9.771,3.557,4.078,5.791,3.57,5.791,3.57s-1.707,5.094-3.817,6.117a.99.99,0,0,0-.221.143,2.208,2.208,0,0,0-.052-.3,2.482,2.482,0,0,0-.651,1.9,13.665,13.665,0,0,0,2.606,7.55,4.253,4.253,0,0,0,1.778,1.042,2.823,2.823,0,0,1-.332.2,7.081,7.081,0,0,1-.723.345,3.8,3.8,0,0,1-1.075.28,5.016,5.016,0,0,0-3.726,1.811c-1.3,1.694-2.137,4.006.456,6.039l9.413,3.257S826.361,491.087,825.514,487.459Z" transform="translate(-290.545 -138.293)" fill="url(#linear-gradient)"/>
  <path id="Path_725" data-name="Path 725" d="M805.03,653.922l-9.12-3.257c-2.514-2.032-1.713-4.345-.443-6.045a4.872,4.872,0,0,1,3.609-1.811,4.326,4.326,0,0,0,1.739-.619,4.168,4.168,0,0,0,1.446-1.3,6.729,6.729,0,0,0,1.036-3.524s10.006-2.931,12.742,0a7.406,7.406,0,0,1,1.212,1.778,14.884,14.884,0,0,1,1.3,6.442s.508,3.179,1.335,6.814S805.03,653.922,805.03,653.922Z" transform="translate(-331.887 -298.737)" fill="#2d293d"/>
  <path id="Path_726" data-name="Path 726" d="M873.47,647.015l-9.12-3.257c-2.514-2.032-1.713-4.345-.443-6.039a4.814,4.814,0,0,1,3.6-1.811,3.377,3.377,0,0,0,1.042-.28,6.912,6.912,0,0,0,.7-.345c2.547-1.4,2.482-4.84,2.482-4.84s10-2.931,12.742,0a7.22,7.22,0,0,1,.958,1.3,14.475,14.475,0,0,1,1.524,6.918s.508,3.185,1.3,6.814S873.47,647.015,873.47,647.015Z" transform="translate(-355.744 -296.325)" fill="#2d293d"/>
  <path id="Path_727" data-name="Path 727" d="M820.331,637.352a7.4,7.4,0,0,1,1.212,1.778h0L806.56,640.87a6.729,6.729,0,0,0,1.036-3.524S817.595,634.421,820.331,637.352Z" transform="translate(-336.172 -298.733)" opacity="0.1"/>
  <path id="Path_728" data-name="Path 728" d="M888.585,631.766v2.808c-2.332,3.837-13.608,3-16.885,1.075a6.918,6.918,0,0,0,.7-.345c2.547-1.4,2.482-4.84,2.482-4.84s10-2.931,12.742,0a7.213,7.213,0,0,1,.958,1.3Z" transform="translate(-358.879 -296.332)" opacity="0.1"/>
  <path id="Path_729" data-name="Path 729" d="M859.6,534.883a25.536,25.536,0,0,0-1.778,3.824v10.064c-2.554,4.2-15.8,2.8-17.588.508s-3.661-8.26-1.648-9.3,3.694-6.117,3.694-6.117-2.169.508-5.609-3.57-2.417-13.12-1.778-15.282,0-9.426,0-9.426.13-5.1-.886-6.755-3.185-11.074-3.185-11.074,0-3.185-1.785-4.84-2.931-8.156-2.931-8.156a8.358,8.358,0,0,1-1.27-5.478c.378-3.185-2.169-6.625-2.169-6.625L818.334,448.9l-4.078-10.318-2.293,5.987s-.651,14.012-.124,16.937,1.3,10.7,1.3,10.7-2.547,5.094-1.4,9.426.73,13.641.73,13.641,1.146,19.23.124,20.761-.892,5.355-.892,5.355,5.211,11.2,3.57,12.735-1.146,5.732-1.146,5.732,3.563,0,2.039,1.531-2.677,9.556-2.677,9.556l-15.406,1.8a32.039,32.039,0,0,1-3.446-6.514c-2.039-4.736.378-4.2,2.43-4.716s.756-1.778-1.668-3.309-1.016-4.97-1.016-4.97,3.694-6.241,2.417-6.749-1.4-9.3-1.4-9.3-2.547-10.423-1.909-13.25-2.039-9.55-2.039-9.55l-.892-8.025a22.083,22.083,0,0,1-2.8-15.165V458.817s-3.57-23.946-4.078-36.049c-.326-7.752-.234-18.331-.13-24.93.065-3.7.13-6.156.13-6.156l55.032-5.732a45.984,45.984,0,0,0,1,8.175c.567,3.023,1.446,6.938,2.827,11.83,3.948,14.012,1.531,24.454,1.531,24.454l-.515,17.712s4.84,11.843,3.824,15.921a33.958,33.958,0,0,0-1.029,7.4s10.827,25.861,9.68,33.379,3.563,19.367,3.563,19.367S860.878,532.59,859.6,534.883Z" transform="translate(-328.117 -211.553)" fill="#464353"/>
  <path id="Path_730" data-name="Path 730" d="M852.05,511.5,868.8,509.27S859.313,518.957,852.05,511.5Z" transform="translate(-352.029 -254.54)" opacity="0.05"/>
  <path id="Path_731" data-name="Path 731" d="M872.415,484.14s.573,5.928-3.055,8.156C869.36,492.3,875.855,491.28,872.415,484.14Z" transform="translate(-358.063 -245.78)" opacity="0.1"/>
  <path id="Path_732" data-name="Path 732" d="M861.872,455.2s-14.005,11.53-19.1,10.573S861.872,455.2,861.872,455.2Z" transform="translate(-348.55 -235.692)" opacity="0.1"/>
  <path id="Path_733" data-name="Path 733" d="M814.3,521s-10.638,2.417-10.957,6.69S814.3,521,814.3,521Z" transform="translate(-335.05 -258.629)" opacity="0.1"/>
  <path id="Path_734" data-name="Path 734" d="M817.593,602.56s-15.028,2.8-10.761,4.71a72.962,72.962,0,0,0,11.276,3.439S822.961,610.963,817.593,602.56Z" transform="translate(-336.001 -287.059)" opacity="0.05"/>
  <g id="Group_54" data-name="Group 54" transform="translate(455.333 179.732)" opacity="0.05">
    <path id="Path_735" data-name="Path 735" d="M801.545,613.286a2.964,2.964,0,0,1-1.374-2.176l-.156.267s-1.4,3.44,1.023,4.964c.274.176.541.352.782.521.449-.085.932-.15,1.394-.267C805.265,616.087,803.969,614.817,801.545,613.286Z" transform="translate(-789.083 -469.772)"/>
    <path id="Path_736" data-name="Path 736" d="M831.924,611.486c.417-.378.4-1.355.15-2.606a7.324,7.324,0,0,0-.853,3.687A3.179,3.179,0,0,1,831.924,611.486Z" transform="translate(-800.101 -468.995)"/>
    <path id="Path_737" data-name="Path 737" d="M828.206,515.59a17.374,17.374,0,0,0-1.016,4.684,18.892,18.892,0,0,1,1.166-3.218Z" transform="translate(-798.696 -436.475)"/>
    <path id="Path_738" data-name="Path 738" d="M881.44,504.584a5.975,5.975,0,0,0,.137-1.394c-.189.951-.319,1.831-.417,2.606C881.245,505.4,881.336,505.02,881.44,504.584Z" transform="translate(-817.509 -432.153)"/>
    <path id="Path_739" data-name="Path 739" d="M828.008,583.6a8.163,8.163,0,0,0,.378-2.834,9.624,9.624,0,0,0-.736,3.576A3.424,3.424,0,0,1,828.008,583.6Z" transform="translate(-798.856 -459.196)"/>
    <path id="Path_740" data-name="Path 740" d="M821.284,622a50.566,50.566,0,0,0-1.752,7.817L804.125,631.6a32.041,32.041,0,0,1-3.446-6.514,11.805,11.805,0,0,1-.437-1.12c-.925.423-1.3,1.381-.078,4.176a32.56,32.56,0,0,0,3.453,6.514l15.406-1.785s1.146-8.025,2.671-9.556C822.476,622.573,821.994,622.189,821.284,622Z" transform="translate(-789.005 -473.568)"/>
    <path id="Path_741" data-name="Path 741" d="M795.4,519.694s.124,8.788,1.4,9.3h0c.651-1.453,1.075-2.834.5-3.062-1.3-.508-1.4-9.3-1.4-9.3S793.358,506.2,794,503.376s-2.039-9.55-2.039-9.55l-.892-8.025a22.083,22.083,0,0,1-2.8-15.165V458.259s-3.57-23.946-4.078-36.049c-.326-7.752-.234-18.331-.13-24.93,0-1.192.039-2.247.059-3.14l-.436.046s-.072,2.449-.13,6.156c-.1,6.6-.2,17.178.13,24.923.508,12.1,4.071,36.056,4.071,36.056V473.7a22.1,22.1,0,0,0,2.808,15.159l.886,8.025s2.677,6.749,2.039,9.556S795.4,519.694,795.4,519.694Z" transform="translate(-783.448 -394.14)"/>
    <path id="Path_742" data-name="Path 742" d="M869.791,628.222a14.9,14.9,0,0,1-2.443-6.052c-1.57,1.42.234,6.931,1.954,9.12,1.778,2.293,15.028,3.694,17.588-.515v-2.423C883.418,631.759,871.471,630.391,869.791,628.222Z" transform="translate(-812.485 -473.627)"/>
    <path id="Path_743" data-name="Path 743" d="M900.185,609.315a25.735,25.735,0,0,0-1.785,3.824v1.8a26.721,26.721,0,0,1,1.3-2.554,7.817,7.817,0,0,0,.56-3.159S900.2,609.289,900.185,609.315Z" transform="translate(-823.519 -469.117)"/>
    <path id="Path_744" data-name="Path 744" d="M868.715,602.376a25.181,25.181,0,0,0,1.257-3.029s-2.169.508-5.609-3.57c-2.5-2.964-2.645-8.566-2.286-12.227-.651,2.169-1.661,11.211,1.778,15.289C866.1,601.5,867.8,602.207,868.715,602.376Z" transform="translate(-810.627 -460.165)"/>
    <path id="Path_745" data-name="Path 745" d="M850.38,531.583a67.883,67.883,0,0,1,.254,7.55,10.291,10.291,0,0,1,.26-1.179c.651-2.169,0-9.426,0-9.426s.13-5.1-.892-6.755-3.153-11.087-3.153-11.087,0-3.185-1.785-4.84-2.931-8.156-2.931-8.156a8.383,8.383,0,0,1-1.3-5.478c.384-3.185-2.163-6.625-2.163-6.625l-4.332-13.758-4.078-10.318-2.3,5.993s0,.756-.078,1.954l1.863-4.866,4.078,10.3,4.332,13.758s2.547,3.439,2.163,6.625a8.384,8.384,0,0,0,1.3,5.478s1.146,6.514,2.931,8.156,1.778,4.84,1.778,4.84,2.169,9.426,3.185,11.074S850.38,531.583,850.38,531.583Z" transform="translate(-798.937 -417.624)"/>
  </g>
  <path id="Path_746" data-name="Path 746" d="M872.141,202.859l-.958,4.651.059,2.071.039,1.524-5.316.547-.593-1.1h0c-1.1-1.993-3.387-6.045-4.124-6.671-.984-.821-2.736-13.758-.651-12.989a5.557,5.557,0,0,1,2.957,2.677S874.023,194.768,872.141,202.859Z" transform="translate(-354.668 -143.547)" fill="#ffcdd3"/>
  <path id="Path_747" data-name="Path 747" d="M874.358,220.791l-5.316.547-.593-1.1h0a4.684,4.684,0,0,1,5.863-.964Z" transform="translate(-357.746 -153.233)" opacity="0.1"/>
  <path id="Path_748" data-name="Path 748" d="M875.536,223.571l-7.009,1.622-.15-1.042-.4-2.808a4.824,4.824,0,0,1,6.788-.925l.352,1.427Z" transform="translate(-357.582 -153.491)" fill="#6c63ff"/>
  <path id="Path_749" data-name="Path 749" d="M696.243,198.1l-7.485,4.013-.651-1.407c-.71-1.492-1.772-3.739-2.065-4.56-.443-1.238-3.563-2.8-3.563-2.8-7.817-7.485,1.5-13.921,1.5-13.921,4.938-9.934,10.423,3.374,10.423,3.374s.769,7.016.228,7.485-.541,2.391-.541,2.391a29.4,29.4,0,0,1,1.8,4.28C696.119,197.659,696.243,198.1,696.243,198.1Z" transform="translate(-291.83 -138.276)" fill="#ffcdd3"/>
  <path id="Path_750" data-name="Path 750" d="M700.926,209.427l-7.485,4.013-.651-1.407c1.055-.886,4.8-3.908,6.032-3.785a9.016,9.016,0,0,0,1.772.046C700.8,208.991,700.926,209.427,700.926,209.427Z" transform="translate(-296.514 -149.607)" opacity="0.1"/>
  <path id="Path_751" data-name="Path 751" d="M701.8,211.962l-8.41,4.143-.169-1.8-.117-1.251s4.873-4.176,6.312-4.013a7.653,7.653,0,0,0,2.2,0l.1,1.511Z" transform="translate(-296.622 -149.882)" fill="#6c63ff"/>
  <path id="Path_752" data-name="Path 752" d="M831.142,241.5s-36.662,4.137-29.809,1.909c4.768-1.557,6.664-4.56,7.061-7.947A19.091,19.091,0,0,0,807.033,227a36.924,36.924,0,0,0-3.257-6.625s28.011-15.413,22.415-1.4a22.591,22.591,0,0,0-1.589,6.638,18.751,18.751,0,0,0,.723,6.723A20.018,20.018,0,0,0,831.142,241.5Z" transform="translate(-334.053 -151.296)" fill="#ffcdd3"/>
  <path id="Path_753" data-name="Path 753" d="M827.936,218.941a22.592,22.592,0,0,0-1.589,6.638c-2.638,2.221-5.531,2.072-9.25,2.072-2.853,0-6.019.69-8.3-.684a36.923,36.923,0,0,0-3.257-6.625S833.544,204.929,827.936,218.941Z" transform="translate(-335.816 -151.285)" opacity="0.1"/>
  <circle id="Ellipse_108" data-name="Ellipse 108" cx="15.158" cy="15.158" r="15.158" transform="translate(465.626 47.026)" fill="#ffcdd3"/>
  <path id="Path_754" data-name="Path 754" d="M831.142,250.945s-36.662,4.137-29.809,1.909c4.768-1.557,6.664-4.56,7.061-7.947,1.824-1.954,5.491-3.407,7.817-4.163a10.97,10.97,0,0,1,6.644-.111,9.447,9.447,0,0,1,2.417,1.12A20.018,20.018,0,0,0,831.142,250.945Z" transform="translate(-334.053 -160.737)" opacity="0.1"/>
  <path id="Path_755" data-name="Path 755" d="M875.749,224.755l-7.009,1.622-.15-1.042a6.2,6.2,0,0,1,6.742-2.306Z" transform="translate(-357.795 -154.675)" opacity="0.1"/>
  <path id="Path_756" data-name="Path 756" d="M701.859,212.77l-8.41,4.143-.169-1.8a61.339,61.339,0,0,1,8.468-3.759Z" transform="translate(-296.685 -150.69)" opacity="0.1"/>
  <path id="Path_757" data-name="Path 757" d="M839.759,394.145c-14.207,2.267-34.4,5.159-37.606,4.182-2.664-.808-11.159-.723-18.552-.469.065-3.7.13-6.156.13-6.156l55.032-5.732A45.982,45.982,0,0,0,839.759,394.145Z" transform="translate(-328.169 -211.56)" opacity="0.1"/>
  <path id="Path_758" data-name="Path 758" d="M821.256,330.209s-46.752,8.025-51.768,6.514-30.779.124-30.779.124c-11.6,7.771-6.755-3.694-6.755-3.694s-1.016-5.987.384-10.827a66.143,66.143,0,0,0,1.922-10.84s-.254-7.648,1.146-9.433,3.062-14.52,3.062-14.52,1.27-8.664,1.146-10.573.378-7.263.378-7.263l1.661-8.918c-9.556-1.27-38.6-19.106-38.6-19.106-1.4-5.987-12.227-20-12.227-20a14.74,14.74,0,0,0-.892-3.439c-.762-2.039,10.7-6.117,10.7-6.117s8.534,10.423,10.318,13.25,7.9,8.025,7.9,8.025a6.143,6.143,0,0,1,2.8.365l.15.046h0a22.707,22.707,0,0,1,5.7,3.257,11.074,11.074,0,0,1,7.771,2.931s5.211-.769,6.117.124,5.348,0,5.348,0,4.456-9.426,7.387-6.69,15.367,2.606,15.367,2.606c1.655-2.2,5.687-3.778,8.208-4.56a11.016,11.016,0,0,1,6.644-.111,8.428,8.428,0,0,1,2.606,1.3l7.563,7.387s2.163-2.808,1.909-3.439,2.547-1.146,2.547-1.146,3.694-1.146,5.094-1.531,2.684,1.133,2.8,1.27a15.23,15.23,0,0,1-.651-5.6c.352-2.345-1.531-4.56-1.531-4.56,4.456-10.957,14.52-1.785,14.52-1.785s1.146,5.987.13,8.28,1.016,7.133.762,8.41.515,3.439.515,5.863-1.3,7-2.039,9.042-6.879,6.625-6.879,6.625-.384,7.263-3.062,11.465-1,18.572-1,18.572,2.547,11.211,5.732,14.781S821.256,330.209,821.256,330.209Z" transform="translate(-295.504 -150.958)" fill="#3f3d56"/>
  <path id="Path_759" data-name="Path 759" d="M783.521,260.554s-1.4-4.2-2.677-4.56a29.471,29.471,0,0,1-3.693-1.655l.821-1.57s4.781,1.3,5.55,2.716S783.521,260.554,783.521,260.554Z" transform="translate(-325.92 -165.128)" opacity="0.1"/>
  <path id="Path_760" data-name="Path 760" d="M741.415,248.669c-.254,1.3-11.6,2.417-11.6,2.417l5.732-5.745h0l.143.052h0a22.708,22.708,0,0,1,5.719,3.277Z" transform="translate(-309.422 -162.538)" opacity="0.1"/>
  <circle id="Ellipse_109" data-name="Ellipse 109" cx="1.016" cy="1.016" r="1.016" transform="translate(398.172 67.63)" fill="#575988"/>
  <circle id="Ellipse_110" data-name="Ellipse 110" cx="1.016" cy="1.016" r="1.016" transform="translate(399.475 69.669)" fill="#575988"/>
  <circle id="Ellipse_111" data-name="Ellipse 111" cx="1.016" cy="1.016" r="1.016" transform="translate(400.752 71.552)" fill="#575988"/>
  <circle id="Ellipse_112" data-name="Ellipse 112" cx="1.016" cy="1.016" r="1.016" transform="translate(402.087 73.584)" fill="#575988"/>
  <circle id="Ellipse_113" data-name="Ellipse 113" cx="0.827" cy="0.827" r="0.827" transform="translate(522.358 73.662)" fill="#575988"/>
  <circle id="Ellipse_114" data-name="Ellipse 114" cx="0.827" cy="0.827" r="0.827" transform="translate(522.488 75.545)" fill="#575988"/>
  <circle id="Ellipse_115" data-name="Ellipse 115" cx="0.827" cy="0.827" r="0.827" transform="translate(522.599 77.421)" fill="#575988"/>
  <path id="Path_761" data-name="Path 761" d="M787,317.72c-.124-.15,28.6,36.115,50.889,15.158C837.908,332.885,802.686,337.66,787,317.72Z" transform="translate(-329.354 -187.769)" opacity="0.1"/>
  <path id="Path_762" data-name="Path 762" d="M761.7,346.66s17.184.469,18.982,5.413v5.146a3.3,3.3,0,0,1-3.2,0c-1.733-.938-12.123-6.215-15.784-3.674Z" transform="translate(-320.535 -197.857)" opacity="0.1"/>
  <path id="Path_763" data-name="Path 763" d="M762.19,346.66s16.435.449,18.155,5.166v4.9a3.153,3.153,0,0,1-3.062,0c-1.655-.886-11.589-5.921-15.093-3.5Z" transform="translate(-320.705 -197.857)" fill="#3f3d56"/>
  <path id="Path_764" data-name="Path 764" d="M776.1,289.38a55.3,55.3,0,0,0,6.664,11.432,44.856,44.856,0,0,0,10.423,10.077S776.387,291.738,776.1,289.38Z" transform="translate(-325.554 -177.89)" opacity="0.1"/>
  <path id="Path_765" data-name="Path 765" d="M767.47,258.73s2.866,12.377,10.253,16.579Z" transform="translate(-322.546 -167.206)" opacity="0.1"/>
  <path id="Path_766" data-name="Path 766" d="M760.583,260.648c-.072-.228-2.547,9.771,9.524,15.328C770.107,275.976,764.98,274.237,760.583,260.648Z" transform="translate(-320.056 -167.873)" opacity="0.1"/>
  <path id="Path_767" data-name="Path 767" d="M875.908,247.906c-.189,0,5.954,3.908,7.628,5.732C883.536,253.638,879.536,247.645,875.908,247.906Z" transform="translate(-360.344 -163.43)" opacity="0.1"/>
  <path id="Path_768" data-name="Path 768" d="M809.484,216.471a2.391,2.391,0,0,0,2.606,2.365c4.619.287,9.432.489,13.68-1.3a5.211,5.211,0,0,0,2.085-1.381,8.57,8.57,0,0,0,1.212-3.355c.6-2.267,1.876-4.28,2.795-6.436a21.562,21.562,0,0,0,1.5-11.563,7.817,7.817,0,0,0-1.159-3.381c-1.225-1.752-3.459-2.462-5.081-3.856s-2.664-3.524-4.56-4.56a8.755,8.755,0,0,0-5.719-.508,30.024,30.024,0,0,0-10.67,4.006c-1.1.651-2.306,1.453-3.57,1.212A4.774,4.774,0,0,1,800,185.7a14.111,14.111,0,0,0-1.088,6.612,2.84,2.84,0,0,1-.033,1,3,3,0,0,1-.71,1.049c-1.14,1.3-1.85,3.42-.723,4.762.489.58,1.244.9,1.72,1.492.853,1.062.567,2.606.547,3.961a2.039,2.039,0,0,0,.339,1.342,1.954,1.954,0,0,0,1.87.449,5.087,5.087,0,0,1,1.993-.189,3.342,3.342,0,0,1,1.733,1.3C807.751,210.218,808.585,213.2,809.484,216.471Z" transform="translate(-332.797 -140.549)" fill="#2d293d"/>
  <g id="Group_55" data-name="Group 55" transform="translate(464.081 45.013)" opacity="0.1">
    <path id="Path_769" data-name="Path 769" d="M828.395,221.777a5.211,5.211,0,0,1-2.085,1.381c-4.273,1.778-9.081,1.576-13.68,1.3a2.4,2.4,0,0,1-2.612-2.371c-.9-3.257-1.726-6.247-3.863-8.963a3.349,3.349,0,0,0-1.733-1.335,5.342,5.342,0,0,0-1.993.189,1.954,1.954,0,0,1-1.87-.443,2.039,2.039,0,0,1-.339-1.342c0-1.368.306-2.9-.547-3.961-.475-.593-1.231-.912-1.72-1.5a2.97,2.97,0,0,1-.293-3.036c-.814,1.3-1.16,2.938-.215,4.058.489.58,1.244.9,1.72,1.492.853,1.068.567,2.606.547,3.961a2.026,2.026,0,0,0,.332,1.342,1.954,1.954,0,0,0,1.876.449,5.087,5.087,0,0,1,1.993-.189,3.342,3.342,0,0,1,1.733,1.3c2.13,2.716,2.964,5.7,3.863,8.97a3.257,3.257,0,0,0,1.127,2.065,3.159,3.159,0,0,0,1.433.313c4.619.287,9.432.5,13.68-1.3a5.159,5.159,0,0,0,2.085-1.381,3.983,3.983,0,0,0,.651-1.225A.322.322,0,0,1,828.395,221.777Z" transform="translate(-796.877 -192.339)"/>
    <path id="Path_770" data-name="Path 770" d="M799.977,194.678a2.228,2.228,0,0,0,.463-.769,2.842,2.842,0,0,0,0-1,14.131,14.131,0,0,1,.71-5.485l-.085-.1a14.006,14.006,0,0,0-1.088,6.605,4.713,4.713,0,0,1,0,.743Z" transform="translate(-797.943 -187.33)"/>
  </g>
  <path id="Path_771" data-name="Path 771" d="M812.08,248.7s18.937,2.514,20.637-.332" transform="translate(-338.096 -163.595)" opacity="0.1"/>
  <path id="Path_772" data-name="Path 772" d="M868.59,236.85s10.527,0,12.839,3.961" transform="translate(-357.795 -159.579)" opacity="0.1"/>
  <path id="Path_773" data-name="Path 773" d="M951.551,772.123a16.7,16.7,0,0,1-11.367,4.247c-1.068,0-2.547.2-2.554,1.27a1.791,1.791,0,0,0,.313.873,10.455,10.455,0,0,0,5.863,4.605,20.72,20.72,0,0,0,7.094.45l6.938-.358c1.3-.072,2.606-.137,3.909-.3s2.723-.43,4.084-.651a53.424,53.424,0,0,1,10.1-.469,3.059,3.059,0,0,0,2.488-.651c.534-.651.261-1.9.059-2.873-.417-2.013,0-4.124-.384-6.143-.651-3.544-3.72-6.26-7.081-7.543-3.127-1.186-8.664-2.547-11.621-.567C956.274,766.091,954.365,769.563,951.551,772.123Z" transform="translate(-381.861 -342.989)" fill="#3f3d56"/>
  <path id="Path_774" data-name="Path 774" d="M962.126,587c.612,2.912,3.433,5.14,3.511,8.11.072,2.384-1.629,4.384-2.853,6.423a42.85,42.85,0,0,0-2.912,6.592,100.707,100.707,0,0,1-8.547,17c-1.629,2.606-3.453,5.387-3.081,8.416a12.61,12.61,0,0,0,1.479,4.026l4.886,9.706a28.108,28.108,0,0,1,2.495,6.13c.423,1.844.463,3.752.71,5.628.769,5.954,3.563,11.947,1.909,17.719-.143.5-.651,1.094-1.049.749,1.615,3.016,2.912,6.052,2.788,9.472-.065,1.791-.612,3.661.046,5.329a5.833,5.833,0,0,1,.762,2.1,13.372,13.372,0,0,1-.28,1.44c-.137,1.375,1.127,2.521,2.436,2.957s2.736.4,4.058.8c2.541.762,4.358,2.951,6.514,4.469a13.869,13.869,0,0,0,7.5,2.443,1.889,1.889,0,0,0,1.107-.221,1.791,1.791,0,0,0,.612-1.342,7.452,7.452,0,0,0-2.684-6.475,2.932,2.932,0,0,1-1-1.042,2.515,2.515,0,0,1-.091-1.166,87.784,87.784,0,0,0-.287-16.025,24.336,24.336,0,0,1-.254-5.1,20.84,20.84,0,0,0,.41-4.241,22.523,22.523,0,0,0-1.3-4.065c-.756-2.423-.547-5.029-.651-7.563a66.338,66.338,0,0,0-2.143-13.028,9.854,9.854,0,0,0-2.026-4.7c-1.016-1.062-2.658-2.078-2.273-3.492a4.138,4.138,0,0,1,.931-1.388,5.57,5.57,0,0,0,1.16-4.247,1.909,1.909,0,0,0,2.2-1.029,34.346,34.346,0,0,0,17.184-19.542,6.446,6.446,0,0,1,.769-1.746,7.866,7.866,0,0,1,3.146-2.039c3.557-1.791,6.013-5.146,8.266-8.429a14.9,14.9,0,0,0,3.628-10.52l.2-7.654a4.137,4.137,0,0,0-.143-1.5,3.746,3.746,0,0,0-.827-1.212,14.715,14.715,0,0,0-8.117-4.378c-2.084-.371-4.215-.3-6.325-.476-4.091-.339-8.13-1.609-12.221-1.3-6.429.476-12.155,4.931-15.184,10.625C965.526,585.216,964.406,586.962,962.126,587Z" transform="translate(-385.544 -276.594)" fill="#464353"/>
  <path id="Path_775" data-name="Path 775" d="M910.978,509.295a8.555,8.555,0,0,1-.469,3.485,2.435,2.435,0,0,1-2.86,1.466c.332-.749-.547-1.6-1.368-1.511a2.56,2.56,0,0,0-1.8,1.55,5.765,5.765,0,0,0-.521,3.537c.261,1.5,1.127,2.938.9,4.443-.182,1.251-1.1,2.495-.612,3.654a5.919,5.919,0,0,0,1.179,1.414A3.987,3.987,0,0,1,905,532.8l12.325.248c-.449,2.058.475,4.163,1.531,5.993a37.782,37.782,0,0,0,28.167,18.389,2.449,2.449,0,0,0-.593,3.746,3.481,3.481,0,0,0,3.961.228,28.178,28.178,0,0,0,3.387-2.541,10.423,10.423,0,0,1,6.964-1.876c1.544.15,3.042.651,4.593.73,4.56.241,8.468-3.042,12.859-4.384,3.2-.984,6.827-.984,9.511-2.984,1.16-.86,2.111-2.273,1.772-3.667a6.13,6.13,0,0,0-1.3-2.156,37.253,37.253,0,0,1-3.563-6.677,39.939,39.939,0,0,0-8.9-11.934,79.692,79.692,0,0,0-8.833-6.7,15.06,15.06,0,0,0-2.384-1.44,26.744,26.744,0,0,1-3.257-1.3c-1.446-.912-2.28-2.521-3.394-3.817-2.443-2.853-6.195-4.163-9.2-6.4-2.019-1.5-3.8-3.485-6.215-4.208-1.172-.358-2.417-.384-3.589-.736-2.664-.808-4.606-3.172-7.218-4.13-2.065-.756-4.345-.56-6.514-.827a15.25,15.25,0,0,1-6.807-2.593,8.078,8.078,0,0,0-2.169-1.264c-3.3-1-3.57,5.146-3.909,7.276C911.773,502.943,910.978,506.09,910.978,509.295Z" transform="translate(-370.094 -248.656)" fill="#6c63ff"/>
  <path id="Path_776" data-name="Path 776" d="M895.29,544.628c.554,6.006-3.98,11.823-2.658,17.706.28,1.251.821,2.443,1.016,3.713.554,3.485-1.531,6.788-3.518,9.706L873.064,600.8a15.75,15.75,0,0,1-2.436,3.01c-3.257,2.9-8.156,2.606-12.442,3.466a21.5,21.5,0,0,0-8.338,3.687.541.541,0,0,0-.1.749,7.166,7.166,0,0,0,6.195,2.912c.449.586,0,1.459-.619,1.883-.912.651-2.176.8-2.358,2.358a2.606,2.606,0,0,0,.313,1.563,4.866,4.866,0,0,0,2.983,2.071c5.908,1.811,12.292-1.368,16.715-5.687s7.6-9.771,11.934-14.162c2.4-2.436,5.133-4.514,7.609-6.872,4.938-4.71,8.781-10.423,12.481-16.149a17.873,17.873,0,0,0,2.7-5.5c.463-2,.248-4.026.775-5.961.69-2.534,2.547-4.56,4.091-6.683,3.029-4.169,5.055-9.27,4.651-14.409s-3.583-10.208-8.429-11.953a7.577,7.577,0,0,0-4.723-.287c-1.987.612-3.453,2.254-4.807,3.83L896,542.406a8.721,8.721,0,0,0-1.831,2.873,3,3,0,0,0,.651,3.192" transform="translate(-351.188 -263.366)" fill="#fbbebe"/>
  <path id="Path_777" data-name="Path 777" d="M927.095,512.063c-2.241.13-4.71.352-6.293,1.954a8.959,8.959,0,0,0-1.589,2.488c-1.537,3.133-3.036,6.41-3.146,9.9-.091,2.788.716,5.518,1.14,8.273.352,2.293-.541,4.632-.71,6.951a48.242,48.242,0,0,0,8.977-3.453,30.058,30.058,0,0,1,5.257-2.729c2.677-.892,7.166.651,9.713,1.889.137-1.785-1.205-4.9-1.062-6.69a7.473,7.473,0,0,1,.4-2.215,13.442,13.442,0,0,1,1.349-2.143,8.768,8.768,0,0,0-.788-10.273c-2.26-2.541-5.8-3.492-9.172-3.909a39.667,39.667,0,0,0-6.4-.221" transform="translate(-374.342 -255.438)" fill="#6c63ff"/>
</svg>
